<svg width="700" height="550" viewBox="0 0 700 550" fill="none" xmlns="http://www.w3.org/2000/svg">
<path d="M325.24 442.732C323.83 438.102 322.41 433.482 321.06 428.842C319.71 424.202 318.39 419.552 317.12 414.892C315.84 410.222 314.63 405.542 313.46 400.852L312.9 398.622C312.471 399.028 312.013 399.402 311.53 399.742L312 401.262C313.44 405.882 314.85 410.502 316.19 415.152C317.54 419.792 318.843 424.445 320.1 429.112C321.29 433.442 322.4 437.802 323.52 442.152C317.34 442.022 311.16 441.822 304.98 441.742L295.21 441.582L285.45 441.492L265.92 441.342L256.16 441.332L247.69 441.392C247.06 437.282 246.35 433.182 245.67 429.052L243.32 415.322L238.29 387.202L247.09 387.772L251.41 388.012L255.83 388.202C261.71 388.442 267.597 388.622 273.49 388.742C279.38 388.882 285.27 388.902 291.16 388.912C292.24 388.902 293.32 388.892 294.39 388.882C294.425 387.952 294.632 387.037 295 386.182L291.14 386.212L273.5 386.342L255.85 386.532L251.43 386.602L246.93 386.712L238.07 387.002L241.25 414.712L243.01 428.892C243.62 433.642 244.2 438.402 244.88 443.152L245.07 444.452L246.39 444.462L256.16 444.542L265.92 444.532L285.45 444.372L295.21 444.282L304.98 444.122C311.49 444.042 318 443.822 324.51 443.692L325.53 443.672L325.24 442.732Z" fill="black"/>
<path d="M296.8 415.862C294.1 414.532 291.57 417.202 288.86 415.592C287.11 414.542 286.54 412.462 286.13 410.932C284.83 406.172 287.25 403.532 285.72 401.902C284.26 400.362 280.29 400.842 277.92 402.722C275.04 405.002 275.88 408.222 273.4 409.292C272.2 409.812 271.18 409.422 267.35 408.052C258.57 404.922 257.83 404.782 257.39 405.192C255.52 406.892 258.25 414.222 262.04 418.832C264.16 421.412 255.59 423.702 255.74 425.722C255.91 427.952 260.08 430.392 263.68 429.822C269.1 428.972 271.77 421.582 272.99 422.162C274.09 422.672 270.88 428.192 273.26 432.562C274.88 435.522 278.77 437.442 280.65 436.392C281.97 435.662 282.1 433.592 282.3 429.552C282.56 424.222 281.74 421.092 282.57 420.792C283.3 420.522 284.08 422.932 286.4 424.622C290.33 427.482 297.67 427.552 299.54 424.072C300.89 421.562 299.43 417.162 296.8 415.862ZM276.55 418.592C272.68 418.592 272.69 412.592 276.55 412.592C280.41 412.592 280.41 418.592 276.55 418.592V418.592Z" fill="black"/>
<path d="M272.427 409.89C271.755 408.538 271.229 407.118 270.856 405.655C270.473 404.215 270.267 402.734 270.244 401.244C270.242 399.758 270.508 398.284 271.03 396.893C271.593 395.551 272.435 394.344 273.5 393.352C272.601 394.441 271.944 395.709 271.572 397.071C271.263 398.415 271.199 399.803 271.382 401.169C271.586 402.526 271.955 403.853 272.481 405.121C272.986 406.375 273.619 407.573 274.371 408.697L272.427 409.89Z" fill="black"/>
<path d="M377.85 294.002C364.25 314.612 351.61 336.722 349.29 340.802C347.398 335.603 346.038 330.225 345.23 324.752C345.23 324.752 345.15 324.892 345 325.152C344.862 324.378 344.769 323.597 344.72 322.812C344.61 321.632 344.57 320.442 344.57 319.262C344.583 316.893 344.717 314.527 344.97 312.172C345.238 309.775 345.312 307.361 345.19 304.952C345.131 302.54 344.671 300.154 343.83 297.892C344.098 299.052 344.262 300.233 344.32 301.422C344.417 302.603 344.453 303.787 344.43 304.972C344.39 307.342 344.24 309.705 343.98 312.062C343.715 314.459 343.655 316.875 343.8 319.282C343.899 321.342 344.259 323.382 344.87 325.352C341.427 330.832 337.437 335.948 332.96 340.622C328.988 344.776 324.393 348.284 319.34 351.022C310.34 355.942 294.7 364.492 291.28 366.372C291.568 365.173 291.709 363.944 291.7 362.712C291.7 358.232 294.32 352.892 295.51 348.632V348.622L301.8 349.802C305.81 349.822 309.83 349.852 313.87 349.522C310.11 348.042 306.36 346.692 302.62 345.312L295.99 344.072C295.908 343.61 295.729 343.171 295.463 342.785C295.197 342.398 294.852 342.073 294.45 341.832C291.35 339.922 289.09 339.922 287.55 342.482L285.11 342.012C283.48 333.942 280.04 331.242 277.66 330.352C276.861 330.027 276.001 329.884 275.14 329.932C275.14 329.932 275.17 329.912 275.22 329.872C276.68 328.732 298.95 311.222 311.1 292.412C323.67 272.942 336.44 260.982 350.02 260.672C350.02 260.672 364.1 260.572 370.99 261.172C372.98 264.492 375.8 285.352 377.85 294.002Z" fill="#701637"/>
<path d="M380.25 371.732C380.533 371.814 380.82 371.881 381.11 371.932H362.88L380.25 371.732Z" fill="black"/>
<path d="M396.51 268.172C397.01 265.242 397.49 262.052 397.94 258.572C397.94 258.572 401.81 257.912 407.73 257.312C404.65 259.152 400.78 263.032 396.51 268.172Z" fill="black"/>
<path d="M477.4 371.83H385C397.97 369.38 413.65 342.75 426.37 315.99C426.44 318.177 426.64 320.357 426.97 322.52C427.27 324.71 427.82 326.86 428.23 328.98C428.603 331.115 428.867 333.268 429.02 335.43C429.157 337.592 429.133 339.761 428.95 341.92C428.795 344.068 428.385 346.189 427.73 348.24L427.72 348.27L427.71 348.32C427.456 350.165 427.365 352.029 427.44 353.89C427.509 355.742 427.73 357.584 428.1 359.4C428.468 361.216 429.042 362.984 429.81 364.67C430.57 366.349 431.545 367.922 432.71 369.35C431.65 367.86 430.77 366.248 430.09 364.55C429.426 362.854 428.937 361.095 428.63 359.3C428.017 355.728 427.99 352.081 428.55 348.5C428.54 348.52 428.54 348.53 428.53 348.55L428.55 348.47C429.239 346.375 429.682 344.207 429.87 342.01C430.073 339.803 430.117 337.584 430 335.37C429.861 333.164 429.58 330.97 429.16 328.8C428.72 326.62 428.17 324.52 427.85 322.38C427.443 319.76 427.185 317.119 427.08 314.47C440.22 286.57 450.01 259 450.01 259C456.88 260.93 462.59 264.09 465.64 269.08C466.223 270.041 466.853 270.973 467.53 271.87C472.06 277.74 486 295.21 477.4 371.83Z" fill="#701637"/>
<path d="M377.669 294.198C376.754 290.936 376.076 287.618 375.351 284.317L373.334 274.39L372.272 269.453C371.91 267.816 371.54 266.174 371.079 264.595C370.965 264.199 370.855 263.8 370.715 263.433C370.605 263.074 370.464 262.725 370.295 262.389C369.947 261.716 369.506 261.096 368.986 260.545C368.481 259.993 367.899 259.518 367.257 259.133C366.944 258.95 366.615 258.794 366.274 258.668C365.972 258.553 365.657 258.473 365.337 258.428L365.839 258.33C364.631 258.882 363.357 259.274 362.048 259.498C360.717 259.732 359.356 259.737 358.024 259.512C356.631 259.281 355.327 258.671 354.258 257.747C353.29 256.845 352.453 255.813 351.769 254.68C350.468 252.538 349.33 250.3 348.365 247.987C347.381 245.705 346.49 243.402 345.681 241.051L346.262 241.435C345.266 241.505 344.269 241.325 343.36 240.912C342.872 240.666 342.464 240.286 342.186 239.816C341.93 239.357 341.783 238.846 341.758 238.322C341.729 237.362 341.886 236.406 342.22 235.506C342.52 234.626 342.909 233.779 343.381 232.978C344.368 231.546 344.838 229.822 344.715 228.088C344.637 227.232 344.395 226.399 344.002 225.634C343.592 224.876 343.125 224.056 342.75 223.232C342.356 222.403 342.035 221.541 341.792 220.656C341.524 219.784 341.304 218.898 341.134 218.002C340.923 217.112 340.851 216.199 340.706 215.296C340.64 214.385 340.545 213.473 340.56 212.556C340.543 210.718 340.717 208.883 341.08 207.081C341.431 205.247 342.011 203.465 342.808 201.776C342.866 201.657 342.956 201.557 343.068 201.487C343.18 201.418 343.31 201.381 343.442 201.381C343.574 201.381 343.704 201.419 343.815 201.489C343.927 201.56 344.017 201.66 344.074 201.779L344.11 201.852C345.639 204.979 347.523 207.919 349.722 210.617C351.89 213.311 354.436 215.676 357.282 217.64C358.689 218.606 360.192 219.425 361.766 220.084C363.324 220.756 364.953 221.247 366.622 221.546C369.972 222.132 373.404 222.049 376.722 221.304L376.787 221.291C376.99 221.25 377.199 221.265 377.393 221.335C377.587 221.404 377.759 221.525 377.889 221.685C378.302 222.194 378.661 222.745 378.961 223.329C379.25 223.862 379.505 224.413 379.725 224.978C380.163 226.084 380.51 227.224 380.764 228.386C381.23 230.675 381.437 233.009 381.383 235.344C381.344 237.647 381.117 239.943 380.703 242.208C380.494 243.368 380.365 244.386 380.198 245.465C380.135 245.997 380.101 246.533 380.094 247.068C380.049 247.601 380.045 248.136 380.082 248.669C380.118 250.779 380.634 252.853 381.592 254.734C382.55 256.586 384.045 258.105 385.882 259.092C387.782 260.07 389.908 260.526 392.042 260.414C394.226 260.277 396.376 259.811 398.421 259.032L398.461 259.018C398.526 258.994 398.596 258.988 398.663 259C398.731 259.012 398.794 259.042 398.847 259.086C398.899 259.13 398.939 259.188 398.962 259.252C398.985 259.317 398.991 259.387 398.979 259.454C398.513 262.02 398.056 264.585 397.563 267.14C397.557 267.17 397.54 267.196 397.514 267.213C397.489 267.23 397.459 267.237 397.429 267.231C397.401 267.224 397.376 267.208 397.359 267.184C397.342 267.161 397.335 267.132 397.338 267.103C397.597 264.512 397.894 261.93 398.181 259.35L398.739 259.771C396.648 260.75 394.409 261.372 392.113 261.613C389.747 261.849 387.362 261.454 385.199 260.468C382.997 259.437 381.179 257.734 380.007 255.604C378.853 253.507 378.191 251.175 378.072 248.784C378.015 248.199 378.001 247.611 378.029 247.024C378.02 246.438 378.041 245.852 378.091 245.268C378.227 244.124 378.355 242.912 378.512 241.857C378.842 239.695 379.017 237.513 379.036 235.326C379.058 233.17 378.838 231.018 378.38 228.91C378.153 227.88 377.846 226.868 377.462 225.885C377.277 225.404 377.061 224.935 376.816 224.481C376.603 224.066 376.354 223.67 376.071 223.299L377.238 223.68C373.601 224.487 369.836 224.531 366.182 223.807C364.358 223.446 362.582 222.878 360.887 222.114C359.195 221.372 357.584 220.458 356.078 219.387C353.099 217.264 350.464 214.694 348.268 211.768C346.043 208.897 344.196 205.752 342.77 202.411L344.072 202.488C342.492 205.618 341.633 209.062 341.56 212.568C341.485 214.337 341.615 216.108 341.948 217.846C342.101 218.719 342.302 219.583 342.551 220.434C342.771 221.287 343.066 222.12 343.434 222.921C343.793 223.739 344.207 224.49 344.641 225.319C345.053 226.168 345.311 227.083 345.404 228.022C345.559 229.907 345.072 231.79 344.021 233.363C343.141 234.841 342.672 236.526 342.662 238.245C342.675 238.615 342.791 238.973 342.996 239.281C343.202 239.588 343.489 239.832 343.825 239.986C344.581 240.271 345.395 240.368 346.197 240.269C346.317 240.259 346.437 240.288 346.54 240.352C346.642 240.415 346.722 240.51 346.766 240.621L346.779 240.653C347.683 242.914 348.681 245.16 349.75 247.349C350.784 249.535 351.981 251.639 353.331 253.646C353.944 254.606 354.683 255.48 355.53 256.243C356.356 256.907 357.34 257.346 358.387 257.515C360.629 257.798 362.905 257.452 364.961 256.514L365.048 256.477C365.179 256.422 365.322 256.401 365.463 256.415C365.981 256.474 366.49 256.601 366.975 256.793C367.424 256.965 367.858 257.177 368.271 257.424C369.074 257.917 369.802 258.524 370.431 259.227C371.065 259.911 371.596 260.685 372.006 261.523C372.207 261.946 372.373 262.385 372.502 262.835C372.65 263.263 372.753 263.681 372.863 264.1C373.726 267.445 374.266 270.773 374.809 274.119L376.348 284.139C376.817 287.484 377.323 290.819 377.891 294.146C377.894 294.161 377.893 294.176 377.89 294.191C377.887 294.205 377.881 294.219 377.873 294.232C377.864 294.244 377.853 294.254 377.841 294.263C377.828 294.271 377.814 294.276 377.799 294.279C377.771 294.284 377.743 294.278 377.719 294.263C377.695 294.248 377.677 294.225 377.669 294.198Z" fill="black"/>
<path d="M343.895 241.727C343.65 243.539 343.437 245.343 343.234 247.143C343.045 248.944 342.88 250.744 342.822 252.542C342.732 254.329 342.808 256.122 343.049 257.895C343.174 258.772 343.408 259.63 343.746 260.449C344.073 261.285 344.618 262.019 345.324 262.574C344.488 262.144 343.799 261.476 343.342 260.654C342.88 259.836 342.543 258.953 342.343 258.035C341.958 256.22 341.809 254.363 341.9 252.509C342.056 248.839 342.727 245.21 343.895 241.727Z" fill="black"/>
<path d="M343.346 203.335C343.111 202.925 342.963 202.472 342.908 202.003C342.853 201.534 342.894 201.058 343.028 200.605L343.213 199.924L343.505 199.293C343.605 199.084 343.701 198.867 343.814 198.665L344.203 198.095C344.721 197.336 345.307 196.625 345.952 195.971C346.605 195.337 347.3 194.752 347.982 194.145C350.858 191.97 353.939 190.079 357.181 188.499C358.798 187.731 360.433 186.997 362.068 186.267C363.721 185.588 365.384 184.933 367.051 184.289C368.722 183.677 370.419 183.149 372.106 182.588C372.96 182.332 373.782 182.04 374.695 181.788C375.579 181.55 376.476 181.36 377.38 181.217C380.973 180.625 384.649 180.775 388.181 181.656C391.7 182.543 394.953 184.266 397.663 186.68C400.336 189.13 402.539 192.048 404.163 195.291C405.796 198.52 407.045 201.929 407.884 205.448L407.9 205.544C408.772 210.376 410.32 215.061 412.497 219.462C413.57 221.659 414.813 223.768 416.213 225.772C416.883 226.793 417.655 227.733 418.408 228.69C419.175 229.635 420.033 230.499 420.861 231.389L423.573 233.901L424.995 235.225C425.48 235.653 425.876 236.178 426.319 236.65C428.063 238.577 429.502 240.76 430.585 243.123C432.831 247.791 433.393 253.093 432.176 258.129C432.168 258.157 432.15 258.181 432.126 258.196C432.101 258.212 432.072 258.217 432.043 258.211C432.015 258.206 431.99 258.189 431.973 258.166C431.956 258.142 431.949 258.113 431.953 258.084L431.955 258.072C432.275 255.613 432.176 253.118 431.662 250.692C431.196 248.29 430.35 245.977 429.157 243.84C428.88 243.299 428.569 242.778 428.224 242.278C427.881 241.777 427.571 241.255 427.204 240.773C426.472 239.806 425.677 238.888 424.825 238.025C424.392 237.6 424.013 237.125 423.538 236.741L422.157 235.552L419.259 233.043C415.537 229.448 412.515 225.193 410.348 220.494C409.269 218.167 408.356 215.767 407.616 213.312C406.851 210.853 406.29 208.336 405.938 205.786L405.954 205.881C405.274 202.457 404.259 199.107 402.923 195.882C401.582 192.652 399.614 189.721 397.133 187.257C395.856 186.066 394.435 185.039 392.903 184.201C391.36 183.382 389.71 182.782 388.002 182.418C384.58 181.736 381.05 181.82 377.665 182.664C376.827 182.858 375.999 183.096 375.186 183.377C374.403 183.653 373.572 184.011 372.745 184.326L367.764 186.19C366.129 186.848 364.49 187.496 362.84 188.12L357.992 190.205C354.798 191.637 351.719 193.312 348.782 195.216C348.097 195.739 347.386 196.245 346.721 196.795C346.069 197.352 345.462 197.961 344.907 198.615L344.492 199.107C344.372 199.28 344.272 199.465 344.157 199.643L343.822 200.185L343.589 200.768C343.255 201.542 343.235 202.415 343.532 203.203L343.543 203.227C343.555 203.253 343.556 203.283 343.547 203.31C343.538 203.337 343.519 203.359 343.494 203.373C343.469 203.387 343.44 203.39 343.413 203.383C343.385 203.376 343.361 203.359 343.346 203.335L343.346 203.335Z" fill="black"/>
<path d="M346.167 225.372C347.745 224.237 349.466 223.318 351.286 222.637C352.196 222.287 353.131 222.007 354.082 221.798C355.04 221.552 356.037 221.506 357.013 221.663C356.082 221.867 355.167 222.143 354.279 222.49L351.615 223.499C349.831 224.168 348.053 224.86 346.167 225.372Z" fill="black"/>
<path d="M351.158 231.747C351.517 231.735 351.857 231.583 352.106 231.325C352.356 231.067 352.495 230.721 352.495 230.362C352.495 230.003 352.356 229.658 352.106 229.4C351.857 229.142 351.517 228.99 351.158 228.978C350.799 228.99 350.459 229.142 350.209 229.4C349.96 229.658 349.82 230.003 349.82 230.362C349.82 230.721 349.96 231.067 350.209 231.325C350.459 231.583 350.799 231.735 351.158 231.747Z" fill="black"/>
<path d="M348.924 248.521C350.293 248.555 351.661 248.446 353.006 248.194C353.665 248.066 354.323 247.919 354.983 247.738C355.647 247.566 356.302 247.352 357.013 247.186C355.942 248.177 354.61 248.841 353.174 249.101C352.454 249.23 351.719 249.257 350.991 249.18C350.261 249.119 349.555 248.893 348.924 248.521Z" fill="black"/>
<path d="M428.3 348.572V348.602C428.29 348.622 428.29 348.632 428.28 348.652L428.3 348.572Z" fill="white"/>
<path d="M375.478 297.626C376.79 294.584 378.318 291.639 380.05 288.816C381.729 285.978 383.558 283.241 385.474 280.567C387.398 277.898 389.414 275.294 391.581 272.804C393.712 270.261 396.052 267.902 398.577 265.75C396.969 268.675 395.245 271.462 393.452 274.21C391.679 276.968 389.82 279.661 387.909 282.319C385.992 284.972 384.029 287.592 381.965 290.146C379.917 292.711 377.804 295.23 375.478 297.626Z" fill="black"/>
<path d="M449.76 259.102C436.37 255.322 418.6 256.212 407.73 257.312C408.382 256.911 409.08 256.592 409.81 256.362C409.81 256.362 440.85 250.882 449.76 259.102Z" fill="white"/>
<path d="M449.891 259.175C449.47 259.124 449.046 259.098 448.622 259.096C448.106 259.077 447.592 259.03 447.082 258.955C446.205 258.869 445.33 258.796 444.465 258.686C443.592 258.616 442.72 258.552 441.856 258.457C440.986 258.386 440.113 258.351 439.249 258.263L434.035 257.956C432.295 257.889 430.557 257.784 428.813 257.662C425.33 257.415 421.814 256.987 418.295 257.033C414.777 257.097 411.269 257.452 407.809 258.094L404.289 258.722L407.328 256.636C408.013 256.149 408.755 255.748 409.537 255.443L409.643 255.418C412.998 254.599 416.402 253.998 419.834 253.619C421.546 253.409 423.267 253.253 424.991 253.12C426.718 253.038 428.451 252.943 430.187 252.997C433.685 253.02 437.17 253.417 440.584 254.178C442.311 254.566 443.992 255.135 445.6 255.875C446.404 256.257 447.174 256.706 447.902 257.217C448.269 257.466 448.603 257.769 448.947 258.039C449.152 258.211 449.335 258.408 449.492 258.624C449.654 258.848 449.764 259.035 449.891 259.175ZM449.629 259.029C449.445 258.915 449.245 258.828 449.035 258.771C448.873 258.724 448.717 258.656 448.572 258.571C448.19 258.394 447.832 258.19 447.444 258.041C446.673 257.742 445.886 257.487 445.086 257.277C443.479 256.877 441.843 256.601 440.194 256.453C436.868 256.155 433.528 256.055 430.191 256.154C426.839 256.232 423.471 256.338 420.097 256.529C416.728 256.735 413.341 257.043 409.977 257.306L410.083 257.281C409.405 257.434 408.75 257.671 408.132 257.988L407.651 256.53C411.199 256.447 414.726 256.324 418.25 256.044C421.772 255.772 425.307 255.232 428.871 255.145C429.761 255.131 430.652 255.098 431.542 255.154C432.432 255.189 433.323 255.21 434.21 255.312C435.098 255.401 435.987 255.464 436.874 255.574C437.758 255.704 438.643 255.818 439.524 255.965C441.287 256.263 443.035 256.651 444.759 257.127C445.619 257.377 446.469 257.664 447.317 257.938C447.666 258.092 448.006 258.264 448.338 258.453C448.75 258.682 449.183 258.875 449.629 259.029Z" fill="black"/>
<path d="M349.668 344.757C351.41 345.182 353.068 345.575 354.725 345.918C356.386 346.239 358.03 346.502 359.679 346.669C360.502 346.781 361.328 346.796 362.156 346.865C362.981 346.862 363.817 346.931 364.651 346.891C366.338 346.905 368.001 346.671 369.81 346.567C368.32 347.593 366.636 348.305 364.861 348.659C363.083 349.054 361.251 349.148 359.442 348.937C357.641 348.754 355.876 348.308 354.204 347.613C352.526 346.954 350.988 345.985 349.668 344.757Z" fill="black"/>
<path d="M391.982 347.95C393.724 348.375 395.382 348.769 397.039 349.112C398.7 349.433 400.344 349.695 401.993 349.862C402.816 349.974 403.642 349.99 404.47 350.059C405.295 350.056 406.131 350.125 406.965 350.085C408.652 350.098 410.315 349.865 412.124 349.76C410.634 350.787 408.95 351.499 407.175 351.852C405.397 352.247 403.565 352.341 401.756 352.13C399.955 351.948 398.19 351.502 396.518 350.806C394.84 350.147 393.301 349.178 391.982 347.95Z" fill="black"/>
<path d="M250.83 369.952C251.831 371.244 252.624 372.685 253.18 374.222H252.69C236.47 374.212 220.253 374.055 204.04 373.752C187.82 373.422 171.6 373.022 155.38 372.332C155.354 372.331 155.327 372.325 155.303 372.314C155.279 372.303 155.258 372.287 155.24 372.268C155.222 372.248 155.208 372.225 155.2 372.2C155.191 372.175 155.188 372.148 155.19 372.122C155.193 372.073 155.214 372.026 155.249 371.991C155.284 371.956 155.331 371.935 155.38 371.932C171.6 371.222 187.81 370.812 204.03 370.472C219.63 370.162 235.23 369.989 250.83 369.952Z" fill="black"/>
<path d="M302.2 370.202C301.469 371.356 300.859 372.582 300.38 373.862C295.15 373.922 289.923 373.975 284.7 374.022C286.725 373.28 288.457 371.905 289.64 370.102C293.83 370.132 298.017 370.165 302.2 370.202Z" fill="black"/>
<path d="M544.81 371.742C544.811 371.767 544.806 371.792 544.797 371.816C544.788 371.839 544.774 371.86 544.756 371.878C544.738 371.896 544.717 371.91 544.694 371.919C544.67 371.928 544.645 371.933 544.62 371.932C528.41 372.652 512.19 373.082 495.97 373.332L483.81 373.492L477.3 373.542L471.64 373.582C467.59 373.612 463.53 373.642 459.48 373.622C455.42 373.632 451.363 373.608 447.31 373.552C439.42 373.442 431.53 373.262 423.64 373.082C415.32 372.892 406.99 372.712 398.66 372.602C382.44 372.432 366.22 372.582 350 372.962C342.73 373.152 335.46 373.312 328.19 373.442C326.06 372.512 323.65 371.472 321.25 370.432C330.83 370.562 340.413 370.742 350 370.972C366.22 371.322 382.44 371.405 398.66 371.222C414.87 370.972 431.09 370.422 447.31 370.152C451.36 370.092 455.413 370.058 459.47 370.052C463.53 370.022 467.58 370.042 471.64 370.062L483.8 370.122L495.97 370.262C512.18 370.472 528.4 370.852 544.62 371.532C544.646 371.533 544.672 371.54 544.696 371.551C544.72 371.562 544.741 371.578 544.759 371.598C544.776 371.617 544.79 371.64 544.799 371.665C544.807 371.689 544.811 371.716 544.81 371.742Z" fill="black"/>
<path d="M432.475 372.245C425.891 373.181 419.276 373.933 412.664 374.612C406.047 375.259 399.427 375.871 392.804 376.451C386.183 377.043 379.553 377.522 372.926 378.041C366.297 378.533 359.673 379.075 353.037 379.492L353.029 379.492C352.971 379.496 352.914 379.494 352.856 379.488L335.036 377.395L335.021 377.393C334.934 377.383 334.848 377.359 334.767 377.323C327.721 374.142 320.682 370.944 313.609 367.836C311.843 367.069 310.061 366.275 308.299 365.584C307.746 365.227 306.894 365.819 306.171 366.337C305.435 366.912 304.759 367.561 304.156 368.275C301.684 371.172 300.126 374.737 299.679 378.52C299.672 378.582 299.651 378.642 299.617 378.695C298.797 379.946 297.992 381.208 297.24 382.496C296.472 383.764 295.809 385.093 295.258 386.47C294.952 387.107 294.782 387.801 294.76 388.507C294.737 389.214 294.863 389.917 295.128 390.572C295.922 391.852 296.648 393.174 297.303 394.53C297.332 394.607 297.337 394.692 297.317 394.771L297.315 394.776C297.095 395.677 297.001 396.605 297.038 397.532C297.061 398.443 297.278 399.339 297.677 400.159C298.074 400.959 298.721 401.607 299.52 402.005C299.917 402.219 300.337 402.385 300.773 402.498C301.212 402.615 301.678 402.654 302.129 402.733L302.044 402.734C303.309 402.55 304.559 402.267 305.78 401.887C307.001 401.518 308.187 401.038 309.321 400.455C309.883 400.168 310.425 399.844 310.943 399.483C311.465 399.133 311.91 398.694 312.398 398.308C313.306 397.484 314.017 396.467 314.48 395.332C314.526 395.217 314.606 395.119 314.71 395.051C314.814 394.983 314.936 394.949 315.06 394.953C315.183 394.957 315.303 394.999 315.402 395.074C315.501 395.148 315.574 395.251 315.613 395.369L315.627 395.415C316.679 398.697 318.985 401.431 322.043 403.022C325.193 404.431 328.709 404.808 332.086 404.1C335.467 403.399 338.992 402.348 342.422 401.393C345.842 400.393 349.364 399.407 352.562 398.153L352.584 398.144C352.745 398.082 352.918 398.059 353.089 398.077C365.468 399.406 377.885 400.523 390.297 401.538C402.708 402.597 415.134 403.482 427.565 404.03C433.779 404.329 439.997 404.539 446.207 404.531C449.312 404.524 452.414 404.462 455.505 404.293C458.579 404.158 461.642 403.821 464.672 403.282C466.134 403.04 467.55 402.578 468.872 401.91C469.161 401.748 469.431 401.555 469.677 401.335L470.426 400.495C470.936 399.941 471.4 399.346 471.813 398.717C473.504 396.167 474.753 393.351 475.507 390.387C477.036 384.367 477.554 378.135 477.037 371.945C477.033 371.915 477.042 371.885 477.061 371.861C477.08 371.838 477.107 371.823 477.137 371.819C477.167 371.817 477.196 371.826 477.22 371.844C477.243 371.863 477.259 371.889 477.263 371.919C477.639 375.027 477.766 378.16 477.643 381.288C477.548 384.433 477.155 387.562 476.472 390.633C475.783 393.747 474.566 396.72 472.872 399.422C472.448 400.107 471.969 400.757 471.442 401.366L470.658 402.293C470.337 402.606 469.981 402.882 469.596 403.113C468.159 403.905 466.607 404.469 464.997 404.784C461.907 405.438 458.772 405.863 455.619 406.056C452.487 406.281 449.356 406.398 446.227 406.459C439.969 406.576 433.719 406.473 427.475 406.281C414.99 405.822 402.535 404.949 390.096 403.945C377.661 402.871 365.245 401.605 352.851 400.147L353.378 400.071C351.609 400.775 349.894 401.283 348.152 401.797C346.415 402.303 344.676 402.781 342.935 403.248L337.706 404.611C335.98 405.068 334.185 405.462 332.364 405.82C328.632 406.515 324.776 405.996 321.36 404.338C319.698 403.425 318.232 402.193 317.047 400.712C315.861 399.231 314.98 397.531 314.453 395.709L315.6 395.793C315.046 397.073 314.214 398.213 313.163 399.131C312.623 399.546 312.117 400.014 311.546 400.379C310.984 400.751 310.397 401.085 309.789 401.379C308.588 401.964 307.336 402.438 306.049 402.797C304.767 403.163 303.459 403.429 302.136 403.59L302.11 403.593C302.091 403.595 302.07 403.594 302.051 403.59C301.552 403.493 301.046 403.45 300.555 403.313C300.056 403.179 299.575 402.985 299.122 402.735C298.182 402.251 297.423 401.477 296.958 400.528C296.513 399.601 296.273 398.59 296.255 397.562C296.222 396.554 296.333 395.545 296.584 394.568L296.597 394.813C296.323 394.136 295.994 393.482 295.612 392.859C295.195 392.218 294.813 391.555 294.469 390.871C294.128 390.132 293.984 389.316 294.052 388.504C294.134 387.724 294.323 386.958 294.615 386.23C295.169 384.813 295.835 383.442 296.607 382.131C297.354 380.817 298.151 379.538 298.962 378.269L298.901 378.444C299.323 374.487 300.91 370.745 303.46 367.691C304.087 366.911 304.791 366.198 305.562 365.56C305.966 365.228 306.404 364.94 306.87 364.704C307.136 364.57 307.421 364.479 307.716 364.435C307.899 364.41 308.085 364.416 308.266 364.454C308.406 364.495 308.545 364.537 308.657 364.578C310.514 365.247 312.285 365.98 314.086 366.704C321.257 369.616 328.38 372.631 335.512 375.621L335.244 375.549L353.083 377.476L352.903 377.472L392.683 374.845C399.314 374.429 405.944 373.988 412.572 373.522L422.514 372.837L432.445 372.019C432.475 372.015 432.505 372.024 432.529 372.042C432.553 372.061 432.568 372.089 432.572 372.119C432.574 372.148 432.566 372.177 432.548 372.201C432.53 372.224 432.504 372.24 432.475 372.245Z" fill="black"/>
<path d="M307.223 393.108C307.868 392.436 308.612 391.868 309.43 391.423C310.268 390.924 311.26 390.75 312.217 390.935C313.178 391.235 313.982 391.902 314.456 392.79C314.681 393.216 314.885 393.657 315.069 394.102L315.496 395.469C315.514 395.528 315.521 395.589 315.515 395.65C315.51 395.711 315.492 395.77 315.464 395.825C315.435 395.879 315.397 395.927 315.35 395.966C315.303 396.005 315.248 396.035 315.19 396.053C315.131 396.071 315.07 396.078 315.009 396.072C314.948 396.067 314.889 396.049 314.835 396.021C314.78 395.993 314.732 395.954 314.693 395.907C314.654 395.86 314.624 395.805 314.606 395.747C314.602 395.735 314.599 395.722 314.596 395.71L314.585 395.661L314.296 394.356C314.161 393.94 314.01 393.524 313.841 393.121C313.507 392.334 312.877 391.71 312.088 391.382C311.233 391.15 310.323 391.24 309.53 391.634C308.69 392.004 307.912 392.501 307.223 393.108Z" fill="black"/>
<path d="M296.577 394.393C298.031 392.552 299.383 390.634 300.629 388.646C301.253 387.653 301.823 386.626 302.336 385.57C302.884 384.528 303.252 383.401 303.426 382.237C303.328 383.42 303.031 384.578 302.55 385.663C302.103 386.762 301.596 387.835 301.032 388.878C299.906 390.968 298.668 392.996 297.321 394.951C297.252 395.053 297.144 395.123 297.023 395.145C296.901 395.168 296.776 395.142 296.674 395.072C296.572 395.002 296.502 394.894 296.479 394.773C296.457 394.652 296.483 394.526 296.553 394.424L296.57 394.401L296.577 394.393Z" fill="black"/>
<path d="M294.55 390.803L303.426 375.902L295.362 391.258C295.333 391.312 295.295 391.36 295.248 391.399C295.201 391.438 295.146 391.468 295.088 391.486C295.03 391.504 294.968 391.511 294.907 391.505C294.847 391.5 294.787 391.482 294.733 391.454C294.679 391.425 294.631 391.387 294.592 391.34C294.553 391.293 294.523 391.238 294.505 391.18C294.487 391.122 294.481 391.06 294.486 390.999C294.492 390.939 294.509 390.879 294.538 390.825L294.55 390.803Z" fill="black"/>
<path d="M298.897 378.224L304.766 370.103L299.675 378.733C299.613 378.84 299.51 378.917 299.39 378.948C299.271 378.979 299.144 378.961 299.037 378.898C298.931 378.835 298.854 378.733 298.823 378.613C298.792 378.493 298.81 378.366 298.873 378.26C298.88 378.248 298.888 378.235 298.897 378.224Z" fill="black"/>
<path d="M277.611 330.455C277.054 330.203 276.444 330.09 275.833 330.125C275.222 330.127 274.611 330.174 274.006 330.266C272.833 330.49 271.739 331.018 270.833 331.797C269.962 332.593 269.273 333.568 268.813 334.655C268.342 335.739 268.048 336.892 267.943 338.07C267.928 338.236 267.855 338.392 267.737 338.51C267.618 338.627 267.461 338.699 267.295 338.712C267.128 338.725 266.962 338.679 266.827 338.581C266.691 338.483 266.595 338.34 266.555 338.178L266.55 338.155C266.054 336.042 265.297 333.999 264.295 332.073C263.365 330.208 261.951 328.627 260.201 327.494C259.785 327.238 259.342 327.03 258.879 326.874C258.671 326.8 258.456 326.747 258.237 326.716L257.446 326.615C256.445 326.481 255.427 326.53 254.444 326.761C253.513 326.967 252.644 327.39 251.909 327.996C251.174 328.602 250.592 329.374 250.213 330.248L250.173 330.339C250.069 330.578 249.875 330.766 249.632 330.862C249.39 330.958 249.119 330.953 248.88 330.849C248.812 330.819 248.747 330.781 248.686 330.737C248.17 330.347 247.545 330.127 246.898 330.108C246.185 330.107 245.479 330.247 244.821 330.521C243.406 331.017 242.23 332.027 241.526 333.35L241.485 333.429L241.41 333.596L241.304 333.853C241.241 334.021 241.188 334.192 241.144 334.365C241.057 334.699 241.019 335.044 241.031 335.388C241.07 336.08 241.34 336.738 241.8 337.256C242.881 338.365 244.255 339.144 245.763 339.502L245.803 339.513C245.9 339.54 245.985 339.6 246.043 339.683C246.677 340.633 247.231 341.633 247.701 342.673C247.944 343.177 248.175 343.676 248.45 344.141C248.733 344.633 249.015 345.124 249.26 345.644C249.532 346.173 249.731 346.737 249.85 347.32C249.915 347.506 249.926 347.707 249.882 347.9C249.839 348.092 249.742 348.269 249.603 348.409C249.464 348.549 249.288 348.647 249.096 348.692C248.904 348.738 248.703 348.728 248.516 348.665C247.383 348.39 246.303 347.932 245.319 347.309C244.335 346.742 243.396 346.14 242.456 345.495C241.53 344.813 240.677 344.038 239.912 343.18C239.526 342.768 239.152 342.302 238.804 341.969C238.439 341.627 238.015 341.352 237.553 341.159C236.609 340.788 235.576 340.705 234.585 340.923C233.608 341.113 232.704 341.575 231.977 342.255C231.663 342.576 231.432 342.968 231.303 343.399C231.174 343.829 231.151 344.284 231.236 344.724C231.423 345.716 231.798 346.662 232.342 347.512C232.891 348.42 233.524 349.276 234.233 350.066C234.587 350.465 234.957 350.853 235.336 351.21L236.577 352.294C237.429 353.049 238.257 353.82 239.06 354.608C240.673 356.184 242.24 357.784 243.794 359.42C243.938 359.57 244.033 359.761 244.068 359.966L244.082 360.049C244.216 360.713 244.436 361.357 244.737 361.963C245.052 362.606 245.436 363.212 245.884 363.771C246.332 364.337 246.837 364.854 247.393 365.314C247.952 365.808 248.516 366.124 249.275 366.691C250.653 367.764 251.827 369.075 252.743 370.562C253.667 372.036 254.359 373.644 254.796 375.328L254.729 375.12C255.254 376.482 256.208 377.635 257.448 378.405C258.775 379.12 260.264 379.482 261.772 379.456C263.383 379.449 264.988 379.232 266.543 378.81C268.131 378.399 269.678 377.847 271.166 377.16L271.224 377.133C271.248 377.122 271.272 377.113 271.297 377.105C273.231 376.501 275.162 375.909 277.114 375.371C279.067 374.828 281.011 374.286 283.017 373.843C284.938 373.555 286.724 372.684 288.135 371.349C289.565 369.974 290.611 368.249 291.169 366.345C291.178 366.316 291.198 366.291 291.225 366.277C291.251 366.263 291.282 366.26 291.311 366.268C291.338 366.277 291.361 366.295 291.376 366.319C291.39 366.343 291.396 366.371 291.391 366.399C291.011 368.443 290.075 370.343 288.687 371.89C287.98 372.675 287.158 373.349 286.25 373.888C285.79 374.16 285.306 374.389 284.804 374.572C284.282 374.742 283.752 374.908 283.302 375.016C281.395 375.56 279.484 376.217 277.584 376.871L271.883 378.859L272.014 378.804C270.436 379.608 268.788 380.268 267.09 380.774C265.369 381.307 263.587 381.612 261.787 381.683C259.87 381.773 257.964 381.34 256.274 380.432C255.415 379.934 254.647 379.294 254.003 378.539C253.388 377.787 252.879 376.954 252.491 376.064L252.468 376.004L252.424 375.855C252.032 374.447 251.444 373.1 250.68 371.854C249.917 370.612 248.943 369.512 247.802 368.605C247.294 368.199 246.478 367.688 245.85 367.107C245.186 366.532 244.585 365.89 244.054 365.191C243.517 364.489 243.058 363.731 242.687 362.929C242.291 362.095 242.019 361.207 241.878 360.295L242.166 360.924C240.674 359.288 239.146 357.661 237.593 356.081C236.813 355.295 236.035 354.507 235.241 353.75C234.841 353.358 234.459 353.04 233.999 352.583C233.579 352.157 233.193 351.721 232.821 351.27C232.069 350.367 231.404 349.396 230.833 348.368C230.214 347.301 229.821 346.118 229.679 344.893C229.613 344.227 229.69 343.555 229.906 342.922C230.134 342.283 230.518 341.71 231.022 341.256C231.976 340.441 233.141 339.914 234.383 339.735C235.603 339.531 236.856 339.695 237.982 340.206C238.542 340.472 239.049 340.835 239.481 341.28C239.916 341.745 240.216 342.174 240.576 342.594C241.269 343.433 242.058 344.187 242.928 344.841C243.82 345.476 244.753 346.098 245.696 346.663C246.593 347.253 247.577 347.698 248.612 347.982C249.646 348.297 249.039 346.853 248.611 345.959C248.374 345.471 248.092 344.996 247.813 344.522C247.514 344.027 247.247 343.525 246.989 343.03C246.505 342.047 245.939 341.108 245.297 340.221L245.577 340.402C244.724 340.23 243.894 339.957 243.104 339.59C242.283 339.223 241.536 338.708 240.901 338.071C240.217 337.375 239.786 336.47 239.676 335.501C239.628 335.02 239.651 334.536 239.744 334.062C239.788 333.832 239.845 333.604 239.914 333.38L240.026 333.058L240.086 332.892L240.195 332.655L240.154 332.734C240.531 331.857 241.086 331.068 241.784 330.417C242.471 329.781 243.257 329.261 244.11 328.876C244.987 328.447 245.948 328.216 246.924 328.198C247.973 328.199 248.996 328.523 249.854 329.127L248.328 329.615C248.554 328.991 248.871 328.404 249.267 327.871C249.642 327.351 250.079 326.878 250.569 326.463C251.553 325.635 252.721 325.055 253.976 324.772C255.183 324.505 256.428 324.457 257.651 324.632L258.527 324.755C258.862 324.807 259.192 324.892 259.511 325.009C260.109 325.219 260.68 325.496 261.215 325.834C263.228 327.186 264.83 329.065 265.846 331.266C266.838 333.362 267.539 335.583 267.93 337.868L266.537 337.954C266.723 336.627 267.124 335.34 267.726 334.143C268.306 332.929 269.17 331.872 270.243 331.061C271.324 330.279 272.592 329.794 273.919 329.655C274.565 329.607 275.213 329.616 275.857 329.684C276.51 329.724 277.145 329.917 277.709 330.249C277.734 330.263 277.753 330.286 277.762 330.314C277.771 330.342 277.769 330.372 277.757 330.398C277.744 330.424 277.722 330.445 277.695 330.455C277.668 330.466 277.638 330.466 277.611 330.455L277.611 330.455Z" fill="black"/>
<path d="M280.573 341.081C281.022 342.109 281.275 343.213 281.319 344.334C281.351 344.885 281.349 345.438 281.316 345.989C281.268 346.541 281.208 347.094 281.113 347.641L281.104 347.692C281.091 347.762 281.067 347.829 281.031 347.891C280.782 348.335 280.496 348.758 280.175 349.154C279.835 349.548 279.46 349.91 279.053 350.234C278.273 350.918 277.361 351.434 276.374 351.75C275.32 352.014 274.208 351.919 273.215 351.48C272.691 351.257 272.213 350.938 271.805 350.539C271.694 350.423 271.589 350.301 271.492 350.173C271.384 350.008 271.292 349.833 271.217 349.65L270.976 348.954L270.528 347.618C270.392 347.253 270.223 346.901 270.022 346.567C269.825 346.23 269.607 345.906 269.371 345.595C269.271 345.474 269.092 345.225 268.945 345.004C268.796 344.779 268.641 344.559 268.501 344.331C267.985 343.441 267.619 342.473 267.416 341.465C267.198 340.491 267.128 339.491 267.209 338.497C267.211 338.465 267.227 338.436 267.251 338.416C267.276 338.395 267.307 338.385 267.339 338.388C267.358 338.39 267.376 338.396 267.392 338.407C267.408 338.417 267.422 338.431 267.431 338.447C268.281 340.064 269.263 341.609 270.366 343.065C270.511 343.214 270.641 343.371 270.777 343.523C270.917 343.678 271.014 343.814 271.231 344.043C271.601 344.459 271.915 344.92 272.166 345.416C272.414 345.916 272.603 346.443 272.729 346.986C272.797 347.275 272.83 347.51 272.872 347.722L272.993 348.395L273.107 349.072C273.13 349.147 273.106 349.119 273.13 349.189C273.167 349.255 273.182 349.327 273.226 349.402C273.42 349.74 273.66 350.048 273.941 350.319C274.23 350.617 274.587 350.841 274.982 350.971C275.377 351.1 275.798 351.131 276.208 351.062C276.631 350.956 277.026 350.756 277.361 350.476C277.696 350.196 277.963 349.844 278.142 349.446C278.348 349.055 278.531 348.653 278.692 348.241C278.832 347.822 278.998 347.412 279.189 347.013L279.107 347.263C279.226 346.252 279.48 345.26 279.652 344.23C279.859 343.205 280.064 342.187 280.346 341.103C280.35 341.088 280.357 341.073 280.366 341.06C280.376 341.048 280.388 341.037 280.401 341.029C280.415 341.02 280.43 341.015 280.446 341.012C280.461 341.01 280.477 341.011 280.493 341.015C280.51 341.019 280.526 341.027 280.54 341.039C280.554 341.05 280.566 341.064 280.573 341.081Z" fill="black"/>
<path d="M242.978 360.173C242.794 359.551 242.713 358.902 242.738 358.254C242.752 357.6 242.856 356.951 243.048 356.326C243.237 355.674 243.572 355.074 244.028 354.571C244.25 354.312 244.526 354.104 244.835 353.959C245.145 353.815 245.482 353.739 245.823 353.735C245.318 354.055 244.898 354.492 244.599 355.009C244.31 355.511 244.085 356.047 243.927 356.605C243.562 357.733 243.341 358.928 242.978 360.173Z" fill="black"/>
<path d="M245.673 339.954C246.457 339.761 247.098 339.628 247.777 339.494C248.115 339.431 248.453 339.364 248.807 339.312C249.181 339.246 249.56 339.213 249.94 339.213C249.446 339.839 248.739 340.261 247.953 340.399C247.564 340.472 247.166 340.479 246.774 340.421C246.371 340.372 245.989 340.21 245.673 339.954Z" fill="black"/>
<path d="M249.837 329.926C249.823 330.916 249.954 331.904 250.224 332.857C250.462 333.809 250.97 334.672 251.686 335.343C252.064 335.662 252.504 335.9 252.978 336.043C253.452 336.187 253.95 336.231 254.442 336.175C254.954 336.134 255.461 336.05 255.959 335.925L257.426 335.395L256.004 336.06C255.505 336.235 254.992 336.369 254.47 336.459C253.93 336.566 253.374 336.562 252.835 336.448C252.296 336.333 251.786 336.111 251.336 335.793C250.453 335.11 249.786 334.188 249.415 333.136C249.019 332.11 248.777 331.031 248.696 329.935C248.684 329.784 248.733 329.634 248.832 329.519C248.93 329.404 249.071 329.333 249.222 329.321C249.373 329.309 249.522 329.358 249.637 329.457C249.752 329.555 249.824 329.695 249.835 329.846C249.837 329.864 249.837 329.881 249.837 329.898L249.837 329.926Z" fill="black"/>
<path d="M254.432 336.369C255.225 337.574 255.926 338.837 256.528 340.147C257.195 341.47 257.654 342.887 257.887 344.35C257.952 344.622 258.081 344.875 258.265 345.086C258.449 345.297 258.681 345.461 258.941 345.563C259.537 345.864 260.178 346.067 260.838 346.165C261.513 346.28 262.202 346.287 262.879 346.187C263.576 346.128 264.224 345.802 264.687 345.276C264.513 345.607 264.272 345.898 263.979 346.131C263.686 346.363 263.348 346.532 262.986 346.627C262.268 346.851 261.513 346.938 260.762 346.881C259.997 346.841 259.245 346.659 258.546 346.342C258.14 346.183 257.781 345.922 257.504 345.583C257.227 345.245 257.042 344.842 256.966 344.411C256.892 343.737 256.744 343.072 256.527 342.429C256.331 341.756 256.093 341.09 255.864 340.417L254.432 336.369Z" fill="black"/>
<path d="M269.3 343.522C268.51 343.372 267.73 343.212 266.94 343.052L243.76 338.312L241.53 337.852L232.17 335.922C228.45 334.442 224.73 332.972 221.07 331.232C225.13 331.112 229.12 331.262 233.12 331.412C235.68 331.982 238.26 332.512 240.84 333.042C242.12 333.312 243.4 333.572 244.68 333.842L267.32 338.472C267.696 340.253 268.365 341.959 269.3 343.522Z" fill="black"/>
<path d="M267.23 338.012C267.842 339.807 268.699 341.51 269.777 343.07L270.648 344.081C271.023 344.46 271.362 344.873 271.66 345.315C271.96 345.77 272.206 346.259 272.39 346.772C272.585 347.32 272.691 347.768 272.83 348.205C272.974 348.633 273.081 349.203 273.194 349.259C273.414 349.546 273.682 349.793 273.986 349.989C274.568 350.392 275.279 350.562 275.981 350.467C276.721 350.282 277.381 349.863 277.864 349.272C278.161 348.958 278.433 348.62 278.675 348.262L279.382 347.105L279.318 347.302C279.59 345.999 279.873 344.666 280.018 343.312C280.103 342.637 280.164 341.959 280.184 341.276C280.222 340.587 280.197 339.896 280.11 339.212C280.675 340.517 280.99 341.917 281.04 343.338C281.079 344.046 281.087 344.755 281.074 345.465C281.039 346.175 280.96 346.885 280.903 347.601C280.899 347.641 280.89 347.681 280.873 347.718L280.838 347.799C280.441 348.768 279.907 349.677 279.253 350.495C278.546 351.446 277.525 352.117 276.372 352.39C275.768 352.508 275.145 352.501 274.544 352.367C273.943 352.234 273.375 351.979 272.877 351.616C272.378 351.275 271.944 350.846 271.597 350.351C271.486 350.198 271.394 350.031 271.324 349.856C271.263 349.716 271.217 349.571 271.188 349.421L271.022 348.69C270.905 348.197 270.816 347.698 270.711 347.329C270.592 346.924 270.434 346.532 270.24 346.158C270.042 345.772 269.807 345.405 269.541 345.063C269.249 344.625 268.936 344.202 268.686 343.751C267.784 341.969 267.287 340.009 267.23 338.012Z" fill="black"/>
<path d="M422.117 224.564C422.124 225.064 422.256 225.555 422.5 225.991C422.745 226.428 423.095 226.796 423.519 227.063C424.364 227.597 425.299 227.975 426.278 228.18L429.227 228.868L430.708 229.25C430.955 229.316 431.204 229.382 431.449 229.461L432.144 229.639C433.064 229.905 434.019 230.03 434.976 230.01C435.95 229.984 436.898 229.689 437.716 229.159C438.532 228.605 439.171 227.828 439.556 226.92C439.742 226.472 439.861 225.999 439.909 225.517C439.969 225.071 439.94 224.617 439.826 224.181C439.696 223.834 439.458 223.539 439.146 223.338C438.769 223.112 438.369 222.927 437.952 222.787C437.056 222.47 436.052 222.194 435.039 221.857C433.987 221.526 432.966 221.103 431.987 220.595C431.481 220.328 430.996 220.023 430.536 219.683C430.143 219.45 429.784 219.163 429.4 218.984C428.696 218.564 427.877 218.379 427.061 218.456C426.246 218.533 425.475 218.867 424.862 219.411C424.069 220.03 423.415 220.808 422.942 221.696C422.469 222.584 422.188 223.561 422.117 224.564ZM421.885 224.564C421.92 223.498 422.086 222.441 422.38 221.416C422.652 220.33 423.112 219.301 423.74 218.374C424.438 217.314 425.509 216.555 426.741 216.248C428.018 215.976 429.35 216.159 430.507 216.766C431.033 217.042 431.539 217.355 432.021 217.703C432.401 217.971 432.782 218.239 433.187 218.487C434.029 218.988 434.906 219.428 435.81 219.803C436.741 220.205 437.726 220.556 438.728 221.093C439.267 221.369 439.761 221.725 440.193 222.149C440.672 222.635 440.981 223.262 441.074 223.938C441.071 228.802 436.388 232.091 431.815 231.543C430.746 231.415 429.692 231.183 428.669 230.849C427.638 230.521 426.646 230.084 425.708 229.545C424.748 228.998 423.876 228.31 423.12 227.505C422.357 226.712 421.917 225.664 421.885 224.564Z" fill="black"/>
<path d="M436.722 191.725C436.739 192.59 436.957 193.438 437.36 194.203C437.779 194.954 438.352 195.606 439.042 196.118C440.443 197.117 442.006 197.867 443.663 198.333C445.303 198.868 446.989 199.267 448.667 199.723L451.198 200.38C451.623 200.487 452.048 200.591 452.468 200.714L453.697 200.995C455.328 201.401 457.014 201.536 458.688 201.394C460.381 201.252 462.009 200.678 463.415 199.725C464.818 198.741 465.928 197.396 466.627 195.832C466.776 195.434 466.939 195.041 467.06 194.636C467.17 194.229 467.252 193.816 467.307 193.397C467.435 192.597 467.422 191.781 467.269 190.985C467.059 190.283 466.628 189.667 466.041 189.228C465.383 188.771 464.67 188.399 463.919 188.119C462.361 187.506 460.664 187.012 458.977 186.412C457.247 185.826 455.566 185.104 453.95 184.252C453.129 183.808 452.339 183.307 451.587 182.753C450.938 182.271 450.252 181.841 449.535 181.468C448.214 180.712 446.688 180.392 445.174 180.553C443.629 180.822 442.198 181.541 441.061 182.619C439.803 183.778 438.777 185.164 438.036 186.705C437.247 188.266 436.799 189.978 436.722 191.725ZM436.49 191.725C436.544 189.935 436.867 188.162 437.449 186.468C437.99 184.709 438.832 183.056 439.937 181.584C441.114 179.968 442.827 178.823 444.771 178.354C446.775 177.987 448.844 178.304 450.645 179.254C451.499 179.685 452.312 180.194 453.073 180.773C453.75 181.249 454.426 181.724 455.149 182.15C456.62 183.01 458.157 183.752 459.745 184.368C461.355 185.021 463.032 185.591 464.693 186.425C465.566 186.841 466.373 187.384 467.086 188.037C467.841 188.76 468.342 189.708 468.516 190.739C468.631 192.623 468.224 194.502 467.339 196.17C466.504 197.799 465.316 199.222 463.86 200.332C462.369 201.436 460.674 202.231 458.872 202.671C457.071 203.112 455.2 203.189 453.368 202.899L451.998 202.68C451.562 202.594 451.13 202.489 450.698 202.386C449.833 202.174 448.966 201.965 448.113 201.688C446.383 201.179 444.702 200.513 443.093 199.698C441.456 198.889 439.955 197.83 438.643 196.56C437.982 195.937 437.451 195.189 437.081 194.359C436.711 193.529 436.511 192.634 436.49 191.725H436.49Z" fill="black"/>
<path d="M443.868 147.52C443.377 148.75 443.139 150.065 443.169 151.389C443.228 152.711 443.656 153.99 444.403 155.083C445.978 157.222 448.045 158.95 450.429 160.121C455.198 162.505 460.174 164.45 465.296 165.932C470.393 167.537 475.534 169.059 480.606 170.844C483.149 171.714 485.67 172.66 488.168 173.681C490.649 174.661 493.089 175.667 495.617 176.456C500.597 178.219 505.821 179.197 511.101 179.354C513.727 179.398 516.345 179.047 518.868 178.314C521.39 177.572 523.714 176.276 525.671 174.521C527.612 172.735 529.161 170.567 530.22 168.152C531.269 165.721 531.974 163.156 532.315 160.531C532.674 157.902 532.792 155.245 532.668 152.594C532.598 151.267 532.52 149.943 532.366 148.622C532.252 147.313 532.045 146.014 531.747 144.734C530.371 139.638 528.187 134.794 525.279 130.388C522.433 125.95 519.038 121.888 515.175 118.299C511.352 114.719 506.953 111.808 502.163 109.69C499.784 108.66 497.308 107.875 494.771 107.346C492.236 106.836 489.648 106.64 487.066 106.764C481.865 106.826 476.746 108.056 472.085 110.363C467.427 112.768 463.259 116.022 459.798 119.959C456.286 123.956 453.23 128.331 450.686 133.004C448.115 137.697 445.839 142.545 443.868 147.52ZM443.652 147.434C445.632 142.455 447.74 137.524 450.115 132.704C452.454 127.833 455.31 123.228 458.634 118.968C462.003 114.618 466.234 111.011 471.064 108.374C475.986 105.804 481.436 104.406 486.988 104.289C492.547 104.053 498.083 105.145 503.135 107.474C508.132 109.768 512.706 112.888 516.665 116.703C520.612 120.466 524.036 124.742 526.844 129.417C529.722 134.052 531.799 139.139 532.989 144.464C533.852 149.822 533.897 155.28 533.123 160.652C532.33 165.967 530.227 171.325 526.179 175.076C524.166 176.946 521.774 178.36 519.165 179.22C516.57 180.096 513.859 180.576 511.122 180.646C505.672 180.721 500.244 179.929 495.043 178.301C492.441 177.543 489.888 176.594 487.393 175.598C484.927 174.606 482.426 173.689 479.922 172.768C474.902 170.962 469.843 169.208 464.818 167.308C462.306 166.359 459.802 165.377 457.332 164.305C454.845 163.259 452.436 162.036 450.123 160.646C448.969 159.939 447.866 159.153 446.821 158.294C445.777 157.421 444.871 156.396 444.134 155.252C443.386 154.102 442.96 152.773 442.903 151.402C442.882 150.042 443.137 148.692 443.652 147.434Z" fill="black"/>
<path d="M481.854 146.08H482.252C480.365 147.799 478.844 149.88 477.779 152.2C476.714 154.519 476.127 157.029 476.053 159.58C476.034 160.958 476.167 162.334 476.451 163.682C476.477 163.814 476.529 163.939 476.604 164.05C476.679 164.162 476.775 164.257 476.887 164.331C476.999 164.405 477.124 164.457 477.256 164.482C477.388 164.507 477.524 164.506 477.655 164.478C480.849 163.841 483.821 162.379 486.277 160.24C488.732 158.1 490.586 155.356 491.655 152.279C492.902 155.285 494.915 157.91 497.495 159.893C500.074 161.876 503.129 163.148 506.354 163.58C506.636 163.61 506.92 163.539 507.155 163.381C507.343 163.185 507.48 162.944 507.553 162.682C507.983 159.463 507.573 156.188 506.365 153.174C505.156 150.16 503.189 147.509 500.655 145.478C503.887 145.262 507.009 144.22 509.723 142.452C512.437 140.685 514.651 138.25 516.155 135.381C516.215 135.269 516.252 135.147 516.264 135.021C516.276 134.895 516.263 134.768 516.225 134.647C516.188 134.526 516.126 134.413 516.045 134.316C515.964 134.219 515.864 134.139 515.752 134.08C512.862 132.602 509.639 131.899 506.396 132.039C503.154 132.18 500.003 133.159 497.252 134.881C498.115 131.747 498.155 128.444 497.366 125.29C496.578 122.137 494.989 119.24 492.752 116.881C492.662 116.786 492.554 116.71 492.434 116.659C492.313 116.607 492.184 116.58 492.053 116.58C491.922 116.58 491.793 116.607 491.672 116.659C491.552 116.71 491.444 116.786 491.354 116.881C488.819 119.278 487.014 122.343 486.146 125.722C485.279 129.101 485.384 132.657 486.451 135.978C483.547 134.048 480.142 133.005 476.655 132.978C473.173 132.878 469.735 133.782 466.752 135.58C466.638 135.65 466.539 135.742 466.461 135.851C466.384 135.96 466.329 136.084 466.301 136.214C466.273 136.345 466.271 136.48 466.297 136.612C466.323 136.743 466.375 136.868 466.451 136.978C467.98 139.726 470.212 142.017 472.919 143.617C475.626 145.216 478.71 146.067 481.854 146.08ZM491.451 135.779C493.105 135.805 494.683 136.48 495.843 137.659C497.004 138.838 497.654 140.426 497.654 142.08C497.654 143.734 497.004 145.322 495.843 146.501C494.683 147.68 493.105 148.355 491.451 148.381C490.623 148.384 489.802 148.224 489.037 147.908C488.271 147.593 487.575 147.128 486.99 146.543C486.405 145.957 485.941 145.261 485.626 144.495C485.311 143.729 485.151 142.908 485.155 142.08C485.164 140.413 485.831 138.816 487.009 137.637C488.188 136.457 489.784 135.79 491.451 135.779Z" fill="black"/>
<path d="M491.451 146.279C492.591 146.279 493.684 145.826 494.491 145.02C495.297 144.214 495.75 143.121 495.75 141.981C495.75 140.841 495.297 139.747 494.491 138.941C493.684 138.135 492.591 137.682 491.451 137.682C490.886 137.678 490.325 137.786 489.802 138.001C489.279 138.215 488.804 138.531 488.404 138.931C488.004 139.331 487.688 139.806 487.473 140.329C487.259 140.852 487.151 141.413 487.155 141.978C487.179 143.111 487.639 144.19 488.439 144.991C489.24 145.793 490.319 146.254 491.451 146.279Z" fill="black"/>
<path d="M518.663 287.341C520.218 289.894 522.078 292.251 524.2 294.358C522.05 294.432 519.916 293.969 517.99 293.012C516.599 292.295 515.424 291.22 514.587 289.898C513.771 288.557 513.321 287.026 513.28 285.457C513.241 283.309 513.743 281.187 514.741 279.286C515.711 282.122 517.028 284.828 518.663 287.341Z" fill="black"/>
<path d="M525.68 288.187C525.718 290.336 525.209 292.46 524.2 294.358C523.229 291.521 521.912 288.816 520.278 286.303C518.717 283.752 516.858 281.397 514.741 279.286C516.887 279.209 519.017 279.679 520.931 280.65C522.323 281.366 523.502 282.433 524.353 283.746C525.187 285.08 525.645 286.614 525.68 288.187Z" fill="black"/>
<path d="M513.53 305.681C515.086 308.239 516.952 310.596 519.086 312.698C516.936 312.775 514.801 312.312 512.876 311.352C511.48 310.635 510.299 309.561 509.454 308.238C508.638 306.897 508.188 305.366 508.147 303.797C508.108 301.65 508.61 299.527 509.608 297.626C510.586 300.459 511.903 303.164 513.53 305.681Z" fill="black"/>
<path d="M520.547 306.527C520.584 308.674 520.082 310.796 519.086 312.698C518.099 309.868 516.783 307.164 515.164 304.643C513.597 302.092 511.731 299.736 509.608 297.626C511.754 297.547 513.884 298.017 515.798 298.991C517.203 299.693 518.389 300.766 519.226 302.095C520.063 303.424 520.52 304.956 520.547 306.527H520.547Z" fill="black"/>
<path d="M507.743 325.866C509.305 328.422 511.17 330.778 513.299 332.884C511.147 332.965 509.009 332.495 507.089 331.518C505.69 330.815 504.508 329.745 503.668 328.423C502.852 327.083 502.401 325.552 502.36 323.982C502.319 321.835 502.822 319.712 503.821 317.811C504.8 320.645 506.116 323.349 507.743 325.866Z" fill="black"/>
<path d="M514.76 326.693C514.8 328.846 514.297 330.975 513.299 332.884C512.314 330.05 510.991 327.345 509.358 324.828C507.798 322.278 505.939 319.923 503.821 317.812C505.967 317.733 508.098 318.202 510.012 319.176C511.403 319.891 512.583 320.959 513.434 322.272C514.264 323.6 514.723 325.127 514.76 326.693Z" fill="black"/>
<path d="M504.917 347.359C506.479 349.92 508.345 352.282 510.473 354.396C508.321 354.477 506.183 354.007 504.263 353.031C502.869 352.318 501.692 351.242 500.86 349.915C500.027 348.588 499.569 347.061 499.534 345.495C499.503 343.348 500.005 341.228 500.995 339.324C501.982 342.147 503.298 344.845 504.917 347.359Z" fill="black"/>
<path d="M511.934 348.205C511.983 350.36 511.48 352.491 510.473 354.396C508.444 348.744 505.21 343.601 500.995 339.324C503.141 339.245 505.272 339.714 507.186 340.688C508.585 341.392 509.767 342.462 510.608 343.784C511.449 345.107 511.908 346.637 511.934 348.205Z" fill="black"/>
<path d="M504.073 360.495C506.22 360.423 508.35 360.891 510.268 361.858C511.664 362.571 512.845 363.642 513.691 364.962C514.523 366.29 514.98 367.818 515.016 369.384C515.057 371.536 514.55 373.663 513.544 375.565C511.394 375.646 509.258 375.18 507.337 374.211C505.941 373.499 504.763 372.424 503.927 371.098C503.105 369.764 502.652 368.234 502.615 366.667C502.576 364.52 503.077 362.398 504.073 360.495Z" fill="black"/>
<path d="M531.524 292.993C528.951 294.207 526.471 295.608 524.103 297.184C524.433 295.141 525.186 293.189 526.314 291.455C527.091 290.282 528.157 289.328 529.409 288.686C530.626 288.091 531.982 287.838 533.331 287.956C535.316 288.154 537.267 288.606 539.137 289.301L531.524 292.993Z" fill="black"/>
<path d="M538.06 295.684C537.253 297.11 536.039 298.262 534.573 298.995C533.108 299.728 531.457 300.007 529.832 299.798C527.709 299.502 525.718 298.593 524.103 297.184C525.553 297.053 526.985 296.763 528.371 296.319C529.746 295.88 531.088 295.347 532.389 294.723C533.692 294.081 534.934 293.321 536.099 292.454C537.294 291.596 538.323 290.527 539.137 289.301C539.597 291.489 539.212 293.769 538.06 295.684Z" fill="black"/>
<path d="M528.525 310.295C525.353 311.448 522.123 312.467 518.874 313.832C519.806 311.768 521.124 309.902 522.758 308.334C523.953 307.208 525.366 306.338 526.91 305.777C528.374 305.247 529.934 305.037 531.485 305.162C533.626 305.377 535.747 305.756 537.83 306.296C534.855 307.906 531.74 309.244 528.525 310.295Z" fill="black"/>
<path d="M535.657 313.217C534.399 314.75 532.752 315.918 530.889 316.597C529.026 317.277 527.014 317.444 525.065 317.081C522.723 316.64 520.567 315.509 518.874 313.832C520.627 313.901 522.382 313.765 524.103 313.428C525.823 313.129 527.514 312.685 529.159 312.102C530.826 311.53 532.425 310.776 533.927 309.853C535.461 308.951 536.79 307.74 537.83 306.296C537.964 307.537 537.841 308.793 537.467 309.984C537.093 311.175 536.477 312.276 535.657 313.217Z" fill="black"/>
<path d="M524.911 325.251C521.739 326.405 518.509 327.424 515.26 328.789C516.191 326.72 517.517 324.852 519.162 323.29C520.348 322.161 521.756 321.29 523.296 320.734C524.76 320.204 526.32 319.994 527.871 320.118C530.012 320.333 532.133 320.713 534.215 321.253C531.24 322.862 528.126 324.201 524.911 325.251Z" fill="black"/>
<path d="M532.043 328.173C530.785 329.707 529.138 330.874 527.275 331.554C525.412 332.234 523.4 332.401 521.451 332.037C519.109 331.597 516.953 330.466 515.26 328.789C517.013 328.857 518.768 328.722 520.489 328.385C522.209 328.086 523.9 327.642 525.545 327.058C527.212 326.486 528.811 325.732 530.313 324.809C531.847 323.908 533.176 322.697 534.215 321.253C534.35 322.494 534.227 323.749 533.853 324.94C533.479 326.131 532.863 327.232 532.043 328.173Z" fill="black"/>
<path d="M521.873 343.572C518.663 345.033 515.298 346.225 511.934 347.724C512.875 345.604 514.198 343.675 515.837 342.034C517.018 340.841 518.405 339.87 519.932 339.17C521.334 338.55 522.841 338.198 524.373 338.132C526.026 337.978 527.717 338.305 530.697 337.901C529.512 339.224 528.115 340.342 526.564 341.208C525.054 342.099 523.487 342.889 521.873 343.572Z" fill="black"/>
<path d="M531.255 339.997C531.277 340.679 531.232 341.361 531.12 342.034C530.85 343.277 530.347 344.457 529.64 345.514C528.399 347.371 526.651 348.833 524.603 349.724C522.702 350.565 520.614 350.89 518.547 350.666C516.094 350.383 513.787 349.356 511.934 347.724C513.781 347.724 515.621 347.498 517.413 347.052C519.214 346.644 520.971 346.065 522.661 345.321C524.387 344.586 525.998 343.608 527.448 342.419C528.961 341.274 530.093 339.699 530.697 337.901C530.842 338.239 530.964 338.585 531.063 338.939C531.147 339.288 531.211 339.641 531.255 339.997Z" fill="black"/>
<path d="M511.857 369.622C511.962 367.506 512.425 365.423 513.227 363.463C513.753 362.17 514.542 361.001 515.545 360.03C516.447 359.207 517.532 358.612 518.711 358.296C519.989 357.857 521.553 357.879 524.051 356.453C524.33 356.66 524.596 356.885 524.847 357.126C525.072 357.381 525.282 357.649 525.476 357.929C525.802 358.487 526.056 359.085 526.232 359.707C526.517 360.873 526.54 362.087 526.301 363.262C525.915 365.287 524.882 367.131 523.356 368.516C521.98 369.787 520.25 370.61 518.396 370.877C516.138 371.188 513.84 370.746 511.857 369.622Z" fill="black"/>
<path d="M530.447 275.518C529.329 278.592 528.568 281.785 528.179 285.034C526.784 283.268 525.858 281.178 525.487 278.959C525.217 277.278 525.355 275.557 525.891 273.941C526.449 272.329 527.4 270.882 528.66 269.731C530.324 268.22 532.339 267.15 534.523 266.616C532.832 269.42 531.464 272.406 530.447 275.518Z" fill="black"/>
<path d="M536.81 277.709C536.242 279.315 535.285 280.755 534.023 281.9C532.37 283.42 530.36 284.498 528.179 285.034C529.855 282.223 531.222 279.238 532.254 276.133C533.371 273.058 534.132 269.865 534.523 266.616C535.923 268.382 536.855 270.471 537.234 272.692C537.507 274.374 537.362 276.097 536.81 277.709Z" fill="black"/>
<path d="M501.687 383.886C501.995 384.482 502.283 385.097 502.572 385.693C502.899 386.385 503.226 387.058 503.552 387.75C504.129 388.961 504.706 390.153 505.263 391.364C505.763 390.038 506.282 388.73 506.782 387.423C507.089 386.674 507.397 385.905 507.705 385.155C507.82 384.828 507.955 384.52 508.089 384.194C505.955 384.136 503.821 384.04 501.687 383.886ZM509.973 387.097L509.474 385.885C509.301 386.327 509.127 386.77 508.955 387.212C508.205 389.115 507.455 391.018 506.667 392.902C508.551 392.826 510.435 392.768 512.319 392.749L509.973 387.097ZM516.068 384.251C515.144 384.251 514.222 384.271 513.28 384.289C512.472 384.271 511.665 384.271 510.839 384.251L511.05 384.79L511.838 386.923L513.549 391.48L515.395 386.578L516.26 384.251H516.068ZM517.701 386.347L517.298 385.212L516.875 386.424L514.702 392.768C516.49 392.787 518.278 392.826 520.085 392.902L517.701 386.347ZM518.259 384.213L518.932 386.232L520.95 392.326L523.777 385.77L524.565 383.924C522.469 384.059 520.355 384.155 518.259 384.213V384.213ZM525.738 385.578L525.141 384.117L524.526 385.693L521.7 392.979C524.123 393.114 526.564 393.325 529.006 393.671L525.738 385.578ZM501.687 383.886C501.995 384.482 502.283 385.097 502.572 385.693C502.899 386.385 503.226 387.058 503.552 387.75C504.129 388.961 504.706 390.153 505.263 391.364C505.763 390.038 506.282 388.73 506.782 387.423C507.089 386.674 507.397 385.905 507.705 385.155C507.82 384.828 507.955 384.52 508.089 384.194C505.955 384.136 503.821 384.04 501.687 383.886ZM509.973 387.097L509.474 385.885C509.301 386.327 509.127 386.769 508.955 387.212C508.205 389.115 507.455 391.018 506.667 392.902C508.551 392.825 510.435 392.768 512.319 392.749L509.973 387.097ZM516.068 384.251C515.144 384.251 514.222 384.271 513.28 384.289C512.472 384.271 511.665 384.271 510.839 384.251L511.05 384.79L511.838 386.923L513.549 391.48L515.395 386.578L516.26 384.251H516.068ZM517.701 386.347L517.298 385.212L516.875 386.424L514.702 392.768C516.49 392.787 518.278 392.825 520.085 392.902L517.701 386.347ZM518.259 384.213L518.932 386.232L520.95 392.326L523.777 385.77L524.565 383.924C522.469 384.059 520.355 384.155 518.259 384.213V384.213ZM525.738 385.578L525.141 384.117L524.526 385.693L521.7 392.979C524.123 393.114 526.564 393.325 529.006 393.671L525.738 385.578ZM500.669 384.732C500.457 385.136 500.227 385.559 500.015 385.962L501.111 385.847C500.957 385.482 500.823 385.097 500.669 384.732ZM501.687 383.886C501.995 384.482 502.283 385.097 502.572 385.693C502.899 386.385 503.226 387.058 503.552 387.75C504.629 387.635 505.705 387.52 506.782 387.423C507.089 386.674 507.397 385.905 507.705 385.155C507.82 384.828 507.955 384.52 508.089 384.194C505.955 384.136 503.821 384.04 501.687 383.886ZM509.474 385.885C509.301 386.327 509.127 386.769 508.955 387.212C509.281 387.173 509.627 387.135 509.973 387.097L509.474 385.885ZM513.28 384.289C512.472 384.271 511.665 384.271 510.839 384.251L511.05 384.79C512.723 384.617 514.395 384.424 516.068 384.251C515.144 384.251 514.222 384.271 513.28 384.289ZM491.345 355.953L495.612 383.328C497.227 383.117 498.842 382.963 500.438 382.829C500.512 382.775 500.598 382.74 500.688 382.727C500.778 382.713 500.871 382.722 500.957 382.752L500.995 382.79C503.725 382.598 506.436 382.463 509.147 382.405C509.348 382.348 509.561 382.348 509.762 382.405C510.934 382.387 512.107 382.367 513.28 382.367C518.125 382.387 522.95 382.502 527.775 382.963C528.832 383.079 529.909 383.194 530.967 383.328L531.082 382.598L535.215 355.953L491.345 355.953ZM498.131 381.733C494.421 381.733 494.421 375.966 498.131 375.966C501.86 375.966 501.841 381.733 498.131 381.733ZM508.513 381.733C504.802 381.733 504.802 375.966 508.513 375.966C512.242 375.966 512.223 381.733 508.513 381.733ZM518.547 381.387C514.837 381.387 514.837 375.62 518.547 375.62C522.277 375.62 522.258 381.387 518.547 381.387V381.387ZM528.41 381.733C524.699 381.733 524.699 375.966 528.41 375.966C532.139 375.966 532.12 381.733 528.41 381.733ZM525.738 385.578L525.141 384.117L524.526 385.693L521.7 392.979C524.122 393.114 526.564 393.325 529.006 393.671L525.738 385.578ZM518.259 384.213L518.932 386.232L520.95 392.326L523.777 385.77L524.565 383.924C522.469 384.059 520.355 384.155 518.259 384.213ZM517.701 386.347L517.298 385.212L516.875 386.424L514.702 392.768C516.49 392.787 518.278 392.826 520.085 392.902L517.701 386.347ZM516.068 384.251C515.144 384.251 514.222 384.271 513.28 384.289C512.472 384.271 511.665 384.271 510.839 384.251L511.05 384.79L511.838 386.923L513.549 391.48L515.395 386.578L516.26 384.251H516.068ZM509.973 387.097L509.474 385.885C509.301 386.327 509.128 386.77 508.955 387.212C508.205 389.115 507.455 391.018 506.667 392.902C508.551 392.826 510.435 392.768 512.319 392.749L509.973 387.097ZM501.687 383.886C501.995 384.482 502.283 385.097 502.572 385.693C502.899 386.385 503.226 387.058 503.552 387.75C504.129 388.961 504.706 390.153 505.263 391.364C505.763 390.038 506.282 388.73 506.782 387.423C507.089 386.674 507.397 385.905 507.705 385.155C507.82 384.828 507.955 384.52 508.089 384.194C505.955 384.136 503.821 384.04 501.687 383.886L501.687 383.886ZM525.738 385.578L525.142 384.117L524.526 385.693L521.7 392.979C524.123 393.114 526.564 393.325 529.006 393.671L525.738 385.578ZM518.259 384.213L518.932 386.232L520.95 392.326L523.777 385.77L524.565 383.924C522.469 384.059 520.355 384.155 518.259 384.213ZM517.701 386.347L517.298 385.212L516.875 386.424L514.702 392.768C516.49 392.787 518.278 392.826 520.085 392.902L517.701 386.347ZM516.068 384.251C515.144 384.251 514.222 384.271 513.28 384.289C512.472 384.271 511.665 384.271 510.839 384.251L511.05 384.79L511.838 386.923L513.549 391.48L515.395 386.578L516.26 384.251H516.068ZM509.973 387.097L509.474 385.885C509.301 386.327 509.128 386.77 508.955 387.212C508.205 389.115 507.455 391.018 506.667 392.902C508.551 392.826 510.435 392.768 512.319 392.749L509.973 387.097ZM501.687 383.886C501.995 384.482 502.283 385.097 502.572 385.693C502.899 386.385 503.226 387.058 503.552 387.75C504.129 388.961 504.706 390.153 505.263 391.364C505.763 390.038 506.282 388.73 506.782 387.423C507.089 386.674 507.397 385.905 507.705 385.155C507.82 384.828 507.955 384.52 508.089 384.194C505.955 384.136 503.821 384.04 501.687 383.886L501.687 383.886ZM516.068 384.251C514.395 384.424 512.723 384.617 511.05 384.79L511.838 386.923C513.011 386.808 514.203 386.693 515.395 386.578L516.26 384.251H516.068ZM517.298 385.212L516.875 386.424C517.144 386.404 517.432 386.385 517.701 386.347L517.298 385.212ZM518.259 384.213L518.932 386.232C520.547 386.078 522.161 385.924 523.777 385.77L524.565 383.924C522.469 384.059 520.355 384.155 518.259 384.213ZM525.142 384.117L524.526 385.693C524.93 385.655 525.334 385.617 525.738 385.578L525.142 384.117ZM525.641 383.847L526.257 385.539L529.198 393.671V393.691C529.25 393.687 529.302 393.694 529.352 393.71L530.697 385.116L530.967 383.328C529.179 383.559 527.41 383.713 525.641 383.847V383.847ZM529.179 393.729C529.179 393.748 529.179 393.787 529.14 393.787C529.12 393.795 529.097 393.796 529.075 393.789C529.054 393.782 529.036 393.768 529.025 393.748C523.802 394.391 518.543 394.699 513.28 394.671C510.8 394.652 508.32 394.594 505.84 394.479C505.717 394.569 505.572 394.626 505.421 394.643C505.269 394.66 505.115 394.636 504.975 394.575C504.894 394.53 504.817 394.479 504.744 394.421C502.245 394.267 499.727 394.056 497.228 393.71L498.515 401.976H528.064L529.352 393.71C529.293 393.707 529.235 393.713 529.179 393.729V393.729ZM504.686 401.246C500.957 401.246 500.976 395.478 504.686 395.478C508.397 395.478 508.397 401.246 504.686 401.246L504.686 401.246ZM514.376 401.246C510.646 401.246 510.665 395.478 514.376 395.478C518.086 395.478 518.086 401.246 514.376 401.246V401.246ZM524.065 400.9C520.335 400.9 520.355 395.132 524.065 395.132C527.775 395.132 527.775 400.9 524.065 400.9V400.9ZM525.738 385.578L525.142 384.117L524.526 385.693L521.7 392.979C524.123 393.114 526.564 393.325 529.006 393.671L525.738 385.578ZM518.259 384.213L518.932 386.232L520.95 392.326L523.777 385.77L524.565 383.924C522.469 384.059 520.355 384.155 518.259 384.213ZM517.701 386.347L517.298 385.212L516.875 386.424L514.702 392.768C516.49 392.787 518.278 392.826 520.085 392.902L517.701 386.347ZM516.068 384.251C515.144 384.251 514.222 384.271 513.28 384.289C512.472 384.271 511.665 384.271 510.839 384.251L511.05 384.79L511.838 386.923L513.549 391.48L515.395 386.578L516.26 384.251H516.068ZM509.973 387.097L509.474 385.885C509.301 386.327 509.128 386.77 508.955 387.212C508.205 389.115 507.455 391.018 506.667 392.902C508.551 392.826 510.435 392.768 512.319 392.749L509.973 387.097ZM501.687 383.886C501.995 384.482 502.283 385.097 502.572 385.693C502.899 386.385 503.226 387.058 503.552 387.75C504.129 388.961 504.706 390.153 505.263 391.364C505.763 390.038 506.282 388.73 506.782 387.423C507.089 386.674 507.397 385.905 507.705 385.155C507.82 384.828 507.955 384.52 508.089 384.194C505.955 384.136 503.821 384.04 501.687 383.886L501.687 383.886ZM501.937 387.904C501.668 387.231 501.38 386.539 501.111 385.847C500.957 385.482 500.823 385.097 500.669 384.732C500.457 385.136 500.227 385.559 500.015 385.962C499.631 386.712 499.227 387.462 498.823 388.211C498.227 389.346 497.612 390.48 496.978 391.614C496.97 391.621 496.961 391.627 496.951 391.63C496.941 391.634 496.93 391.635 496.92 391.633L497.228 393.71C499.496 393.383 501.784 393.191 504.052 393.037C503.36 391.326 502.648 389.615 501.937 387.904L501.937 387.904ZM503.552 387.75C504.129 388.961 504.706 390.153 505.263 391.364C505.763 390.038 506.282 388.73 506.782 387.423C505.705 387.52 504.629 387.635 503.552 387.75V387.75ZM509.973 387.097C509.627 387.135 509.281 387.173 508.955 387.212C508.205 389.115 507.455 391.018 506.667 392.902C508.551 392.825 510.435 392.768 512.319 392.749L509.973 387.097ZM511.838 386.923L513.549 391.48L515.395 386.578C514.203 386.693 513.011 386.808 511.838 386.923L511.838 386.923ZM517.701 386.347C517.432 386.385 517.144 386.404 516.875 386.424L514.702 392.768C516.49 392.787 518.278 392.826 520.085 392.902L517.701 386.347ZM518.932 386.232L520.95 392.326L523.777 385.77C522.162 385.924 520.547 386.078 518.932 386.232V386.232ZM525.738 385.578C525.334 385.616 524.93 385.655 524.526 385.693L521.7 392.979C524.123 393.114 526.564 393.325 529.006 393.671L525.738 385.578ZM495.612 383.328L496.093 386.385L496.401 388.461L496.862 391.364C497.266 390.326 497.67 389.307 498.073 388.288C498.361 387.539 498.669 386.808 498.977 386.078C499.284 385.309 499.592 384.54 499.919 383.77C498.477 383.655 497.054 383.501 495.612 383.328V383.328Z" fill="black"/>
<path d="M515.948 378.957C514.226 377.647 513.303 375.582 512.507 373.608C512.205 372.582 511.813 371.565 511.582 370.516L510.932 367.353C510.401 363.093 510.239 358.796 510.448 354.508C510.523 350.213 511.165 345.982 511.663 341.733C512.441 337.538 513.041 333.295 514.06 329.154C515.015 324.996 515.971 320.839 517.179 316.753C518.342 312.653 519.46 308.543 520.893 304.531C522.28 300.506 523.524 296.437 525.066 292.47C526.626 288.51 528.107 284.525 529.732 280.597C527.471 288.804 524.852 296.872 522.651 305.062L520.938 311.182L519.361 317.334C518.852 319.388 518.237 321.416 517.78 323.48L516.389 329.667C515.332 333.767 514.737 337.948 513.887 342.087C513.264 346.254 512.608 350.425 512.271 354.62C511.857 358.806 511.795 363.019 512.087 367.215L512.46 370.338C512.599 371.379 512.895 372.382 513.106 373.415C513.74 375.382 514.411 377.462 515.948 378.957Z" fill="black"/>
<path d="M219.637 303.326C218.685 306.018 217.605 308.653 216.524 311.289L212.223 318.538L203.967 332.487H200.782L201.277 331.663L209.861 317.147L214.163 309.88C215.957 307.683 217.733 305.468 219.637 303.326Z" fill="black"/>
<path d="M199.538 312.442L198.512 321.412L197.249 332.487H194.485L195.785 321.101L196.792 312.131C197.542 309.184 198.274 306.237 199.189 303.326C199.409 306.384 199.482 309.404 199.538 312.442Z" fill="black"/>
<path d="M188.206 332.487H189.945L188.975 325.695L188.188 320.24L186.98 311.674C186.156 308.891 185.351 306.091 184.381 303.327C184.253 305.725 184.216 308.104 184.234 310.484V312.076L184.582 314.438L185.479 320.625L187.181 332.487H188.206Z" fill="black"/>
<path d="M182.404 332.487H179.64L177.919 320.625L176.693 312.076C176.674 309.166 176.674 306.255 176.839 303.326C177.809 306.091 178.614 308.891 179.439 311.674L180.647 320.241L181.818 328.405L182.404 332.487Z" fill="black"/>
<path d="M184.582 312.827V314.438L184.564 321.247V332.487H181.818V312.827C182.221 310.026 182.623 307.226 183.191 304.406C183.593 306.439 183.942 308.47 184.234 310.484C184.363 311.271 184.473 312.04 184.582 312.827Z" fill="black"/>
<path d="M193.039 314.236L192.087 322.602L190.97 332.487H188.206L188.975 325.696L189.36 322.291L190.293 313.925C191.007 311.179 191.721 308.433 192.6 305.724C192.856 308.562 192.948 311.399 193.039 314.236Z" fill="black"/>
<path d="M173.928 343.689V353.574C174.405 353.519 174.88 353.483 175.356 353.428L179.475 344.183C177.626 344.055 175.778 343.909 173.928 343.689ZM179.987 344.348L175.576 353.409C178.23 353.135 180.903 352.952 183.557 352.842L179.987 344.348ZM180.573 344.257L184.344 352.384L187.346 344.532C185.095 344.495 182.825 344.385 180.573 344.257ZM188.298 345.319L185.205 352.787C187.163 352.714 189.103 352.677 191.062 352.659L188.298 345.319ZM192.197 344.604C191.245 344.586 190.275 344.568 189.323 344.568L192.124 351.469L194.504 344.568C193.735 344.586 192.966 344.586 192.197 344.604ZM195.73 346.343L193.332 352.659C194.87 352.677 196.407 352.696 197.945 352.75C197.176 350.609 196.444 348.485 195.73 346.343H195.73ZM197.011 344.532C197.798 346.71 198.549 348.888 199.281 351.066C200.27 348.815 201.24 346.582 202.247 344.348C200.507 344.44 198.768 344.495 197.011 344.532ZM203.271 345.374C202.356 347.863 201.405 350.334 200.453 352.824C202.558 352.897 204.663 353.025 206.75 353.208C205.541 350.609 204.407 348.009 203.271 345.374V345.374ZM173.928 332.487V343.689C179.995 343.028 186.095 342.722 192.197 342.774C193.314 342.774 194.43 342.792 195.547 342.811C195.708 342.765 195.879 342.765 196.041 342.811C198.384 342.847 200.709 342.939 203.034 343.067C203.093 343.046 203.154 343.034 203.217 343.031C203.311 343.031 203.404 343.05 203.491 343.086C205.816 343.232 208.141 343.415 210.465 343.689V332.487H173.928ZM178.194 340.669C174.642 340.669 174.661 335.178 178.194 335.178C181.727 335.178 181.727 340.669 178.194 340.669V340.669ZM188.078 340.669C184.527 340.669 184.545 335.178 188.078 335.178C191.611 335.178 191.611 340.669 188.078 340.669V340.669ZM197.634 340.34C194.083 340.34 194.101 334.848 197.634 334.848C201.167 334.848 201.167 340.34 197.634 340.34V340.34ZM207.024 340.669C203.473 340.669 203.491 335.178 207.024 335.178C210.557 335.178 210.557 340.669 207.024 340.669V340.669ZM204.077 344.238C205.102 347.222 206.091 350.206 207.006 353.227C208.159 353.336 209.312 353.428 210.465 353.574V343.689C208.342 343.927 206.219 344.11 204.077 344.238V344.238ZM179.987 344.348L175.576 353.409C178.23 353.135 180.903 352.952 183.557 352.842L179.987 344.348ZM180.573 344.257L184.344 352.384L187.346 344.532C185.095 344.495 182.825 344.385 180.573 344.257V344.257ZM188.298 345.319L185.205 352.787C187.163 352.714 189.103 352.677 191.062 352.659L188.298 345.319ZM192.197 344.605C191.245 344.586 190.275 344.568 189.323 344.568L192.124 351.469L194.504 344.568C193.735 344.586 192.966 344.586 192.197 344.604V344.605ZM195.73 346.343L193.332 352.659C194.87 352.677 196.407 352.696 197.945 352.75C197.176 350.609 196.444 348.485 195.73 346.343L195.73 346.343ZM197.011 344.532C197.798 346.71 198.549 348.888 199.281 351.066C200.27 348.815 201.24 346.582 202.247 344.348C200.507 344.44 198.768 344.495 197.011 344.532V344.532ZM203.271 345.374C202.356 347.863 201.405 350.334 200.453 352.824C202.558 352.897 204.663 353.025 206.75 353.208C205.541 350.609 204.407 348.009 203.271 345.374V345.374ZM179.987 344.348L175.576 353.409C178.23 353.135 180.903 352.952 183.557 352.842L179.987 344.348ZM180.573 344.257L184.344 352.384L187.346 344.532C185.095 344.495 182.825 344.385 180.573 344.257V344.257ZM188.298 345.319L185.205 352.787C187.163 352.714 189.103 352.677 191.062 352.659L188.298 345.319ZM192.197 344.605C191.245 344.586 190.275 344.568 189.323 344.568L192.124 351.469L194.504 344.568C193.735 344.586 192.966 344.586 192.197 344.604V344.605ZM195.73 346.343L193.332 352.659C194.87 352.677 196.407 352.696 197.945 352.75C197.176 350.609 196.444 348.485 195.73 346.343L195.73 346.343ZM197.011 344.532C197.798 346.71 198.549 348.888 199.281 351.066C200.27 348.815 201.24 346.582 202.247 344.348C200.507 344.44 198.768 344.495 197.011 344.532V344.532ZM203.271 345.374C202.356 347.863 201.405 350.334 200.453 352.824C202.558 352.897 204.663 353.025 206.75 353.208C205.541 350.609 204.407 348.009 203.271 345.374V345.374ZM173.928 364.283V366.552C173.928 371.398 175.853 376.044 179.279 379.47C182.705 382.896 187.352 384.821 192.197 384.821C197.042 384.821 201.689 382.896 205.115 379.47C208.541 376.044 210.465 371.398 210.465 366.552V364.283C198.317 365.503 186.077 365.503 173.928 364.283ZM199.665 354.343C199.548 354.422 199.414 354.471 199.274 354.487C199.134 354.503 198.992 354.485 198.86 354.435C198.822 354.412 198.785 354.388 198.75 354.361C196.572 354.435 194.375 354.471 192.197 354.49C186.095 354.523 179.996 354.217 173.928 353.574V364.283C179.995 363.621 186.095 363.316 192.197 363.367C198.299 363.317 204.399 363.622 210.465 364.283V353.574C206.86 353.995 203.271 354.215 199.665 354.343V354.343ZM179.017 361.757C175.466 361.757 175.484 356.265 179.017 356.265C182.55 356.265 182.55 361.757 179.017 361.757V361.757ZM187.419 361.592C183.868 361.592 183.887 356.1 187.419 356.1C190.952 356.1 190.952 361.592 187.419 361.592V361.592ZM196.645 361.592C193.094 361.592 193.112 356.1 196.645 356.1C200.178 356.1 200.178 361.592 196.645 361.592V361.592ZM205.871 361.262C202.32 361.262 202.338 355.771 205.871 355.771C209.404 355.771 209.404 361.262 205.871 361.262V361.262ZM206.75 353.208C205.541 350.609 204.407 348.01 203.271 345.374C202.356 347.863 201.405 350.334 200.453 352.824C202.558 352.897 204.663 353.025 206.75 353.208V353.208ZM202.247 344.349C200.507 344.44 198.768 344.495 197.011 344.532C197.798 346.71 198.549 348.888 199.281 351.066C200.27 348.815 201.24 346.582 202.247 344.348V344.349ZM197.945 352.75C197.176 350.609 196.444 348.485 195.73 346.343L193.332 352.659C194.87 352.677 196.407 352.696 197.945 352.75V352.75ZM194.504 344.568C193.735 344.586 192.966 344.586 192.197 344.605C191.245 344.586 190.275 344.568 189.323 344.568L192.124 351.469L194.504 344.568ZM191.062 352.659L188.298 345.319L185.205 352.787C187.163 352.714 189.103 352.677 191.062 352.659V352.659ZM187.346 344.532C185.095 344.495 182.825 344.385 180.573 344.257L184.344 352.384L187.346 344.532ZM179.987 344.349L175.576 353.409C178.23 353.135 180.903 352.952 183.557 352.842L179.987 344.349ZM203.271 345.374C202.356 347.863 201.405 350.334 200.453 352.824C202.558 352.897 204.663 353.025 206.75 353.208C205.541 350.609 204.407 348.009 203.271 345.374V345.374ZM197.011 344.532C197.798 346.71 198.549 348.888 199.281 351.066C200.27 348.815 201.24 346.582 202.247 344.348C200.507 344.44 198.768 344.495 197.011 344.532V344.532ZM195.73 346.343L193.332 352.659C194.87 352.677 196.407 352.696 197.945 352.75C197.176 350.609 196.444 348.485 195.73 346.343ZM192.197 344.604C191.245 344.586 190.275 344.568 189.323 344.568L192.124 351.469L194.504 344.568C193.735 344.586 192.966 344.586 192.197 344.604H192.197ZM188.298 345.319L185.205 352.787C187.163 352.714 189.103 352.677 191.062 352.659L188.298 345.319ZM180.573 344.257L184.344 352.384L187.346 344.532C185.095 344.495 182.825 344.385 180.573 344.257H180.573ZM179.987 344.348L175.576 353.409C178.23 353.135 180.903 352.952 183.557 352.842L179.987 344.348ZM203.271 345.374C202.356 347.863 201.405 350.334 200.453 352.823C202.558 352.897 204.663 353.025 206.75 353.208C205.541 350.609 204.407 348.009 203.271 345.374H203.271ZM197.011 344.532C197.798 346.71 198.549 348.888 199.281 351.066C200.27 348.815 201.24 346.582 202.247 344.348C200.507 344.44 198.768 344.495 197.011 344.532L197.011 344.532ZM195.73 346.343L193.332 352.659C194.87 352.677 196.407 352.696 197.945 352.75C197.176 350.609 196.444 348.485 195.73 346.343ZM192.197 344.604C191.245 344.586 190.275 344.568 189.323 344.568L192.124 351.469L194.504 344.568C193.735 344.586 192.966 344.586 192.197 344.604H192.197ZM188.298 345.319L185.205 352.787C187.163 352.714 189.103 352.677 191.062 352.659L188.298 345.319ZM180.573 344.257L184.344 352.384L187.346 344.532C185.095 344.495 182.825 344.385 180.573 344.257H180.573ZM179.987 344.348L175.576 353.409C178.23 353.135 180.903 352.952 183.557 352.842L179.987 344.348Z" fill="black"/>
<path d="M349.29 340.802C349.995 343.44 350.782 346.009 351.554 348.585C352.352 351.152 353.152 353.714 353.991 356.265C354.386 357.549 354.808 358.825 355.236 360.1C355.616 361.391 356.094 362.649 356.474 363.945C356.89 365.228 357.305 366.513 357.693 367.812C358.087 369.109 358.497 370.402 358.82 371.736C358.09 370.579 357.436 369.383 356.785 368.185C356.18 366.966 355.562 365.75 355.016 364.504C353.907 362.015 352.93 359.47 352.089 356.879C351.25 354.282 350.568 351.637 350.045 348.958C349.487 346.276 349.234 343.54 349.29 340.802Z" fill="black"/>
<path d="M296.09 345.182C296.09 344.809 296.053 344.437 295.98 344.072H295.99V344.082C296.06 344.444 296.094 344.813 296.09 345.182Z" fill="white"/>
<path d="M287.55 342.482C288.71 342.712 289.86 342.932 291.02 343.152L295.99 344.082C296.029 345.61 295.867 347.136 295.51 348.622V348.632L290.16 347.632C288.78 347.372 287.41 347.102 286.03 346.822C285.8 346.792 285.58 346.742 285.35 346.692C283.69 346.372 282.02 346.052 280.36 345.722C280.548 344.186 280.581 342.635 280.46 341.092C281.89 341.382 283.33 341.662 284.76 341.942L285.11 342.012" fill="black"/>
</svg>
