<svg width="636" height="527" viewBox="0 0 636 527" fill="none" xmlns="http://www.w3.org/2000/svg">
<path d="M469.651 316.467C469.651 316.467 448.416 318.721 422.831 295.668C422.831 295.668 419.102 311.256 416.606 315.225C414.762 318.982 411.959 322.187 408.48 324.516C393.284 334.336 371.215 321.771 364.267 318.127C361.057 316.449 360.575 316.347 348.691 309.958C345.37 308.168 327.707 298.033 327.707 298.033C323.328 296.104 315.833 296.428 315.833 296.428L310.331 305.497C308.206 309.001 305.341 311.998 301.936 314.279C305.619 313.973 309.274 313.741 312.938 313.509C316.593 313.25 320.248 313.027 323.885 312.693C325.712 312.554 327.531 312.369 329.34 312.155C331.149 311.97 332.948 311.701 334.748 311.413C336.538 311.131 338.31 310.744 340.054 310.254C341.821 309.823 343.475 309.02 344.906 307.899C343.692 309.337 342.13 310.441 340.37 311.107C338.644 311.832 336.859 312.409 335.036 312.832C331.423 313.681 327.751 314.252 324.052 314.538C320.36 314.844 316.668 314.993 312.975 314.946C309.286 314.937 305.6 314.714 301.936 314.279H301.927C298.64 316.487 294.921 317.972 291.017 318.637L249.383 325.787C249.383 325.787 259.235 338.444 249.058 364.928C249.058 364.928 269.699 362.842 282.612 366.727C295.516 370.603 315.322 370.603 336.288 363.036C357.253 355.469 368.311 357.408 382.291 360.125C396.272 362.841 447.127 387.489 464.985 342.079C464.985 342.079 471.005 327.335 469.651 316.467ZM256.907 338.064C256.546 338.051 256.205 337.899 255.954 337.64C255.704 337.38 255.564 337.034 255.564 336.673C255.564 336.313 255.704 335.966 255.954 335.707C256.205 335.447 256.546 335.295 256.907 335.282C257.267 335.295 257.608 335.447 257.859 335.707C258.109 335.966 258.249 336.313 258.249 336.673C258.249 337.034 258.109 337.38 257.859 337.64C257.608 337.899 257.267 338.051 256.907 338.064ZM256.016 327.715C256.377 327.727 256.719 327.879 256.971 328.139C257.222 328.398 257.362 328.745 257.362 329.106C257.362 329.468 257.222 329.815 256.971 330.074C256.719 330.334 256.377 330.485 256.016 330.497C255.655 330.485 255.313 330.334 255.061 330.074C254.81 329.815 254.67 329.468 254.67 329.106C254.67 328.745 254.81 328.398 255.061 328.139C255.313 327.879 255.655 327.727 256.016 327.715H256.016ZM253.344 363.435C252.984 363.422 252.642 363.27 252.392 363.011C252.142 362.751 252.002 362.405 252.002 362.044C252.002 361.684 252.142 361.337 252.392 361.078C252.642 360.818 252.984 360.666 253.344 360.653C253.705 360.666 254.046 360.818 254.297 361.078C254.547 361.337 254.687 361.684 254.687 362.044C254.687 362.405 254.547 362.751 254.297 363.011C254.046 363.27 253.705 363.422 253.344 363.435H253.344ZM255.571 355.868C255.21 355.855 254.869 355.703 254.618 355.444C254.368 355.184 254.228 354.838 254.228 354.477C254.228 354.117 254.368 353.77 254.618 353.511C254.869 353.251 255.21 353.099 255.571 353.086C255.931 353.099 256.273 353.251 256.523 353.511C256.774 353.77 256.913 354.117 256.913 354.477C256.913 354.838 256.774 355.184 256.523 355.444C256.273 355.703 255.931 355.855 255.571 355.868ZM257.129 346.521C256.769 346.508 256.427 346.356 256.177 346.097C255.926 345.837 255.786 345.491 255.786 345.13C255.786 344.77 255.926 344.423 256.177 344.164C256.427 343.904 256.769 343.752 257.129 343.739C257.49 343.752 257.831 343.904 258.082 344.164C258.332 344.423 258.472 344.77 258.472 345.13C258.472 345.491 258.332 345.837 258.082 346.097C257.831 346.356 257.49 346.508 257.129 346.521H257.129Z" fill="#701637"/>
<path d="M390.576 272.161C391.193 273.061 391.94 273.864 392.793 274.544C392.478 274.461 389.926 273.738 390.038 272.82V272.764C390.135 272.503 390.327 272.288 390.576 272.161Z" fill="#020202"/>
<path d="M468.946 274.785C468.299 264.429 466.329 254.198 463.083 244.342C457.257 226.807 451.663 220.084 451.663 220.084C451.663 220.084 449.381 223.06 446.404 220.946C443.426 218.832 435.086 215.976 435.086 215.976C420.568 212.118 415.289 218.285 415.289 218.285C412.667 221.865 409.839 225.289 406.819 228.541C408.065 227.656 409.406 226.916 410.818 226.334C412.75 225.509 414.807 225.014 416.903 224.869C417.973 224.807 419.047 224.866 420.104 225.045C421.17 225.24 422.204 225.583 423.174 226.065C425.071 227.03 426.6 228.59 427.525 230.507C426.163 229.133 424.513 228.08 422.693 227.424C420.874 226.768 418.931 226.526 417.005 226.714C415.069 226.842 413.15 227.172 411.282 227.697C409.547 228.17 407.803 228.735 406.049 229.366L406.04 229.375C395.808 240.104 388.303 243.201 388.303 243.201C385.038 256.758 386.809 264.937 389.027 269.527C389.027 269.184 389.054 268.841 389.073 268.498C389.224 266.942 389.484 265.399 389.852 263.88C390.587 260.865 391.497 257.896 392.58 254.987C393.665 252.094 394.834 249.229 396.133 246.428C397.408 243.611 398.836 240.865 400.409 238.203C398.6 244.129 396.411 249.869 394.324 255.627C393.257 258.502 392.218 261.376 391.253 264.27C390.78 265.716 390.316 267.172 389.973 268.646C389.802 269.304 389.681 269.974 389.611 270.649C389.904 271.171 390.226 271.675 390.576 272.161C391.593 271.645 392.686 271.295 393.813 271.122C401.708 269.509 447.545 278.782 426.013 283.715L424.826 288.333C454.734 298.626 471.005 285.227 471.005 285.227C469.827 283.678 469.234 279.153 468.946 274.785ZM394.11 267.96C393.75 267.947 393.408 267.795 393.158 267.536C392.907 267.276 392.767 266.93 392.767 266.569C392.767 266.209 392.907 265.862 393.158 265.603C393.408 265.343 393.75 265.191 394.11 265.178C394.471 265.191 394.812 265.343 395.063 265.603C395.313 265.862 395.453 266.209 395.453 266.569C395.453 266.93 395.313 267.276 395.063 267.536C394.812 267.795 394.471 267.947 394.11 267.96ZM401.624 268.461C401.264 268.448 400.923 268.296 400.672 268.037C400.422 267.777 400.282 267.431 400.282 267.07C400.282 266.71 400.422 266.363 400.672 266.104C400.923 265.844 401.264 265.692 401.624 265.679C401.985 265.692 402.326 265.844 402.577 266.104C402.827 266.363 402.967 266.71 402.967 267.07C402.967 267.431 402.827 267.777 402.577 268.036C402.326 268.296 401.985 268.448 401.624 268.461V268.461ZM409.473 269.796C409.112 269.784 408.771 269.631 408.52 269.372C408.27 269.112 408.13 268.766 408.13 268.405C408.13 268.045 408.27 267.698 408.52 267.439C408.771 267.179 409.112 267.027 409.473 267.014C409.833 267.027 410.174 267.179 410.425 267.439C410.675 267.698 410.815 268.045 410.815 268.405C410.815 268.766 410.675 269.112 410.425 269.372C410.174 269.631 409.833 269.783 409.473 269.796ZM417.655 271.299C417.294 271.286 416.953 271.134 416.702 270.874C416.452 270.615 416.312 270.268 416.312 269.908C416.312 269.547 416.452 269.201 416.702 268.941C416.953 268.682 417.294 268.529 417.655 268.517C418.015 268.529 418.357 268.682 418.607 268.941C418.858 269.201 418.998 269.547 418.998 269.908C418.998 270.268 418.858 270.615 418.607 270.874C418.357 271.134 418.015 271.286 417.655 271.299ZM435.438 256.174C435.318 258.122 435.225 260.078 435.03 262.016L434.678 264.928C434.566 265.892 434.436 266.857 434.251 267.821C433.908 269.731 433.592 271.66 433.156 273.552C432.702 275.453 432.247 277.345 431.709 279.209C431.839 277.261 432.052 275.332 432.256 273.413C432.479 271.484 432.6 269.555 432.813 267.636C433.165 263.787 433.444 259.948 433.583 256.109C433.727 252.281 433.643 248.448 433.332 244.629C433.212 243.684 433.156 242.719 432.98 241.783L432.757 240.364C432.665 239.9 432.553 239.437 432.451 238.973C432.094 237.084 431.413 235.27 430.438 233.613C431.13 234.314 431.703 235.122 432.136 236.006C432.377 236.437 432.591 236.883 432.776 237.341C432.983 237.788 433.166 238.246 433.323 238.713C433.973 240.574 434.454 242.488 434.761 244.435C435.348 248.319 435.574 252.249 435.438 256.174V256.174Z" fill="#020202"/>
<path d="M388.303 243.201C388.103 243.664 387.93 244.138 387.783 244.62C387.821 244.221 387.848 243.823 387.867 243.415C388.145 243.285 388.303 243.201 388.303 243.201Z" fill="#020202"/>
<path d="M392.941 273.997L389.537 290.123L387.811 299.591L385.78 299.099C368.488 295.455 339.971 283.02 339.971 283.02L333.412 274.554C337.503 275.518 338.756 270.937 338.756 270.937C343.515 272.133 343.691 267.256 343.691 267.256C347.875 267.682 347.142 261.72 347.142 261.72C351.604 262.211 350.166 256.99 350.166 256.99C345.867 252.759 343.393 247.015 343.274 240.985C343.014 240.961 342.753 240.961 342.494 240.985C342.494 240.985 355.686 218.396 367.69 222.745L379.703 227.094C378.311 229.909 377.56 232.996 377.505 236.136C378.6 246.289 385.223 244.509 387.524 243.563C386.862 245.403 386.341 247.291 385.965 249.21C385.5 251.497 385.205 253.816 385.084 256.147C385.056 257.315 385.056 258.483 385.112 259.661C385.189 260.843 385.35 262.017 385.594 263.176C385.831 264.354 386.224 265.495 386.763 266.57C387.181 267.405 387.758 268.152 388.461 268.767C388.546 268.846 388.636 268.921 388.73 268.99L388.739 268.999C389.611 269.806 392.941 273.997 392.941 273.997Z" fill="#701637"/>
<path d="M358.503 172.056C358.644 173.858 358.88 175.651 359.209 177.428C359.525 179.182 359.98 180.908 360.569 182.59C360.857 183.416 361.201 184.22 361.598 184.999C362.08 185.892 362.364 186.878 362.431 187.891C362.582 189.842 362.285 191.802 361.565 193.621L361.544 193.665L361.517 193.713C361.263 194.173 361.084 194.67 360.987 195.186C360.937 195.374 360.925 195.57 360.952 195.763C360.979 195.955 361.044 196.14 361.143 196.307C361.422 196.601 361.79 196.795 362.191 196.859C362.46 196.883 362.718 196.933 362.997 196.946L363.858 196.943L363.911 196.942C364.078 196.942 364.242 196.987 364.385 197.074C364.527 197.161 364.643 197.285 364.719 197.434C365.071 198.121 365.488 198.828 365.912 199.492C366.318 200.155 366.781 200.782 367.296 201.364C367.538 201.637 367.807 201.886 368.098 202.107C368.455 202.376 368.793 202.669 369.11 202.985C369.758 203.624 370.307 204.355 370.742 205.154L370.697 205.08C371.233 205.845 371.856 206.543 372.555 207.162C373.256 207.788 374.053 208.299 374.915 208.674C375.785 209.046 376.733 209.202 377.677 209.13C378.654 209.043 379.606 208.769 380.48 208.321C379.672 208.942 378.739 209.381 377.745 209.607C376.714 209.831 375.644 209.789 374.634 209.485C373.626 209.175 372.679 208.694 371.834 208.063C370.976 207.443 370.209 206.705 369.556 205.871L369.511 205.796C369.101 205.17 368.607 204.605 368.041 204.115C367.758 203.861 367.459 203.624 367.147 203.407C366.768 203.142 366.415 202.842 366.092 202.51C365.483 201.878 364.93 201.193 364.441 200.465C363.957 199.752 363.513 199.014 363.11 198.253L363.971 198.744L362.928 198.762C362.574 198.751 362.202 198.694 361.84 198.656C360.978 198.518 360.196 198.069 359.643 197.395C359.4 197.026 359.235 196.613 359.156 196.179C359.078 195.745 359.088 195.3 359.187 194.87C359.329 194.137 359.594 193.434 359.97 192.789L359.923 192.88C360.546 191.319 360.844 189.647 360.799 187.967C360.771 187.163 360.584 186.373 360.248 185.642C359.878 184.778 359.567 183.891 359.317 182.985C358.84 181.2 358.541 179.372 358.424 177.528C358.291 175.705 358.317 173.874 358.503 172.056Z" fill="#020202"/>
<path d="M358.825 172.419C361.437 173.759 364.133 175.09 366.83 176.314C369.481 177.596 372.256 178.606 375.111 179.328C375.446 179.393 375.785 179.426 376.126 179.428C376.435 179.419 376.721 179.33 376.745 179.248C376.75 179.197 376.757 179.262 376.799 179.135L376.906 178.841C376.977 178.642 377.067 178.45 377.175 178.269C377.387 177.895 377.66 177.559 377.982 177.274C378.636 176.735 379.424 176.385 380.263 176.263C380.672 176.196 381.087 176.173 381.501 176.195C381.956 176.256 382.394 176.409 382.789 176.644C383.481 177.105 384.067 177.708 384.507 178.412C384.948 179.117 385.233 179.908 385.344 180.732C385.6 182.27 385.629 183.836 385.431 185.383L385.435 185.263C385.488 186.277 385.45 187.294 385.323 188.302C385.262 188.848 385.129 189.383 384.927 189.894C384.871 190.045 384.796 190.189 384.704 190.322C384.657 190.395 384.616 190.466 384.56 190.538C384.488 190.613 384.413 190.687 384.336 190.757C384.162 190.912 383.953 191.024 383.726 191.081C383.496 191.125 383.26 191.127 383.03 191.087L383.838 190.716C381.713 195.224 380.859 200.227 381.37 205.184C381.514 206.373 381.782 207.703 381.92 208.976C382.076 210.263 382.187 211.56 382.223 212.861C382.258 214.165 382.228 215.47 382.133 216.77C382.035 218.082 381.853 219.353 381.682 220.624C381.361 223.197 380.858 225.745 380.177 228.248C379.989 228.908 379.738 229.549 379.43 230.161L378.928 230.996C378.786 231.246 378.661 231.504 378.553 231.77C378.123 232.861 377.954 234.036 378.058 235.203C378.365 237.551 379.097 240.108 380.713 241.799C381.512 242.651 382.578 243.203 383.735 243.363C384.933 243.508 386.149 243.394 387.299 243.03C389.684 242.244 391.929 241.085 393.95 239.595C396.014 238.116 397.98 236.505 399.835 234.772C403.577 231.313 407.095 227.62 410.369 223.715C412.038 221.77 413.611 219.819 415.257 217.813C416.166 216.848 417.255 216.07 418.463 215.524C419.056 215.246 419.664 215.001 420.284 214.789C420.917 214.633 421.541 214.419 422.184 214.313C422.829 214.225 423.473 214.091 424.121 214.044L426.073 213.959C427.37 213.983 428.665 214.095 429.947 214.293C430.586 214.401 431.232 214.476 431.864 214.612L433.747 215.078C435 215.393 436.236 215.773 437.45 216.215C438.692 216.583 439.849 217.155 441.049 217.63C442.254 218.096 443.399 218.684 444.551 219.258L446.282 220.117L446.714 220.331C446.845 220.391 446.958 220.452 447.084 220.504C447.333 220.606 447.592 220.681 447.857 220.726C448.378 220.825 448.915 220.803 449.426 220.662C449.937 220.52 450.409 220.264 450.805 219.912C451.192 219.53 451.503 219.077 451.721 218.578C451.848 218.331 451.946 218.07 452.012 217.8L452.124 217.401L452.17 216.989C452.253 215.852 452.04 214.713 451.55 213.684C450.391 211.532 448.831 209.622 446.955 208.056C443.09 204.816 438.879 202.013 434.398 199.698C429.845 197.217 425.596 194.215 421.737 190.754C419.81 189.021 417.991 187.173 416.289 185.219C414.575 183.277 412.982 181.231 411.52 179.092C410.049 176.96 408.706 174.743 407.498 172.452C406.908 171.299 406.314 170.148 405.796 168.961C405.527 168.373 405.254 167.782 405.006 167.195L404.193 165.513L403.39 163.825L402.418 162.239C402.082 161.719 401.794 161.162 401.419 160.671L400.276 159.212L399.705 158.481L399.054 157.825L397.752 156.513L396.307 155.367C395.833 154.975 395.324 154.628 394.787 154.329C390.574 151.693 385.534 150.711 380.639 151.572L380.784 151.516C378.406 152.771 376.054 154.131 373.752 155.546C371.452 156.968 369.194 158.462 367.025 160.07C364.828 161.635 362.788 163.408 360.933 165.365C360.018 166.341 359.261 167.454 358.689 168.663C358.395 169.251 358.253 169.902 358.277 170.559C358.301 171.215 358.489 171.855 358.825 172.419ZM358.701 172.557C358.307 171.971 358.069 171.293 358.01 170.589C357.951 169.885 358.074 169.178 358.366 168.534C358.905 167.26 359.641 166.078 360.546 165.032C362.35 162.968 364.349 161.084 366.516 159.406C368.665 157.717 370.902 156.148 373.182 154.65C375.469 153.157 377.785 151.73 380.176 150.382L380.182 150.379C380.226 150.354 380.273 150.337 380.321 150.326C382.923 149.775 385.606 149.734 388.224 150.203C390.84 150.652 393.346 151.592 395.611 152.974C396.194 153.289 396.748 153.653 397.267 154.064L398.842 155.273L400.262 156.653L400.97 157.346L401.592 158.112L402.835 159.647C403.243 160.164 403.556 160.742 403.921 161.287L404.976 162.949L405.85 164.702L406.715 166.462C406.966 167.049 407.231 167.616 407.495 168.188C408.002 169.339 408.584 170.455 409.16 171.572C410.342 173.794 411.654 175.943 413.09 178.008C414.518 180.08 416.072 182.061 417.743 183.941C419.403 185.832 421.175 187.62 423.052 189.296C426.789 192.674 430.893 195.621 435.289 198.083C439.865 200.505 444.159 203.427 448.093 206.793C450.129 208.527 451.799 210.648 453.007 213.033C453.594 214.329 453.83 215.756 453.691 217.172L453.617 217.709C453.574 217.884 453.517 218.057 453.467 218.23C453.372 218.578 453.24 218.914 453.072 219.233C452.762 219.9 452.327 220.501 451.79 221.002C451.223 221.495 450.55 221.851 449.824 222.043C449.097 222.235 448.337 222.257 447.6 222.108C447.237 222.039 446.882 221.93 446.542 221.784C446.374 221.712 446.206 221.62 446.05 221.541L445.63 221.32L443.952 220.434C442.833 219.841 441.721 219.233 440.553 218.749C439.392 218.255 438.264 217.662 437.063 217.274C435.889 216.813 434.692 216.412 433.477 216.074L431.653 215.577C431.041 215.431 430.418 215.347 429.8 215.228C428.564 215.009 427.315 214.873 426.061 214.822L424.184 214.863C423.56 214.895 422.946 215.011 422.325 215.08C419.851 215.407 417.547 216.52 415.753 218.254C414.146 220.182 412.498 222.192 410.826 224.108C407.5 227.998 403.982 231.719 400.283 235.256C398.424 237.029 396.453 238.68 394.382 240.199C392.326 241.799 390.029 243.061 387.575 243.938C386.296 244.378 384.936 244.538 383.59 244.407C382.191 244.245 380.888 243.614 379.894 242.616C378.94 241.641 378.202 240.477 377.726 239.198C377.231 237.956 376.889 236.658 376.708 235.334C376.549 233.951 376.716 232.55 377.195 231.243C377.318 230.915 377.463 230.594 377.629 230.285L378.093 229.466C378.34 228.93 378.545 228.375 378.705 227.807C379.342 225.377 379.806 222.904 380.096 220.408C380.813 215.413 380.707 210.335 379.783 205.374C379.499 202.754 379.613 200.106 380.121 197.52C380.611 194.939 381.429 192.43 382.557 190.057L383.366 189.687C383.41 189.654 383.362 189.719 383.41 189.664C383.421 189.651 383.436 189.64 383.452 189.633L383.505 189.545C383.555 189.479 383.593 189.406 383.618 189.329C383.774 188.935 383.877 188.523 383.926 188.103C384.047 187.183 384.093 186.255 384.066 185.327L384.065 185.299C384.065 185.269 384.067 185.238 384.071 185.207C384.288 183.802 384.3 182.372 384.107 180.963C384.044 180.305 383.841 179.667 383.514 179.093C383.186 178.519 382.74 178.02 382.206 177.63C381.962 177.478 381.694 177.37 381.413 177.309C381.084 177.284 380.753 177.295 380.425 177.34C379.779 177.415 379.166 177.664 378.651 178.062C378.41 178.265 378.204 178.507 378.042 178.778C377.955 178.913 377.882 179.058 377.826 179.209L377.735 179.436C377.68 179.57 377.614 179.698 377.536 179.82C377.362 180.014 377.145 180.165 376.902 180.261C376.66 180.357 376.399 180.397 376.139 180.376C375.735 180.366 375.332 180.318 374.938 180.232C373.461 179.875 372.022 179.379 370.64 178.749C369.263 178.155 367.912 177.515 366.577 176.847C363.898 175.506 361.304 174.095 358.701 172.557V172.557Z" fill="#020202"/>
<path d="M367.538 202.694C368.101 204.404 368.352 206.201 368.281 208C368.269 209.883 367.789 211.734 366.884 213.386C366.384 214.037 365.941 214.73 365.559 215.458C365.262 216.173 365.085 216.932 365.035 217.705C364.965 219.404 365.154 221.104 365.597 222.745C364.447 221.304 363.748 219.555 363.588 217.717C363.499 216.742 363.611 215.759 363.919 214.829C364.273 213.974 364.735 213.168 365.295 212.431C366.064 210.999 366.588 209.449 366.847 207.845C367.16 206.183 367.349 204.467 367.538 202.694Z" fill="#020202"/>
<path d="M327.284 267.241C326.939 266.702 326.646 266.131 326.408 265.538C326.161 264.937 325.987 264.308 325.891 263.666C325.758 262.951 325.887 262.211 326.256 261.584C326.706 260.959 327.384 260.536 328.144 260.407L328.011 260.444C328.305 260.302 328.549 260.075 328.714 259.794C328.764 259.693 328.783 259.58 328.77 259.469C328.76 259.409 328.744 259.35 328.72 259.293L328.603 259.003C328.388 258.467 328.31 257.886 328.374 257.312C328.439 256.737 328.644 256.188 328.972 255.712C329.309 255.24 329.755 254.855 330.271 254.59C330.718 254.379 331.184 254.21 331.663 254.086C331.909 254.026 332.125 253.88 332.272 253.673C332.298 253.608 332.305 253.537 332.292 253.468C332.275 253.366 332.24 253.267 332.19 253.176C332.138 253.105 332.102 253.023 332.083 252.937L332.079 252.916C331.881 252.02 331.891 251.09 332.11 250.198C332.237 249.717 332.456 249.265 332.755 248.867C333.074 248.465 333.482 248.142 333.947 247.925C334.345 247.747 334.763 247.618 335.192 247.54C335.501 247.475 335.797 247.362 336.07 247.204C336.292 247.087 336.47 246.901 336.579 246.675C336.667 246.454 336.681 246.211 336.619 245.982L336.577 245.828C336.565 245.783 336.562 245.737 336.569 245.691C336.692 244.893 336.941 244.119 337.306 243.399C337.662 242.671 338.174 242.031 338.807 241.524C339.438 241.015 340.2 240.694 341.006 240.6C341.396 240.548 341.789 240.531 342.182 240.55C342.569 240.574 342.949 240.653 343.331 240.704C343.398 240.713 343.458 240.746 343.501 240.798C343.544 240.849 343.565 240.915 343.561 240.982L343.56 241.011C343.491 242.48 343.628 243.952 343.966 245.384C344.285 246.821 344.775 248.216 345.426 249.537C346.056 250.856 346.832 252.099 347.74 253.244C348.635 254.386 349.624 255.449 350.699 256.423C350.794 256.512 350.865 256.624 350.906 256.747C351.135 257.419 351.279 258.116 351.333 258.824C351.409 259.612 351.271 260.405 350.935 261.122C350.819 261.317 350.691 261.505 350.553 261.685C350.387 261.846 350.213 262.006 350.032 262.15C349.836 262.259 349.633 262.363 349.428 262.459C349.229 262.529 349.024 262.583 348.817 262.622C348.43 262.691 348.037 262.717 347.644 262.699C347.283 262.66 346.928 262.606 346.57 262.556L347.679 261.488C347.805 262.212 347.862 262.946 347.848 263.68C347.844 264.459 347.707 265.231 347.443 265.964C347.131 266.842 346.484 267.561 345.643 267.964C344.824 268.285 343.927 268.351 343.07 268.154L344.267 267.198C344.231 267.924 344.078 268.639 343.815 269.317C343.543 270.056 343.076 270.708 342.462 271.203C341.811 271.71 341.001 271.969 340.176 271.934C339.806 271.924 339.437 271.878 339.075 271.799C338.737 271.705 338.411 271.592 338.081 271.486L339.234 270.776C339.107 271.548 338.864 272.298 338.514 272.998C338.155 273.767 337.575 274.412 336.849 274.851C336.466 275.061 336.044 275.192 335.608 275.236C335.173 275.279 334.733 275.234 334.315 275.103C333.94 274.987 333.575 274.842 333.223 274.668L332.277 274.074C332.166 274.004 332.084 273.899 332.044 273.775C331.826 273.159 331.546 272.567 331.21 272.007C330.872 271.423 330.48 270.868 330.08 270.313C329.668 269.763 329.229 269.234 328.763 268.73C328.3 268.228 327.795 267.729 327.284 267.241ZM327.426 267.122C328.007 267.508 328.566 267.926 329.1 268.376C329.644 268.831 330.163 269.315 330.657 269.825C331.152 270.342 331.61 270.894 332.027 271.477C332.467 272.075 332.843 272.718 333.149 273.395L332.916 273.096L333.77 273.527C334.05 273.631 334.337 273.715 334.628 273.778C334.874 273.844 335.131 273.859 335.383 273.822C335.635 273.785 335.877 273.698 336.094 273.565C336.532 273.248 336.867 272.81 337.06 272.306C337.295 271.753 337.449 271.17 337.517 270.573C337.531 270.452 337.569 270.336 337.631 270.231C337.693 270.126 337.777 270.036 337.877 269.966C337.976 269.897 338.09 269.849 338.209 269.827C338.329 269.804 338.452 269.808 338.57 269.837L338.671 269.862L339.441 270.056C339.679 270.092 339.921 270.107 340.162 270.101C340.572 270.112 340.973 269.975 341.291 269.716C341.62 269.423 341.865 269.047 342 268.627C342.165 268.156 342.259 267.663 342.279 267.165C342.283 267.033 342.313 266.904 342.366 266.784C342.42 266.664 342.497 266.556 342.593 266.466C342.688 266.375 342.801 266.305 342.924 266.258C343.047 266.211 343.178 266.189 343.309 266.193L343.4 266.199L343.476 266.209C343.925 266.318 344.397 266.3 344.837 266.156C345.019 266.062 345.181 265.933 345.314 265.776C345.446 265.619 345.546 265.437 345.608 265.241C345.801 264.718 345.911 264.168 345.932 263.611C345.962 263.011 345.936 262.41 345.855 261.814C345.835 261.667 345.85 261.516 345.899 261.375C345.947 261.234 346.028 261.107 346.135 261.003C346.242 260.899 346.371 260.821 346.514 260.776C346.656 260.731 346.807 260.72 346.954 260.744L346.965 260.746L347.773 260.882C348.014 260.898 348.255 260.891 348.495 260.86C348.682 260.854 348.865 260.801 349.025 260.703C349.185 260.606 349.317 260.469 349.408 260.306C349.751 259.314 349.756 258.236 349.422 257.241L349.63 257.565C348.533 256.475 347.551 255.275 346.701 253.984C345.857 252.7 345.15 251.331 344.592 249.899C344.035 248.48 343.619 247.009 343.35 245.509C343.06 244.011 342.938 242.485 342.986 240.96L343.215 241.267C342.522 241.124 341.808 241.111 341.111 241.229C340.434 241.337 339.806 241.646 339.308 242.116C338.818 242.59 338.439 243.166 338.198 243.804C337.948 244.439 337.797 245.107 337.748 245.788L337.698 245.497C337.923 245.999 337.957 246.567 337.795 247.093C337.627 247.6 337.299 248.04 336.861 248.346C336.165 248.756 335.423 249.083 334.652 249.322C334.41 249.456 334.201 249.642 334.037 249.865C333.874 250.088 333.761 250.343 333.707 250.614C333.572 251.247 333.568 251.9 333.696 252.534L333.585 252.274C333.77 252.579 333.886 252.92 333.926 253.274C333.972 253.662 333.903 254.055 333.728 254.404C333.39 254.988 332.836 255.416 332.186 255.596C331.774 255.692 331.37 255.821 330.979 255.982C330.666 256.119 330.391 256.33 330.178 256.596C329.974 256.873 329.84 257.194 329.786 257.534C329.733 257.873 329.762 258.221 329.871 258.547L329.984 258.905C330.031 259.066 330.058 259.233 330.065 259.402C330.073 259.751 329.983 260.096 329.804 260.396C329.483 260.901 329.006 261.288 328.446 261.5C328.408 261.517 328.367 261.529 328.325 261.535L328.313 261.537C327.829 261.566 327.375 261.778 327.043 262.131C326.741 262.566 326.594 263.09 326.625 263.619C326.636 264.216 326.718 264.809 326.87 265.386C327.022 265.975 327.208 266.555 327.426 267.122Z" fill="#020202"/>
<path d="M335.314 253.792C335.89 255.016 336.385 256.276 336.796 257.565C337.012 258.207 337.187 258.86 337.355 259.523C337.443 259.839 337.489 260.242 337.582 260.453C337.686 260.732 337.826 260.997 337.997 261.241C338.748 262.313 339.587 263.321 340.504 264.255L343.273 267.182C342.116 266.474 341.022 265.669 340.002 264.776C338.942 263.892 338.005 262.87 337.215 261.738C337.008 261.427 336.843 261.09 336.722 260.737C336.625 260.398 336.55 260.054 336.498 259.705C336.385 259.055 336.23 258.407 336.1 257.751C335.813 256.445 335.546 255.127 335.314 253.792Z" fill="#020202"/>
<path d="M331.116 259.524C331.642 260.555 332.055 261.64 332.348 262.76C332.425 263.04 332.497 263.321 332.556 263.605C332.621 263.84 332.717 264.066 332.843 264.275C333.112 264.742 333.426 265.182 333.781 265.589C334.482 266.447 335.267 267.261 336.041 268.089C336.822 268.913 337.612 269.735 338.376 270.605C337.375 270.028 336.428 269.363 335.546 268.618C334.646 267.881 333.816 267.064 333.064 266.176C332.677 265.714 332.341 265.21 332.064 264.674C331.919 264.38 331.816 264.067 331.757 263.745L331.642 262.907L331.116 259.524Z" fill="#020202"/>
<path d="M339.973 250.105C341.088 252.098 342.05 254.118 343.112 256.08C343.626 257.069 344.175 258.034 344.76 258.975C345.334 259.935 346.007 260.831 346.767 261.651C345.751 261.093 344.867 260.324 344.172 259.396C343.454 258.499 342.825 257.534 342.294 256.516C341.759 255.508 341.293 254.465 340.9 253.394C340.495 252.327 340.185 251.227 339.973 250.105Z" fill="#020202"/>
<path d="M427.613 277.486C426.936 280.871 426.155 284.233 425.344 287.587C424.531 290.941 423.693 294.29 422.781 297.619C421.875 300.95 420.938 304.272 419.971 307.587C419.461 309.248 419.038 310.886 418.451 312.564C417.89 314.245 417.14 315.858 416.218 317.372C414.388 320.454 411.827 323.037 408.761 324.894C405.697 326.711 402.307 327.911 398.782 328.427C395.296 328.96 391.754 329.017 388.253 328.598C387.38 328.502 386.509 328.38 385.642 328.227C384.758 328.046 383.884 327.82 383.022 327.55L380.559 326.623L378.159 325.603C365.536 319.857 353.542 313.03 341.455 306.359C338.442 304.676 335.46 302.94 332.482 301.189C331.741 300.743 330.991 300.32 330.261 299.845C329.554 299.372 328.822 298.935 328.071 298.536C326.53 297.828 324.892 297.354 323.211 297.129C319.796 296.751 316.356 296.659 312.927 296.853C312.491 296.854 312.053 296.851 311.607 296.821C311.128 296.81 310.654 296.723 310.203 296.564C310.056 296.506 309.92 296.422 309.803 296.316L309.556 296.086L309.087 295.644L308.148 294.758L304.395 291.218L304.363 291.185C304.079 290.865 303.823 290.522 303.597 290.158C303.367 289.782 303.185 289.38 303.053 288.959C302.922 288.525 302.859 288.073 302.867 287.62C302.871 287.136 302.979 286.659 303.183 286.22L303.267 286.871C302.855 286.412 302.526 285.885 302.295 285.314C302.07 284.779 301.891 284.227 301.76 283.662C301.499 282.556 301.341 281.428 301.289 280.293L301.395 280.632C300.868 279.808 300.545 278.87 300.453 277.895C300.404 277.429 300.388 276.96 300.406 276.492C300.422 276.018 300.475 275.546 300.565 275.081L301.228 275.931C299.8 275.875 298.398 275.536 297.103 274.933C296.467 274.645 295.851 274.314 295.259 273.942C294.66 273.568 294.089 273.15 293.551 272.691C293.525 272.669 293.502 272.645 293.48 272.619L293.471 272.606C292.928 271.983 292.524 271.252 292.285 270.462C292.154 269.982 292.154 269.477 292.286 268.998C292.435 268.502 292.729 268.063 293.131 267.736C293.511 267.44 293.955 267.238 294.428 267.146C294.901 267.054 295.389 267.075 295.852 267.207L297.926 267.713L306.214 269.762L305.173 270.87C304.808 269.728 304.652 268.528 304.714 267.33C304.76 266.714 304.875 266.105 305.056 265.514C305.242 264.835 305.608 264.218 306.115 263.729C306.708 263.208 307.484 262.943 308.272 262.993C308.925 263.043 309.564 263.208 310.159 263.48C311.21 263.97 312.204 264.575 313.123 265.283C314.022 265.953 314.874 266.668 315.703 267.349L316.313 267.833C316.487 267.957 316.671 268.068 316.863 268.163C317.294 268.369 317.746 268.529 318.21 268.642C320.246 269.088 322.33 269.278 324.413 269.205L324.454 269.205C324.513 269.204 324.572 269.21 324.629 269.223C326.835 269.757 328.906 270.745 330.709 272.123C332.456 273.426 334.087 274.88 335.581 276.467C337.065 278.032 338.46 279.681 339.758 281.404C340.296 282.142 341.009 282.737 341.832 283.134L344.703 284.443C348.561 286.174 352.444 287.842 356.353 289.446C360.19 291.109 364.168 292.426 368.239 293.383L368.29 293.392L368.331 293.402C374.79 295.257 381.241 297.136 387.686 299.041L386.978 299.469L390.09 285.735L393.266 272.013C393.271 271.99 393.286 271.969 393.306 271.956C393.327 271.943 393.352 271.938 393.375 271.943C393.399 271.948 393.42 271.963 393.434 271.983C393.447 272.003 393.452 272.028 393.447 272.052L390.8 285.885L388.088 299.704C388.059 299.849 387.974 299.978 387.851 300.06C387.728 300.143 387.577 300.174 387.431 300.145L387.398 300.137L387.38 300.133C380.882 298.419 374.392 296.676 367.91 294.905L368.002 294.924C365.87 294.532 363.771 293.978 361.723 293.267C359.694 292.589 357.693 291.851 355.704 291.089C351.727 289.561 347.815 287.892 343.933 286.158L341.013 284.838C339.916 284.313 338.963 283.527 338.239 282.55C336.98 280.89 335.628 279.303 334.19 277.796C332.771 276.3 331.225 274.929 329.568 273.701C327.991 272.498 326.183 271.631 324.257 271.156L324.473 271.173C322.202 271.241 319.931 271.012 317.719 270.494C317.127 270.343 316.552 270.131 316.004 269.86C315.711 269.71 315.431 269.536 315.166 269.34C314.929 269.159 314.717 268.982 314.502 268.804C313.657 268.097 312.848 267.406 312.007 266.768C311.209 266.138 310.343 265.597 309.427 265.154C309.034 264.967 308.611 264.848 308.178 264.803C308.025 264.787 307.87 264.802 307.723 264.847C307.575 264.891 307.439 264.965 307.32 265.064C306.79 265.744 306.495 266.579 306.479 267.441C306.422 268.42 306.541 269.402 306.829 270.34L306.833 270.351C306.879 270.499 306.884 270.656 306.849 270.806C306.814 270.956 306.739 271.094 306.633 271.206C306.526 271.318 306.392 271.399 306.244 271.442C306.095 271.484 305.938 271.486 305.788 271.448L297.52 269.318L295.455 268.78C295.235 268.704 295 268.681 294.77 268.714C294.539 268.747 294.32 268.835 294.13 268.97C293.964 269.098 293.842 269.275 293.782 269.476C293.722 269.677 293.726 269.891 293.794 270.089C293.971 270.664 294.264 271.196 294.655 271.653L294.575 271.568C295.044 271.977 295.541 272.351 296.063 272.689C296.59 273.033 297.141 273.34 297.71 273.609C298.821 274.15 300.029 274.465 301.263 274.538L301.268 274.538C301.454 274.547 301.63 274.629 301.756 274.767C301.882 274.905 301.948 275.087 301.94 275.274C301.938 275.312 301.933 275.35 301.925 275.388C301.847 275.775 301.795 276.167 301.771 276.561C301.746 276.96 301.749 277.361 301.782 277.76C301.832 278.525 302.062 279.268 302.454 279.927L302.461 279.937C302.523 280.036 302.557 280.149 302.561 280.266C302.586 281.317 302.707 282.365 302.923 283.394C303.085 284.378 303.48 285.308 304.077 286.106L304.081 286.111C304.157 286.198 304.205 286.307 304.219 286.422C304.233 286.537 304.212 286.654 304.16 286.757C304.034 287.042 303.963 287.348 303.952 287.659C303.939 287.998 303.978 288.338 304.068 288.665C304.166 289.004 304.305 289.329 304.482 289.635C304.667 289.949 304.879 290.246 305.115 290.524L305.084 290.491L308.783 294.129L309.707 295.039L310.169 295.493C310.242 295.563 310.331 295.657 310.392 295.708C310.436 295.746 310.486 295.775 310.54 295.795C311.32 296.005 312.126 296.097 312.932 296.068C316.397 295.954 319.865 296.094 323.309 296.489C325.051 296.737 326.747 297.243 328.34 297.991C329.108 298.405 329.855 298.859 330.578 299.35C331.291 299.822 332.04 300.253 332.773 300.702C335.732 302.464 338.749 304.133 341.77 305.794C347.805 309.127 353.912 312.329 360.088 315.397C366.254 318.469 372.452 321.515 378.767 324.189L381.136 325.174L383.523 326.051L384.704 326.373C385.1 326.495 385.504 326.587 385.913 326.649C386.746 326.789 387.585 326.9 388.427 326.986C391.79 327.342 395.184 327.286 398.534 326.82C401.861 326.37 405.068 325.272 407.974 323.59C410.854 321.885 413.269 319.495 415.004 316.633C416.824 313.811 417.725 310.52 418.803 307.23C419.846 303.948 420.861 300.656 421.847 297.354C423.81 290.75 425.716 284.123 427.432 277.446C427.435 277.434 427.44 277.423 427.447 277.413C427.454 277.403 427.463 277.395 427.474 277.388C427.484 277.382 427.496 277.378 427.508 277.376C427.52 277.374 427.532 277.375 427.544 277.378C427.567 277.384 427.587 277.398 427.6 277.418C427.612 277.438 427.617 277.462 427.613 277.486Z" fill="#020202"/>
<path d="M392.845 301.18L387.4 300.031C387.279 300.005 387.173 299.933 387.106 299.83C387.038 299.726 387.015 299.6 387.04 299.48C387.066 299.359 387.138 299.253 387.242 299.186C387.345 299.118 387.471 299.095 387.592 299.12C387.617 299.126 387.642 299.133 387.666 299.143L392.845 301.18Z" fill="#020202"/>
<path d="M306.001 270.605C307.689 270.655 309.369 270.859 311.019 271.215C311.838 271.389 312.655 271.567 313.465 271.783C314.281 271.979 315.069 272.254 315.902 272.421C315.058 272.587 314.193 272.612 313.341 272.496C312.5 272.416 311.664 272.292 310.836 272.123C309.171 271.805 307.549 271.295 306.001 270.605Z" fill="#020202"/>
<path d="M301.245 275.234C302.545 275.334 303.809 275.71 304.953 276.335C305.535 276.641 306.077 277.019 306.563 277.461C307.084 277.891 307.463 278.467 307.651 279.115C307.186 278.701 306.675 278.34 306.128 278.04C305.598 277.737 305.067 277.433 304.515 277.152C303.388 276.579 302.296 275.938 301.245 275.234Z" fill="#020202"/>
<path d="M301.925 280.279C302.858 280.602 303.727 281.086 304.492 281.71C305.28 282.305 305.956 283.037 306.487 283.869C305.552 283.549 304.683 283.064 303.919 282.438C303.132 281.842 302.457 281.111 301.925 280.279Z" fill="#020202"/>
<path d="M303.672 286.489C304.497 286.709 305.27 287.095 305.941 287.623C306.634 288.123 307.216 288.761 307.651 289.496C306.825 289.278 306.053 288.892 305.382 288.362C304.691 287.86 304.109 287.223 303.672 286.489Z" fill="#020202"/>
<path d="M311.437 293.28C311.149 293.14 310.904 292.926 310.726 292.659C310.548 292.393 310.444 292.085 310.424 291.765C310.358 291.13 310.434 290.487 310.648 289.885L310.636 289.921C310.702 289.612 310.736 289.298 310.739 288.982C310.768 288.75 310.724 288.514 310.614 288.307C310.354 287.995 310.161 287.633 310.048 287.243C309.922 286.873 309.857 286.486 309.857 286.096C309.849 285.69 309.934 285.287 310.106 284.918C310.293 284.638 310.464 284.348 310.618 284.049C310.833 283.414 310.906 282.74 310.832 282.074C311.173 282.73 311.293 283.477 311.175 284.206C311.082 284.552 310.954 284.887 310.794 285.206C310.711 285.484 310.682 285.775 310.709 286.063C310.756 286.657 310.965 287.227 311.313 287.711C311.576 288.094 311.687 288.562 311.626 289.022C311.59 289.4 311.515 289.772 311.403 290.134L311.398 290.151L311.391 290.17C311.285 290.427 311.174 290.682 311.094 290.946C311.015 291.206 310.963 291.474 310.938 291.745C310.901 292.022 310.926 292.303 311.013 292.569C311.099 292.835 311.244 293.078 311.437 293.28Z" fill="#020202"/>
<path d="M303.066 269.864C301.727 268.733 300.432 267.561 299.144 266.381C297.864 265.193 296.583 264.006 295.335 262.788C292.816 260.373 290.362 257.898 287.936 255.394C287.853 255.308 287.788 255.207 287.744 255.096C287.7 254.985 287.678 254.867 287.68 254.748C287.682 254.629 287.707 254.511 287.755 254.401C287.802 254.292 287.871 254.193 287.956 254.11L288.002 254.069L288.017 254.056C289.19 253.07 290.384 252.109 291.579 251.15L291.589 251.143C291.768 250.999 291.995 250.93 292.224 250.948C292.453 250.965 292.667 251.069 292.822 251.239C295.072 253.705 297.263 256.224 299.422 258.774C300.503 260.046 301.568 261.335 302.615 262.639C303.664 263.941 304.701 265.255 305.7 266.603C304.442 265.493 303.221 264.348 302.012 263.192C300.806 262.034 299.613 260.864 298.432 259.682C296.076 257.314 293.752 254.916 291.486 252.465L292.728 252.554C291.551 253.535 290.373 254.515 289.173 255.469L289.255 254.131C291.652 256.662 294.021 259.22 296.326 261.839C297.49 263.137 298.621 264.468 299.753 265.797C300.877 267.134 301.993 268.479 303.066 269.864Z" fill="#020202"/>
<path d="M296.878 246.678C296.047 244.85 295.378 242.953 294.877 241.009C294.336 239.075 293.966 237.098 293.772 235.1C294.604 236.927 295.273 238.824 295.772 240.769C296.312 242.702 296.682 244.68 296.878 246.678Z" fill="#020202"/>
<path d="M305.354 250.494C306.043 249.343 306.879 248.287 307.841 247.352C308.775 246.389 309.832 245.554 310.984 244.866C310.296 246.018 309.46 247.074 308.497 248.008C307.562 248.969 306.505 249.805 305.354 250.494Z" fill="#020202"/>
<path d="M312.149 259.226C313.35 258.9 314.592 258.744 315.837 258.762C317.082 258.742 318.324 258.898 319.525 259.226C318.324 259.554 317.082 259.71 315.837 259.689C314.592 259.708 313.35 259.552 312.149 259.226Z" fill="#020202"/>
<path d="M247.829 329.017C247.93 328.413 248.083 327.82 248.286 327.243C248.396 326.947 248.536 326.664 248.704 326.397C248.88 326.081 249.169 325.843 249.513 325.729C249.707 325.695 249.906 325.712 250.091 325.779C250.276 325.845 250.441 325.959 250.568 326.109C250.801 326.345 251.003 326.61 251.171 326.896C251.485 327.44 251.757 328.008 251.981 328.595C252.83 330.909 253.442 333.304 253.807 335.742C254.383 340.614 254.408 345.535 253.883 350.413C253.627 352.844 253.293 355.27 252.793 357.677C252.532 358.879 252.239 360.077 251.864 361.267C251.522 362.524 250.973 363.714 250.24 364.791C249.989 365.127 249.665 365.401 249.292 365.593C249.04 365.708 248.762 365.753 248.486 365.725C248.227 365.69 247.979 365.593 247.764 365.443C247.203 364.975 246.782 364.363 246.545 363.673C246.105 362.505 245.773 361.3 245.554 360.072C245.135 357.673 244.858 355.251 244.723 352.819C245.267 355.186 245.735 357.563 246.438 359.86C246.745 360.995 247.151 362.102 247.651 363.168C247.843 363.615 248.135 364.012 248.505 364.328C248.646 364.388 248.606 364.372 248.695 364.334C248.846 364.222 248.975 364.084 249.078 363.927C249.63 362.949 250.043 361.899 250.306 360.807C250.618 359.675 250.859 358.51 251.069 357.338C251.503 354.995 251.817 352.617 252.038 350.231C252.289 347.848 252.436 345.453 252.507 343.06C252.595 340.675 252.551 338.286 252.374 335.905C252.292 334.717 252.089 333.567 251.887 332.375C251.681 331.195 251.439 330.022 251.123 328.881C250.978 328.315 250.789 327.761 250.556 327.224C250.334 326.734 249.977 326.156 249.607 326.209C249.189 326.273 248.807 326.862 248.54 327.358C248.256 327.889 248.018 328.444 247.829 329.017Z" fill="#020202"/>
<path d="M422.917 295.64L428.094 299.567L430.769 301.437C431.665 302.052 432.524 302.716 433.461 303.269C435.308 304.41 437.098 305.633 439.017 306.642C439.971 307.153 440.886 307.735 441.858 308.21L444.763 309.648C448.669 311.496 452.705 313.056 456.838 314.316C460.97 315.618 465.284 316.246 469.616 316.177L469.353 316.468C469.377 313.945 469.363 311.421 469.33 308.897C469.307 306.373 469.217 303.849 469.16 301.325L468.946 293.753L468.805 286.182L470.186 286.828C468.573 288.045 466.822 289.066 464.968 289.87L463.599 290.466L462.2 290.979C461.275 291.349 460.309 291.579 459.36 291.87C455.527 292.873 451.58 293.369 447.618 293.343L444.662 293.276C443.679 293.222 442.703 293.082 441.725 292.988C439.76 292.844 437.844 292.389 435.912 292.067C433.991 291.684 432.108 291.135 430.219 290.642L424.68 288.752L425.246 288.452C424.5 290.795 423.727 293.171 422.917 295.64ZM422.739 295.692C423.259 293.275 423.815 290.765 424.399 288.222L424.497 287.796L424.966 287.922L430.544 289.434L433.369 290.009C434.312 290.187 435.237 290.46 436.192 290.559C438.093 290.798 439.977 291.17 441.89 291.233C442.843 291.291 443.795 291.374 444.746 291.413L447.603 291.426C451.399 291.37 455.177 290.89 458.867 289.995C459.775 289.737 460.706 289.54 461.589 289.206L462.93 288.749L464.239 288.212C465.959 287.51 467.593 286.612 469.107 285.536L470.52 284.489L470.489 286.182L470.348 293.753L470.134 301.325C470.077 303.849 469.987 306.373 469.964 308.897C469.93 311.421 469.916 313.945 469.94 316.468L469.943 316.741L469.678 316.76C467.47 316.886 465.256 316.828 463.058 316.588L461.412 316.411L459.778 316.155C458.681 316.011 457.611 315.744 456.528 315.523C452.214 314.546 448.026 313.075 444.05 311.137L441.106 309.622C440.12 309.124 439.197 308.516 438.248 307.957C436.331 306.864 434.545 305.569 432.745 304.306C431.829 303.696 430.985 302.989 430.128 302.3L427.571 300.225C425.901 298.72 424.267 297.159 422.739 295.692Z" fill="#020202"/>
<path d="M453.041 217.041C454.953 218.348 456.74 219.829 458.38 221.465C460.035 223.085 461.602 224.793 463.073 226.581C465.997 230.178 468.626 234.005 470.934 238.025C475.524 246.081 479.106 254.672 481.598 263.603C484.015 272.516 485.748 281.601 486.783 290.778C487.926 299.922 488.616 309.109 488.851 318.337C489.121 327.558 488.92 336.788 488.249 345.989C488.188 347.161 488.082 348.248 488.129 349.349C488.157 350.45 488.272 351.547 488.474 352.629C488.899 354.788 489.67 356.863 490.758 358.776C491.859 360.67 493.268 362.367 494.928 363.798C495.346 364.147 495.781 364.479 496.22 364.802L496.902 365.254L497.245 365.481C497.345 365.541 497.442 365.608 497.534 365.68C497.651 365.818 497.519 365.582 497.829 366.037C498.63 366.445 496.784 367.949 496.985 367.499C496.899 367.505 496.812 367.501 496.727 367.487L496.614 367.468L493.237 366.53C488.861 365.352 484.362 364.689 479.832 364.554C475.306 364.4 470.783 364.95 466.426 366.185C464.254 366.8 462.176 367.683 459.966 368.479C458.886 368.907 457.745 369.182 456.641 369.54C455.518 369.846 454.378 370.107 453.234 370.33C450.931 370.79 448.566 370.86 446.24 370.537C445.659 370.445 445.084 370.314 444.521 370.144C443.96 369.961 443.417 369.73 442.896 369.452C441.833 368.922 440.948 368.091 440.352 367.063C440.341 367.042 440.339 367.017 440.345 366.994C440.352 366.971 440.367 366.952 440.388 366.94C440.409 366.928 440.433 366.925 440.456 366.931C440.48 366.936 440.5 366.951 440.512 366.971L440.52 366.984C441.156 367.915 442.045 368.644 443.082 369.086C443.591 369.323 444.119 369.515 444.662 369.659C445.208 369.792 445.763 369.887 446.323 369.944C448.579 370.12 450.849 369.94 453.05 369.41C454.152 369.149 455.251 368.851 456.333 368.51C457.401 368.115 458.495 367.807 459.54 367.343C461.628 366.5 463.754 365.479 466.005 364.797C470.489 363.407 475.163 362.722 479.858 362.767C484.543 362.812 489.203 363.434 493.736 364.616C494.302 364.759 494.865 364.913 495.424 365.074C495.961 365.225 496.591 365.422 497.011 365.525L497.004 365.524C496.954 365.519 496.903 365.518 496.853 365.521C497.088 365.08 495.292 366.554 496.057 366.929C496.35 367.353 496.184 367.099 496.275 367.212C496.315 367.242 496.248 367.195 496.207 367.17L495.83 366.92L495.075 366.418C494.589 366.06 494.107 365.691 493.645 365.303C491.807 363.727 490.26 361.84 489.076 359.729C487.911 357.619 487.097 355.334 486.665 352.963C486.461 351.78 486.351 350.583 486.337 349.383C486.303 348.183 486.436 346.975 486.509 345.852C487.295 336.707 487.737 327.539 487.835 318.349C487.944 309.157 487.393 299.969 486.186 290.856C485.848 288.584 485.468 286.318 485.101 284.053C484.632 281.804 484.204 279.549 483.703 277.311C482.653 272.845 481.525 268.399 480.117 264.042C478.796 259.658 477.229 255.359 475.544 251.111C473.859 246.861 471.905 242.723 469.693 238.723C467.511 234.705 465.044 230.849 462.309 227.184C459.6 223.489 456.453 220.135 452.938 217.195L452.932 217.191C452.913 217.176 452.901 217.154 452.898 217.131C452.895 217.107 452.901 217.083 452.915 217.064C452.929 217.045 452.95 217.031 452.973 217.027C452.997 217.023 453.021 217.028 453.041 217.041L453.041 217.041Z" fill="#020202"/>
<path d="M251.78 329.46C248.786 329.62 245.784 329.57 242.797 329.31C239.802 329.074 236.824 328.651 233.881 328.044C230.925 327.451 228.017 326.639 225.181 325.615C222.342 324.563 219.603 323.257 216.998 321.714C216.356 321.313 215.672 320.968 215.064 320.52L213.226 319.192C212.001 318.292 210.771 317.473 209.543 316.61L202.19 311.474L187.54 301.129L187.672 301.207C187.308 301.047 186.929 300.921 186.542 300.832C186.227 300.748 185.897 300.731 185.575 300.783C185.371 300.863 185.398 300.827 185.332 301.06C185.283 301.136 185.33 301.347 185.312 301.487L185.404 302.038L185.406 302.045C185.446 302.284 185.399 302.53 185.273 302.737C185.187 302.9 185.121 303.073 185.077 303.252C185.024 303.463 184.996 303.678 184.992 303.895C184.994 304.351 185.083 304.802 185.255 305.225L184.951 306.276C185.063 306.185 185.008 306.228 185.025 306.213L185.012 306.238C184.995 306.276 184.982 306.317 184.975 306.358C184.95 306.494 184.949 306.633 184.97 306.77C185.028 307.144 185.141 307.508 185.306 307.848L185.329 308.54C185.36 308.443 185.32 308.605 185.33 308.671C185.331 308.771 185.339 308.871 185.355 308.969C185.393 309.198 185.457 309.422 185.545 309.637C185.74 310.117 185.993 310.572 186.3 310.991L186.355 311.96C186.375 311.928 186.39 311.893 186.402 311.857C186.405 311.846 186.406 311.848 186.406 311.848C186.406 311.859 186.405 311.869 186.403 311.879C186.404 311.93 186.408 311.98 186.414 312.03C186.442 312.177 186.484 312.32 186.541 312.457C186.685 312.794 186.864 313.114 187.074 313.414C187.299 313.74 187.543 314.053 187.805 314.349C188.068 314.651 188.402 314.971 188.697 315.281L192.346 319.031L199.643 326.529L214.233 341.538L214.255 341.561C214.272 341.578 214.287 341.596 214.301 341.614C215.54 343.28 216.701 344.969 217.805 346.716C218.937 348.462 219.927 350.296 220.766 352.201C221.169 353.051 221.719 353.823 222.392 354.481C224.549 356.512 227.317 357.776 230.266 358.076C232.225 358.254 234.191 357.828 235.901 356.857L236.538 356.486L237.111 356.02C237.49 355.716 237.879 355.396 238.28 355.047C238.665 354.695 239.077 354.374 239.513 354.087C239.932 353.778 240.374 353.502 240.835 353.261C244.509 351.303 248.757 350.708 252.827 351.582C248.789 350.933 244.65 351.689 241.103 353.723C240.667 353.971 240.252 354.253 239.86 354.566C239.452 354.856 239.069 355.179 238.713 355.53C238.355 355.865 237.969 356.209 237.565 356.561L236.967 357.083L236.296 357.51C234.475 358.648 232.342 359.183 230.199 359.042C228.074 358.895 226.01 358.264 224.165 357.199C222.221 356.198 220.632 354.623 219.615 352.688C218.763 350.872 217.767 349.127 216.638 347.469C215.521 345.788 214.326 344.135 213.091 342.551L213.159 342.627L198.414 327.722L191.045 320.264L187.361 316.535C187.052 316.214 186.75 315.934 186.436 315.581C186.117 315.226 185.82 314.853 185.547 314.462C185.254 314.048 185.009 313.601 184.819 313.131C184.713 312.864 184.636 312.585 184.59 312.301C184.567 312.135 184.558 311.967 184.563 311.799C184.568 311.701 184.58 311.603 184.598 311.506C184.608 311.449 184.621 311.393 184.638 311.338C184.662 311.249 184.697 311.163 184.741 311.081L184.796 312.05C184.406 311.505 184.085 310.913 183.84 310.289C183.707 309.951 183.612 309.6 183.557 309.242C183.527 309.047 183.513 308.85 183.515 308.653C183.512 308.398 183.551 308.145 183.632 307.904L183.655 308.595C183.415 308.082 183.255 307.535 183.18 306.974C183.138 306.642 183.151 306.306 183.219 305.979C183.259 305.789 183.324 305.605 183.411 305.431C183.46 305.334 183.516 305.241 183.58 305.154C183.668 305.031 183.774 304.923 183.894 304.831L183.589 305.883C183.335 305.239 183.208 304.553 183.215 303.861C183.223 303.505 183.273 303.151 183.363 302.807C183.456 302.429 183.61 302.069 183.817 301.74L183.686 302.439C183.641 302.169 183.592 301.904 183.558 301.628C183.534 301.313 183.555 300.995 183.619 300.685C183.687 300.296 183.87 299.937 184.144 299.653C184.418 299.37 184.77 299.174 185.156 299.091C185.742 298.974 186.346 298.991 186.924 299.142C187.434 299.262 187.93 299.431 188.406 299.648C188.448 299.667 188.488 299.69 188.526 299.717L188.539 299.726L203.136 310.199L210.406 315.471C211.606 316.357 212.846 317.226 214.012 318.124L215.781 319.466C216.368 319.919 217.02 320.264 217.637 320.67C220.147 322.235 222.794 323.572 225.544 324.662C231.11 326.789 236.92 328.214 242.838 328.904C245.805 329.271 248.791 329.457 251.78 329.46Z" fill="#020202"/>
<path d="M184.545 302.239C184.871 301.969 185.29 301.838 185.712 301.875C186.132 301.895 186.542 302.012 186.909 302.217C187.27 302.409 187.597 302.658 187.88 302.952C188.012 303.105 188.15 303.251 188.273 303.408C188.38 303.581 188.498 303.74 188.589 303.92C187.904 303.496 187.314 303.024 186.658 302.693C186.342 302.517 186.006 302.379 185.656 302.284C185.294 302.185 184.914 302.17 184.545 302.239Z" fill="#020202"/>
<path d="M184.422 305.554C184.454 305.337 184.687 305.2 184.893 305.139C185.104 305.098 185.321 305.091 185.534 305.119C185.943 305.177 186.339 305.304 186.705 305.493C187.425 305.852 188.066 306.35 188.589 306.96C188.218 306.824 187.854 306.666 187.501 306.488L186.468 305.977C186.136 305.805 185.795 305.653 185.445 305.522C185.278 305.456 185.102 305.414 184.922 305.4C184.832 305.383 184.74 305.389 184.653 305.415C184.566 305.442 184.487 305.49 184.422 305.554Z" fill="#020202"/>
<path d="M184.48 308.222C184.675 308.004 184.93 307.849 185.213 307.776C185.497 307.704 185.795 307.718 186.07 307.816C186.623 307.953 187.144 308.193 187.608 308.522C188.068 308.833 188.493 309.192 188.875 309.595C189.262 309.987 189.611 310.415 189.916 310.874C189.448 310.572 189.037 310.222 188.601 309.906C188.17 309.585 187.748 309.259 187.308 308.97C186.885 308.669 186.431 308.415 185.953 308.211C185.72 308.111 185.472 308.053 185.219 308.041C184.959 308.009 184.696 308.073 184.48 308.222Z" fill="#020202"/>
<path d="M185.548 311.52C185.551 311.393 185.585 311.269 185.647 311.158C185.71 311.048 185.798 310.954 185.906 310.886C186.141 310.759 186.412 310.716 186.674 310.764C187.157 310.85 187.613 311.048 188.006 311.34C188.771 311.881 189.42 312.569 189.916 313.364C189.507 313.126 189.159 312.831 188.787 312.572C188.421 312.306 188.069 312.029 187.703 311.786C187.361 311.53 186.986 311.322 186.588 311.167C186.404 311.077 186.19 311.063 185.995 311.129C185.8 311.195 185.64 311.336 185.548 311.52Z" fill="#020202"/>
<path d="M244.29 352.046C241.839 352.58 239.621 353.882 237.961 355.762C231.749 361.875 222.043 356.83 220.199 352.464C218.355 348.098 213.696 342.082 213.696 342.082C212.584 340.987 211.091 339.49 209.386 337.767C216.108 332.094 213.837 318.869 213.837 318.869C209.222 309.95 198.291 307.724 198.291 307.724C199.677 318.836 194.015 322.073 194.014 322.073C190.107 318.06 187.247 315.11 187.247 315.11C184.966 312.588 185.548 311.52 185.548 311.52C184.044 309.386 184.48 308.222 184.48 308.222C183.558 306.184 184.422 305.554 184.422 305.554C184.181 305.03 184.066 304.457 184.087 303.881C184.109 303.305 184.266 302.743 184.545 302.239L184.48 301.592L176.475 309.138C175.447 310.106 174.705 311.337 174.328 312.697C173.952 314.058 173.956 315.495 174.339 316.854C176.389 324.109 182.021 337.591 196.128 341.5C196.128 341.5 214.764 351.008 200.593 357.024L220.005 376.428C220.005 376.428 220.814 372.386 224.454 371.487C227.827 370.601 230.82 368.639 232.978 365.9C233.744 364.953 234.575 363.848 235.465 362.559C236.817 360.579 238.414 358.779 240.22 357.202C241.817 355.823 243.596 354.622 244.723 354.889L244.29 352.046Z" fill="#020202"/>
<path d="M240.332 328.824C240.332 328.824 240.244 329.206 240.115 329.876" stroke="#020202" stroke-width="1.68761" stroke-linecap="round" stroke-linejoin="round"/>
<path d="M239.768 331.9C239.026 336.761 238.226 346.146 242.052 350.835" stroke="#020202" stroke-width="1.68761" stroke-linecap="round" stroke-linejoin="round" stroke-dasharray="2.15 2.15"/>
<path d="M242.755 351.593C243.017 351.84 243.297 352.067 243.592 352.273" stroke="#020202" stroke-width="1.68761" stroke-linecap="round" stroke-linejoin="round"/>
<path d="M242.523 344.281C243.052 344.841 243.677 345.301 244.369 345.639C244.699 345.774 245.056 345.829 245.41 345.799C245.797 345.752 246.176 345.653 246.535 345.503C246.266 345.838 245.901 346.083 245.489 346.206C245.054 346.336 244.587 346.312 244.168 346.139C243.766 345.967 243.412 345.703 243.133 345.368C242.854 345.053 242.647 344.683 242.523 344.281Z" fill="#020202"/>
<path d="M363.073 184.616C363.383 184.045 363.785 183.529 364.263 183.089C364.734 182.641 365.257 182.252 365.822 181.931C366.398 181.612 367.019 181.38 367.663 181.241C368.312 181.106 368.985 181.133 369.621 181.317C369.029 181.492 368.446 181.698 367.874 181.933C367.329 182.186 366.796 182.445 366.273 182.74C365.219 183.323 364.212 183.989 363.073 184.616Z" fill="#020202"/>
<path d="M366.956 189.435C367.375 189.42 367.773 189.243 368.064 188.942C368.356 188.64 368.519 188.237 368.519 187.817C368.519 187.398 368.356 186.995 368.064 186.693C367.773 186.392 367.375 186.215 366.956 186.2C366.537 186.215 366.139 186.392 365.848 186.693C365.556 186.995 365.394 187.398 365.394 187.817C365.394 188.237 365.556 188.64 365.848 188.942C366.139 189.243 366.537 189.42 366.956 189.435Z" fill="#020202"/>
<path d="M380.48 186.459C380.838 186.739 381.244 186.95 381.679 187.083C381.842 187.071 381.828 187.08 381.902 186.949C381.948 186.884 381.984 186.813 382.009 186.737C382.052 186.647 382.082 186.55 382.098 186.451C382.167 186.238 382.218 186.02 382.251 185.799C382.32 185.578 382.332 185.336 382.392 185.101C382.481 184.607 382.61 184.12 382.777 183.646C382.968 184.124 383.082 184.631 383.114 185.145C383.167 185.672 383.124 186.204 382.987 186.715C382.951 186.857 382.898 186.994 382.829 187.122C382.723 187.363 382.553 187.569 382.337 187.719C382.24 187.767 382.139 187.808 382.035 187.841C381.841 187.881 381.638 187.855 381.459 187.769C381.188 187.642 380.96 187.438 380.803 187.184C380.653 186.963 380.544 186.718 380.48 186.459Z" fill="#020202"/>
<path d="M378.992 182.287C378.753 181.829 378.625 181.321 378.619 180.805C378.581 180.225 378.76 179.651 379.123 179.197C379.361 178.949 379.675 178.788 380.014 178.739C380.316 178.712 380.62 178.76 380.899 178.878C381.141 178.989 381.369 179.128 381.579 179.292C381.767 179.467 381.941 179.658 382.098 179.862C381.852 179.823 381.609 179.768 381.371 179.697C381.14 179.655 380.915 179.604 380.71 179.577C380.552 179.538 380.387 179.539 380.23 179.581C380.072 179.623 379.928 179.705 379.811 179.818C379.575 180.133 379.412 180.498 379.336 180.884L378.992 182.287Z" fill="#020202"/>
<path d="M364.303 196.549C364.743 196.269 365.212 196.037 365.701 195.858C365.91 195.78 366.101 195.698 366.3 195.61C366.532 195.492 366.752 195.352 366.956 195.191C367.006 195.349 367.018 195.516 366.991 195.68C366.964 195.843 366.899 195.998 366.801 196.132C366.611 196.396 366.349 196.599 366.045 196.718C365.763 196.829 365.459 196.874 365.157 196.849C364.849 196.834 364.553 196.73 364.303 196.549Z" fill="#020202"/>
<path d="M367.694 199.46C369.232 198.579 370.851 197.848 372.53 197.278C372.614 197.247 372.705 197.241 372.793 197.262C372.88 197.283 372.96 197.328 373.021 197.393C373.083 197.459 373.124 197.54 373.14 197.629C373.156 197.717 373.145 197.808 373.11 197.89C372.754 198.746 372.317 199.566 371.805 200.338C371.546 200.733 371.247 201.1 370.913 201.433C370.738 201.606 370.538 201.752 370.32 201.866C370.203 201.925 370.075 201.956 369.945 201.959C369.882 201.954 369.821 201.936 369.766 201.907C369.71 201.878 369.661 201.837 369.622 201.789C369.716 201.833 369.822 201.843 369.923 201.818C370.024 201.793 370.113 201.733 370.175 201.65C370.323 201.497 370.451 201.326 370.556 201.141C370.782 200.763 370.987 200.374 371.171 199.975C371.545 199.173 371.913 198.35 372.255 197.537L372.835 198.15C371.168 198.751 369.446 199.19 367.694 199.46Z" fill="#020202"/>
<path d="M447.454 369.324C447.814 369.311 448.156 369.159 448.407 368.9C448.658 368.64 448.798 368.294 448.798 367.933C448.798 367.572 448.658 367.225 448.407 366.966C448.156 366.706 447.814 366.554 447.454 366.542C447.093 366.554 446.751 366.706 446.501 366.966C446.25 367.225 446.11 367.572 446.11 367.933C446.11 368.294 446.25 368.64 446.501 368.9C446.751 369.159 447.093 369.311 447.454 369.324Z" fill="#020202"/>
<path d="M454.96 366.196C455.321 366.184 455.663 366.032 455.914 365.773C456.164 365.513 456.305 365.166 456.305 364.805C456.305 364.445 456.164 364.098 455.914 363.838C455.663 363.579 455.321 363.427 454.96 363.415C454.599 363.427 454.258 363.579 454.007 363.838C453.756 364.098 453.616 364.445 453.616 364.805C453.616 365.166 453.756 365.513 454.007 365.773C454.258 366.032 454.599 366.184 454.96 366.196Z" fill="#020202"/>
<path d="M462.437 362.569C462.798 362.557 463.139 362.405 463.39 362.145C463.641 361.886 463.781 361.539 463.781 361.178C463.781 360.817 463.641 360.471 463.39 360.211C463.139 359.952 462.798 359.8 462.437 359.787C462.076 359.8 461.734 359.952 461.483 360.211C461.233 360.471 461.093 360.817 461.093 361.178C461.093 361.539 461.233 361.886 461.483 362.145C461.734 362.405 462.076 362.557 462.437 362.569Z" fill="#020202"/>
<path d="M471.68 360.507C472.041 360.495 472.383 360.343 472.634 360.084C472.885 359.824 473.025 359.477 473.025 359.117C473.025 358.756 472.885 358.409 472.634 358.15C472.383 357.89 472.041 357.738 471.68 357.726C471.32 357.738 470.978 357.89 470.727 358.15C470.476 358.409 470.336 358.756 470.336 359.117C470.336 359.477 470.476 359.824 470.727 360.084C470.978 360.343 471.32 360.495 471.68 360.507Z" fill="#020202"/>
<path d="M480.044 360.505C480.405 360.493 480.747 360.341 480.998 360.081C481.249 359.822 481.389 359.475 481.389 359.114C481.389 358.754 481.249 358.407 480.998 358.147C480.747 357.888 480.405 357.736 480.044 357.723C479.684 357.736 479.342 357.888 479.091 358.147C478.84 358.407 478.7 358.754 478.7 359.114C478.7 359.475 478.84 359.822 479.091 360.081C479.342 360.341 479.684 360.493 480.044 360.505Z" fill="#020202"/>
<path d="M487.646 361.72C488.006 361.707 488.348 361.555 488.599 361.296C488.85 361.036 488.99 360.69 488.99 360.329C488.99 359.968 488.85 359.621 488.599 359.362C488.348 359.102 488.006 358.95 487.646 358.938C487.285 358.95 486.943 359.102 486.692 359.362C486.442 359.621 486.302 359.968 486.302 360.329C486.302 360.69 486.442 361.036 486.692 361.296C486.943 361.555 487.285 361.707 487.646 361.72Z" fill="#020202"/>
</svg>
