<svg width="265" height="208" viewBox="0 0 265 208" fill="none" xmlns="http://www.w3.org/2000/svg">
<path d="M156.744 62.5285C156.653 63.5129 156.631 64.5024 156.678 65.4899C156.703 65.9895 156.757 66.4873 156.839 66.9808C156.885 67.234 156.946 67.4841 157.022 67.7298C157.062 67.8584 157.11 67.9842 157.167 68.1066L157.236 68.2607C157.252 68.3035 157.266 68.3476 157.275 68.3925C157.331 68.8057 157.238 69.2253 157.012 69.5759C156.783 69.9799 156.51 70.3578 156.199 70.7028L155.963 70.968L155.84 71.0973L155.778 71.1611C155.744 71.1962 155.712 71.234 155.684 71.2743C155.57 71.4377 155.522 71.6378 155.548 71.8351C155.562 71.9318 155.593 72.0252 155.641 72.1104C155.679 72.1737 155.721 72.2345 155.766 72.2926C156.086 72.7495 156.564 73.072 157.108 73.198L156.956 73.0733C157.376 73.8747 157.843 74.6509 158.354 75.398C158.845 76.1603 159.424 76.8627 160.078 77.4909C160.418 77.8125 160.811 78.072 161.24 78.2577C161.467 78.3496 161.707 78.403 161.951 78.4159C162.076 78.4204 162.201 78.4135 162.325 78.3952L162.665 78.3347C163.121 78.2542 163.569 78.1339 164.004 77.9752C164.233 77.8884 164.452 77.7765 164.656 77.6415C164.77 77.5666 164.873 77.478 164.965 77.3775C165.018 77.3202 165.064 77.2567 165.101 77.1884C165.124 77.1494 165.143 77.1084 165.158 77.0659C165.181 77.0032 165.192 76.9367 165.191 76.8698L164.708 77.142C165.341 77.6623 165.87 78.298 166.266 79.0154C166.466 79.3725 166.628 79.7495 166.749 80.1404C166.87 80.5298 166.957 80.9286 167.011 81.3327L167.014 81.3522C167.026 81.4319 167.063 81.5056 167.12 81.5631C167.177 81.6207 167.25 81.6592 167.329 81.6732C167.409 81.6872 167.491 81.6762 167.564 81.6415C167.637 81.6068 167.697 81.5503 167.736 81.4798C168.196 80.6386 168.571 79.7534 168.855 78.8376C169.144 77.9282 169.341 76.992 169.442 76.0431C169.551 75.0934 169.525 74.133 169.365 73.1906C169.21 72.2535 168.884 71.3528 168.403 70.5335C168.398 70.5251 168.39 70.5191 168.381 70.5166C168.371 70.5141 168.361 70.5155 168.353 70.5204C168.345 70.5251 168.34 70.5323 168.337 70.5406C168.334 70.549 168.334 70.5581 168.337 70.5663C168.509 70.9955 168.649 71.4365 168.757 71.886C168.857 72.3324 168.927 72.7853 168.966 73.2413C169.028 74.1504 168.984 75.0637 168.836 75.9628C168.683 76.8609 168.452 77.7441 168.146 78.6024C167.848 79.4581 167.485 80.2899 167.06 81.0903L167.785 81.2374C167.662 80.3264 167.357 79.4496 166.886 78.6595C166.655 78.2665 166.386 77.8975 166.082 77.5578C165.779 77.2099 165.435 76.8996 165.058 76.6335L164.574 76.9057C164.574 76.8442 164.577 76.876 164.575 76.8736C164.573 76.8842 164.569 76.8944 164.563 76.904C164.549 76.9347 164.53 76.9633 164.508 76.989C164.452 77.0572 164.387 77.1181 164.316 77.1703C164.152 77.2903 163.975 77.3925 163.79 77.4751C163.395 77.6557 162.986 77.8016 162.566 77.911C161.757 78.2409 160.912 77.864 160.246 77.2987C159.583 76.7109 159.012 76.0261 158.554 75.2675C158.09 74.5113 157.69 73.7176 157.358 72.8948C157.346 72.866 157.328 72.8403 157.304 72.8195C157.281 72.7988 157.254 72.7836 157.224 72.7751L157.206 72.77C156.793 72.6321 156.445 72.3469 156.229 71.9691C156.202 71.9281 156.177 71.8857 156.155 71.8421C156.146 71.8184 156.141 71.7931 156.14 71.7676C156.14 71.7186 156.156 71.6709 156.186 71.6321C156.193 71.6228 156.202 71.6141 156.211 71.6058L156.28 71.5407L156.417 71.4085C156.507 71.3193 156.597 71.2288 156.683 71.1352C157.037 70.7572 157.341 70.3351 157.587 69.8795C157.881 69.3865 157.983 68.8022 157.872 68.239C157.852 68.1649 157.826 68.0925 157.795 68.0225L157.705 67.8445C157.654 67.7461 157.61 67.6445 157.572 67.5403C157.493 67.3206 157.427 67.0963 157.375 66.8686C157.264 66.3998 157.177 65.9256 157.115 65.4479C156.981 64.4855 156.89 63.5091 156.817 62.5298C156.816 62.5201 156.812 62.511 156.805 62.5045C156.798 62.498 156.788 62.4946 156.778 62.4952C156.77 62.4958 156.761 62.4995 156.755 62.5056C156.749 62.5117 156.745 62.5198 156.744 62.5285Z" fill="#020202"/>
<path d="M167.398 72.1316C167.271 72.8123 167.057 73.4738 166.76 74.0995C166.612 74.4025 166.428 74.6867 166.212 74.946C165.987 75.2117 165.737 75.4562 165.467 75.6763C165.82 75.5739 166.145 75.392 166.418 75.1447C166.695 74.8966 166.923 74.5974 167.087 74.2635C167.25 73.933 167.361 73.5794 167.416 73.2151C167.476 72.8558 167.469 72.4887 167.398 72.1316Z" fill="#020202"/>
<path d="M168.37 70.5499C171.136 77.05 167.398 81.2851 167.398 81.2851C174.239 79.8147 177.79 83.9268 177.79 83.9268C179.634 79.9869 183.882 80.5671 183.882 80.5671C183.882 80.5671 186.488 77.8749 183.164 75.6763C180.837 74.1372 180.535 72.7081 180.564 71.9891C180.603 71.3398 180.526 70.6887 180.337 70.0661C180.042 69.1639 179.596 68.3184 179.018 67.5654C178.068 66.3482 177.355 64.9647 176.913 63.4858C175.967 60.2278 173.729 55.0409 169.113 55.35C167.945 55.2395 166.767 55.3 165.616 55.5294C164.036 55.8647 162.532 56.4938 161.185 57.3841C159.512 58.4166 158.033 59.7325 156.813 61.2728C156.671 62.596 156.966 63.9291 157.651 65.07C158.897 67.082 161.02 67.6927 162.201 67.878C162.602 67.9481 163.015 67.914 163.4 67.7788C163.784 67.6437 164.127 67.4122 164.396 67.1064C164.586 66.8815 164.729 66.6207 164.817 66.3395C164.925 65.9277 165.116 65.5421 165.378 65.206C165.64 64.8699 165.967 64.5903 166.34 64.3841C167.262 63.9283 168.39 64.066 168.925 66.8368C169.371 69.143 168.958 70.1449 168.37 70.5499Z" fill="#020202"/>
<path d="M126.51 110.988C127.76 111.206 129.022 111.352 130.29 111.426C131.55 111.51 132.811 111.554 134.072 111.559C135.332 111.566 136.593 111.525 137.854 111.45C139.122 111.384 140.385 111.244 141.637 111.032C140.386 110.813 139.124 110.666 137.856 110.593C136.596 110.509 135.335 110.462 134.075 110.461C132.814 110.457 131.554 110.494 130.293 110.572C129.025 110.639 127.762 110.777 126.51 110.988Z" fill="#020202"/>
<path d="M155.141 111.112C157.607 111.318 160.08 111.425 162.554 111.499L163.482 111.527L163.946 111.54C164.109 111.549 164.272 111.545 164.434 111.529C165.149 111.471 165.837 111.232 166.433 110.834C167 110.459 167.504 109.998 167.928 109.467C168.353 108.951 168.721 108.39 169.024 107.794C169.035 107.772 169.044 107.749 169.051 107.725L169.059 107.7C169.781 105.279 170.518 102.855 171.272 100.428C171.657 99.2177 172.057 98.0107 172.471 96.8075L173.134 95.0184L173.847 93.2487C174.343 92.077 174.853 90.9117 175.397 89.7613C175.939 88.6103 176.514 87.4746 177.089 86.3396C177.669 85.2073 178.26 84.0814 178.863 82.962C179.101 82.4853 179.462 82.0811 179.91 81.7918C180.358 81.5025 180.875 81.3387 181.408 81.3175L185.18 81.4579C186.461 81.496 187.742 81.5205 189.029 81.5165C190.317 81.4943 191.603 81.4564 192.923 81.3046C193.254 81.2611 193.587 81.2091 193.934 81.1329C194.116 81.0937 194.296 81.0448 194.474 80.9863C194.713 80.9128 194.938 80.7986 195.138 80.6488C195.224 80.5796 195.301 80.4993 195.365 80.4099C195.459 80.2785 195.52 80.1269 195.544 79.9674C195.554 79.8819 195.555 79.7956 195.545 79.71L195.52 79.5867C195.504 79.5083 195.481 79.4317 195.45 79.3577C195.402 79.24 195.343 79.1273 195.273 79.0213C195.216 78.93 195.152 78.8431 195.082 78.7612C194.845 78.4827 194.584 78.2261 194.301 77.9947C193.263 77.1981 192.174 76.4708 191.04 75.8177L187.742 73.8917C187.2 73.5692 186.662 73.2392 186.156 72.8888C186.027 72.8016 185.911 72.7127 185.783 72.62L185.36 72.325C185.212 72.2369 185.059 72.1575 184.91 72.0748C184.756 71.9991 184.596 71.9379 184.439 71.8719C183.806 71.6443 183.135 71.5376 182.462 71.5572C181.805 71.5643 181.155 71.6865 180.54 71.9184C180.523 71.9249 180.509 71.9376 180.501 71.954C180.493 71.9703 180.491 71.9891 180.496 72.0067C180.501 72.0242 180.513 72.0392 180.528 72.0488C180.544 72.0584 180.562 72.0618 180.58 72.0584L180.587 72.0572C181.798 71.7957 183.062 71.9417 184.181 72.4725C184.31 72.5477 184.443 72.6111 184.568 72.6902L184.931 72.9428L185.265 73.2299C185.385 73.3369 185.511 73.4557 185.636 73.5597C186.139 73.9888 186.664 74.3635 187.187 74.7404C188.233 75.4912 189.306 76.1808 190.351 76.8996C191.393 77.5743 192.393 78.3119 193.345 79.1084C193.551 79.2852 193.742 79.4797 193.914 79.6895C193.948 79.7289 193.977 79.7715 194.003 79.8165C194.021 79.8432 194.036 79.8717 194.047 79.9017C194.059 79.9187 194.041 79.9016 194.045 79.901C194.045 79.8984 194.046 79.8957 194.047 79.8937C194.04 79.8478 194.041 79.801 194.048 79.7552C194.058 79.6423 194.111 79.5374 194.195 79.4615C194.213 79.4477 194.112 79.5039 194.001 79.5333C193.874 79.5709 193.746 79.6017 193.616 79.6258C193.338 79.6795 193.04 79.7194 192.738 79.7509C191.525 79.8886 190.259 79.9342 189 79.9661C187.738 80.0095 186.47 80.0252 185.201 80.0271L183.297 80.0189L182.344 80.0075C182.023 80.0076 181.732 79.9847 181.329 80.0114C180.581 80.0654 179.863 80.3248 179.253 80.761C178.643 81.1971 178.166 81.7931 177.874 82.4831C177.362 83.6542 176.868 84.8322 176.377 86.0107L174.917 89.5493L173.437 93.0763C171.482 97.7774 169.159 102.372 167.8 107.337L167.835 107.243C167.357 108.258 166.645 109.145 165.756 109.83C165.339 110.142 164.848 110.342 164.332 110.412C164.188 110.432 164.043 110.442 163.897 110.44L163.437 110.458L162.517 110.496C160.061 110.598 157.605 110.733 155.141 110.966C155.122 110.968 155.104 110.977 155.091 110.992C155.079 111.007 155.072 111.026 155.074 111.045C155.076 111.063 155.083 111.079 155.096 111.091C155.108 111.103 155.124 111.111 155.141 111.112Z" fill="#020202"/>
<path d="M139.643 107.705C137.624 107.649 135.606 107.617 133.587 107.585L130.56 107.535L129.046 107.515C128.52 107.499 127.993 107.533 127.473 107.614C126.419 107.782 125.409 108.153 124.497 108.706C124.263 108.848 124.062 108.987 123.849 109.125C123.621 109.273 123.402 109.435 123.194 109.611C122.348 110.338 121.742 111.304 121.456 112.382C121.385 112.651 121.334 112.925 121.304 113.202C121.285 113.34 121.283 113.479 121.274 113.618L121.262 114L121.187 117.024L121.049 123.071L120.939 129.119C120.863 133.151 120.82 137.184 120.811 141.217L120.825 147.266L120.83 148.779C120.832 149.034 120.828 149.276 120.836 149.542C120.863 150.928 121.411 152.252 122.37 153.253C123.127 154.042 124.108 154.581 125.181 154.798C125.701 154.888 126.228 154.925 126.756 154.908L128.271 154.91L134.33 154.902C138.369 154.892 142.408 154.854 146.446 154.787C150.484 154.711 154.525 154.646 158.563 154.468C162.601 154.299 166.642 154.109 170.673 153.754C171.681 153.675 172.687 153.569 173.695 153.478C174.702 153.39 175.711 153.279 176.721 153.164L178.235 152.994L178.613 152.951L178.803 152.929C178.851 152.923 178.899 152.914 178.946 152.902L179.065 152.873C179.354 152.792 179.634 152.681 179.9 152.541C180.427 152.265 180.896 151.889 181.278 151.433C181.652 150.978 181.94 150.46 182.131 149.904C182.449 148.843 182.546 147.729 182.415 146.63C182.348 145.67 182.342 144.661 182.342 143.666C182.353 141.667 182.426 139.662 182.539 137.66C182.657 135.658 182.804 133.657 182.98 131.658C183.157 129.659 183.39 127.666 183.633 125.674C183.879 123.683 184.162 121.697 184.484 119.716C184.816 117.738 185.169 115.763 185.569 113.797C186.349 109.862 187.339 105.972 188.535 102.142C189.13 100.227 189.791 98.3343 190.49 96.4545C191.224 94.5897 191.977 92.7277 192.858 90.9255C193.272 90.0108 193.756 89.1325 194.207 88.2354C194.705 87.3394 195.118 86.3985 195.44 85.4252C195.748 84.4459 195.939 83.4338 196.01 82.4099C196.049 81.8901 195.998 81.3674 195.861 80.8647C195.788 80.607 195.661 80.3679 195.489 80.1633C195.31 79.9614 195.078 79.8133 194.82 79.7356C194.81 79.7323 194.801 79.7308 194.791 79.7313C194.782 79.7317 194.772 79.7341 194.763 79.7382C194.755 79.7423 194.747 79.7481 194.74 79.7552C194.734 79.7624 194.729 79.7707 194.725 79.7798C194.722 79.7889 194.721 79.7985 194.721 79.8082C194.722 79.8178 194.724 79.8272 194.728 79.8359C194.733 79.8446 194.738 79.8524 194.746 79.8589C194.753 79.8653 194.761 79.8703 194.77 79.8734L194.775 79.8752C194.997 79.9625 195.192 80.1053 195.342 80.2899C195.492 80.4745 195.591 80.6946 195.631 80.9289C195.729 81.4083 195.747 81.9004 195.686 82.3858C195.569 83.3716 195.336 84.3403 194.993 85.2721C194.635 86.1986 194.19 87.0893 193.664 87.9325C193.159 88.811 192.649 89.6885 192.195 90.5948C190.322 94.1964 188.734 97.9387 187.446 101.787C184.893 109.491 183.097 117.425 182.083 125.476C181.57 129.496 181.192 133.533 181.014 137.583C180.924 139.609 180.875 141.636 180.889 143.67C180.902 144.691 180.918 145.699 181.005 146.75C181.032 147.03 181.035 147.229 181.053 147.47C181.069 147.699 181.069 147.928 181.051 148.157C181.034 148.6 180.958 149.038 180.825 149.461C180.574 150.27 180.019 150.949 179.276 151.355C179.096 151.453 178.907 151.532 178.711 151.59L178.646 151.607C178.633 151.612 178.618 151.615 178.604 151.615L178.417 151.639L178.044 151.687L176.554 151.884C175.561 152.018 174.566 152.149 173.564 152.258C172.563 152.371 171.564 152.498 170.562 152.598C166.556 153.015 162.541 153.382 158.519 153.668C150.474 154.241 142.411 154.494 134.332 154.427C132.314 154.411 130.297 154.363 128.281 154.308L126.769 154.253C126.287 154.253 125.806 154.204 125.333 154.106C124.88 153.991 124.444 153.814 124.038 153.58C123.642 153.337 123.281 153.039 122.966 152.696C122.345 152.007 121.947 151.145 121.825 150.225C121.794 149.998 121.78 149.77 121.784 149.541C121.784 149.303 121.797 149.041 121.803 148.792L121.85 147.28L122.031 141.233C122.13 137.202 122.199 133.169 122.237 129.137L122.294 123.088L122.323 117.039L122.332 114.014L122.333 113.64C122.338 113.528 122.335 113.414 122.349 113.302C122.366 113.077 122.401 112.853 122.453 112.633C122.558 112.191 122.728 111.766 122.958 111.374C123.191 110.981 123.48 110.624 123.817 110.316C123.99 110.161 124.174 110.017 124.365 109.885L124.975 109.463C125.775 108.935 126.669 108.568 127.609 108.381C128.084 108.288 128.566 108.24 129.049 108.237L130.563 108.188L133.591 108.083C135.609 108.014 137.627 107.945 139.645 107.851C139.664 107.851 139.682 107.842 139.695 107.829C139.708 107.815 139.715 107.797 139.715 107.778C139.714 107.759 139.707 107.741 139.694 107.727C139.68 107.713 139.662 107.706 139.643 107.705L139.643 107.705Z" fill="#020202"/>
<path d="M125.052 115.398L125.014 116.495C125.013 116.503 125.015 116.511 125.017 116.518C125.02 116.526 125.024 116.532 125.03 116.538C125.035 116.544 125.041 116.549 125.049 116.552C125.056 116.555 125.063 116.557 125.071 116.557C125.079 116.557 125.087 116.556 125.094 116.553C125.102 116.551 125.108 116.546 125.114 116.541C125.12 116.536 125.125 116.529 125.128 116.522C125.131 116.515 125.133 116.507 125.133 116.5L125.133 116.497L125.125 115.399C125.125 115.389 125.122 115.38 125.115 115.373C125.108 115.367 125.099 115.363 125.089 115.363C125.08 115.362 125.07 115.366 125.063 115.373C125.056 115.379 125.052 115.388 125.052 115.398Z" fill="#020202"/>
<path d="M124.976 117.593L124.943 118.691C124.943 118.704 124.945 118.717 124.95 118.729C124.954 118.741 124.961 118.753 124.97 118.762C124.979 118.772 124.99 118.779 125.002 118.785C125.014 118.79 125.027 118.793 125.04 118.793C125.053 118.794 125.066 118.792 125.078 118.787C125.091 118.782 125.102 118.775 125.111 118.766C125.121 118.757 125.129 118.746 125.134 118.734C125.139 118.723 125.142 118.71 125.142 118.697L125.143 118.693L125.14 117.595C125.14 117.574 125.132 117.553 125.117 117.538C125.101 117.523 125.081 117.514 125.059 117.514C125.038 117.513 125.017 117.522 125.001 117.536C124.986 117.551 124.977 117.572 124.976 117.593Z" fill="#020202"/>
<path d="M124.911 119.788L124.879 120.886C124.878 120.921 124.891 120.956 124.915 120.982C124.94 121.008 124.974 121.023 125.009 121.024C125.045 121.025 125.079 121.012 125.105 120.988C125.131 120.963 125.146 120.929 125.147 120.894L125.147 120.89L125.145 119.791C125.145 119.761 125.133 119.731 125.111 119.71C125.09 119.688 125.061 119.675 125.03 119.675C124.999 119.675 124.97 119.686 124.947 119.707C124.925 119.729 124.912 119.758 124.911 119.788Z" fill="#020202"/>
<path d="M124.846 121.984L124.813 123.081C124.812 123.126 124.829 123.169 124.86 123.201C124.891 123.233 124.933 123.252 124.978 123.254C125.022 123.255 125.065 123.239 125.098 123.208C125.131 123.178 125.15 123.136 125.152 123.091L125.152 123.086L125.15 121.988C125.149 121.948 125.133 121.91 125.105 121.882C125.077 121.854 125.04 121.838 125 121.837C124.96 121.837 124.922 121.852 124.893 121.879C124.864 121.906 124.847 121.944 124.846 121.984H124.846Z" fill="#020202"/>
<path d="M124.785 124.179L124.759 125.277C124.758 125.328 124.777 125.378 124.812 125.415C124.848 125.452 124.896 125.473 124.948 125.474C124.999 125.476 125.049 125.457 125.086 125.421C125.123 125.386 125.144 125.337 125.146 125.286V125.282L125.15 124.184C125.15 124.136 125.131 124.09 125.097 124.056C125.064 124.021 125.018 124.002 124.97 124.001C124.922 124.001 124.876 124.019 124.841 124.052C124.806 124.085 124.786 124.131 124.785 124.179Z" fill="#020202"/>
<path d="M124.733 126.374L124.706 127.472C124.705 127.529 124.726 127.585 124.766 127.626C124.805 127.667 124.86 127.692 124.917 127.693C124.974 127.694 125.029 127.673 125.071 127.633C125.112 127.594 125.136 127.54 125.138 127.483L125.138 127.478L125.142 126.38C125.142 126.326 125.121 126.274 125.083 126.236C125.045 126.198 124.994 126.176 124.94 126.175C124.886 126.174 124.834 126.195 124.795 126.232C124.756 126.269 124.734 126.321 124.733 126.374Z" fill="#020202"/>
<path d="M124.68 128.57L124.653 129.668C124.653 129.699 124.658 129.73 124.669 129.759C124.681 129.788 124.698 129.815 124.719 129.838C124.741 129.86 124.767 129.878 124.795 129.891C124.824 129.904 124.855 129.91 124.886 129.911C124.917 129.912 124.948 129.907 124.977 129.895C125.007 129.884 125.033 129.867 125.056 129.846C125.079 129.824 125.097 129.798 125.109 129.77C125.122 129.741 125.129 129.71 125.13 129.679L125.13 129.674L125.134 128.576C125.134 128.516 125.111 128.459 125.069 128.416C125.027 128.374 124.97 128.349 124.91 128.349C124.85 128.348 124.792 128.371 124.749 128.412C124.706 128.453 124.681 128.51 124.68 128.57Z" fill="#020202"/>
<path d="M124.627 130.765L124.601 131.863C124.6 131.897 124.606 131.931 124.618 131.963C124.63 131.995 124.649 132.025 124.673 132.049C124.696 132.074 124.724 132.094 124.756 132.108C124.787 132.122 124.821 132.129 124.855 132.13C124.889 132.131 124.924 132.125 124.955 132.113C124.987 132.1 125.017 132.082 125.041 132.058C125.066 132.035 125.086 132.006 125.1 131.975C125.114 131.944 125.121 131.91 125.122 131.876L125.122 131.87L125.126 130.772C125.126 130.707 125.101 130.644 125.054 130.597C125.008 130.55 124.946 130.523 124.88 130.522C124.814 130.521 124.751 130.546 124.704 130.592C124.656 130.637 124.629 130.7 124.627 130.765V130.765Z" fill="#020202"/>
<path d="M124.575 132.961L124.554 134.059C124.552 134.132 124.58 134.203 124.631 134.256C124.682 134.309 124.752 134.339 124.826 134.341C124.899 134.342 124.97 134.314 125.023 134.263C125.077 134.213 125.107 134.143 125.109 134.069V134.066L125.118 132.968C125.119 132.897 125.091 132.827 125.041 132.776C124.991 132.725 124.922 132.695 124.85 132.694C124.778 132.693 124.709 132.721 124.657 132.771C124.606 132.821 124.576 132.889 124.575 132.961V132.961Z" fill="#020202"/>
<path d="M124.534 135.156L124.514 136.254C124.513 136.33 124.542 136.403 124.595 136.458C124.648 136.512 124.72 136.543 124.796 136.545C124.872 136.546 124.945 136.517 125 136.465C125.054 136.412 125.086 136.34 125.088 136.264V136.262L125.098 135.164C125.099 135.089 125.07 135.018 125.018 134.964C124.966 134.911 124.894 134.881 124.82 134.88C124.745 134.879 124.673 134.907 124.62 134.959C124.566 135.011 124.535 135.082 124.534 135.156Z" fill="#020202"/>
<path d="M124.494 137.352L124.475 138.45C124.473 138.528 124.503 138.604 124.558 138.66C124.612 138.717 124.687 138.749 124.765 138.751C124.844 138.752 124.919 138.722 124.976 138.668C125.032 138.613 125.065 138.539 125.066 138.46V138.458L125.077 137.36C125.078 137.283 125.048 137.209 124.994 137.154C124.94 137.098 124.867 137.067 124.79 137.066C124.713 137.065 124.638 137.094 124.583 137.148C124.527 137.202 124.496 137.275 124.494 137.352Z" fill="#020202"/>
<path d="M124.455 139.548L124.435 140.645C124.434 140.726 124.465 140.804 124.521 140.862C124.577 140.92 124.654 140.954 124.735 140.955C124.815 140.957 124.894 140.926 124.952 140.87C125.01 140.814 125.044 140.737 125.045 140.656V140.654L125.056 139.556C125.056 139.477 125.026 139.4 124.97 139.343C124.915 139.286 124.839 139.254 124.759 139.253C124.68 139.252 124.603 139.282 124.546 139.337C124.489 139.393 124.456 139.468 124.455 139.548Z" fill="#020202"/>
<path d="M124.415 141.743L124.396 142.841C124.395 142.882 124.402 142.923 124.418 142.962C124.433 143 124.455 143.035 124.484 143.064C124.512 143.094 124.547 143.118 124.584 143.134C124.622 143.151 124.663 143.16 124.704 143.16C124.745 143.161 124.786 143.154 124.825 143.139C124.863 143.124 124.898 143.101 124.928 143.072C124.958 143.044 124.981 143.01 124.998 142.972C125.014 142.934 125.023 142.893 125.024 142.852V142.85L125.034 141.752C125.035 141.67 125.003 141.591 124.946 141.533C124.889 141.475 124.811 141.441 124.729 141.44C124.647 141.439 124.568 141.47 124.51 141.527C124.451 141.584 124.417 141.661 124.415 141.743Z" fill="#020202"/>
<path d="M124.376 143.939L124.356 145.037C124.355 145.079 124.363 145.121 124.378 145.161C124.394 145.2 124.417 145.236 124.446 145.267C124.476 145.298 124.511 145.322 124.55 145.339C124.589 145.356 124.631 145.365 124.674 145.366C124.716 145.367 124.758 145.359 124.798 145.344C124.837 145.328 124.873 145.305 124.904 145.275C124.935 145.246 124.959 145.211 124.976 145.172C124.993 145.133 125.002 145.091 125.003 145.048V145.046L125.013 143.948C125.014 143.863 124.981 143.782 124.923 143.722C124.864 143.662 124.783 143.627 124.699 143.626C124.615 143.625 124.533 143.657 124.473 143.716C124.412 143.774 124.377 143.855 124.376 143.939Z" fill="#020202"/>
<path d="M124.336 146.135L124.323 147.241C124.322 147.283 124.33 147.326 124.346 147.366C124.362 147.406 124.386 147.442 124.416 147.473C124.446 147.504 124.482 147.528 124.521 147.545C124.561 147.562 124.603 147.571 124.646 147.572C124.689 147.572 124.732 147.564 124.772 147.548C124.812 147.532 124.848 147.509 124.879 147.479C124.91 147.449 124.934 147.413 124.951 147.374C124.968 147.334 124.977 147.292 124.978 147.249L124.978 147.234L124.992 146.144C124.993 146.101 124.985 146.058 124.969 146.018C124.953 145.978 124.929 145.942 124.899 145.911C124.869 145.88 124.834 145.855 124.794 145.838C124.755 145.821 124.712 145.812 124.669 145.811C124.626 145.811 124.583 145.818 124.543 145.834C124.503 145.85 124.467 145.874 124.436 145.904C124.405 145.934 124.38 145.969 124.363 146.009C124.346 146.048 124.337 146.091 124.336 146.134V146.135Z" fill="#020202"/>
<path d="M124.482 148.406C124.583 148.786 124.73 149.152 124.921 149.495C124.962 149.57 125.031 149.625 125.112 149.648C125.194 149.672 125.281 149.662 125.356 149.622C125.43 149.581 125.485 149.512 125.509 149.43C125.533 149.349 125.523 149.261 125.482 149.187C125.319 148.889 125.194 148.571 125.109 148.242C125.098 148.201 125.08 148.162 125.054 148.128C125.028 148.094 124.996 148.066 124.96 148.044C124.923 148.022 124.883 148.008 124.84 148.002C124.798 147.996 124.755 147.999 124.714 148.009C124.673 148.02 124.634 148.038 124.6 148.064C124.566 148.09 124.538 148.122 124.516 148.158C124.495 148.195 124.48 148.235 124.474 148.277C124.468 148.319 124.471 148.362 124.481 148.403L124.482 148.406Z" fill="#020202"/>
<path d="M125.612 150.444C125.88 150.731 126.182 150.983 126.512 151.197C126.581 151.242 126.666 151.257 126.747 151.24C126.828 151.223 126.899 151.174 126.944 151.105C126.989 151.036 127.005 150.951 126.988 150.87C126.971 150.789 126.923 150.718 126.853 150.673C126.568 150.486 126.307 150.264 126.076 150.014C126.019 149.952 125.94 149.916 125.856 149.913C125.772 149.91 125.691 149.94 125.629 149.996C125.567 150.053 125.531 150.132 125.527 150.215C125.524 150.299 125.554 150.381 125.61 150.442L125.612 150.444Z" fill="#020202"/>
<path d="M127.568 151.707C127.94 151.833 128.326 151.912 128.717 151.943C128.798 151.95 128.878 151.925 128.94 151.872C129.002 151.82 129.04 151.745 129.047 151.665C129.054 151.584 129.028 151.504 128.976 151.442C128.923 151.38 128.848 151.342 128.768 151.335C128.427 151.306 128.091 151.234 127.768 151.123C127.73 151.109 127.689 151.104 127.649 151.106C127.608 151.108 127.568 151.119 127.532 151.136C127.495 151.154 127.463 151.179 127.436 151.209C127.409 151.24 127.388 151.275 127.375 151.313C127.361 151.352 127.356 151.392 127.358 151.433C127.36 151.473 127.371 151.513 127.389 151.549C127.406 151.586 127.431 151.618 127.462 151.645C127.492 151.672 127.527 151.693 127.566 151.706L127.568 151.707Z" fill="#020202"/>
<path d="M129.834 151.972L130.933 151.98C131.009 151.981 131.083 151.951 131.138 151.897C131.193 151.844 131.224 151.771 131.226 151.694C131.227 151.618 131.198 151.544 131.145 151.489C131.092 151.433 131.019 151.401 130.942 151.399L129.845 151.369C129.765 151.367 129.687 151.396 129.629 151.451C129.571 151.506 129.537 151.581 129.534 151.661C129.532 151.741 129.561 151.819 129.616 151.877C129.671 151.935 129.747 151.969 129.827 151.972L129.834 151.972Z" fill="#020202"/>
<path d="M132.031 151.985L133.13 151.986C133.201 151.986 133.268 151.958 133.319 151.909C133.369 151.859 133.397 151.792 133.398 151.722C133.399 151.651 133.372 151.583 133.323 151.532C133.273 151.482 133.206 151.453 133.136 151.451L132.038 151.427C132.002 151.426 131.965 151.432 131.931 151.445C131.897 151.458 131.865 151.478 131.839 151.503C131.812 151.529 131.791 151.559 131.776 151.592C131.761 151.626 131.753 151.662 131.752 151.699C131.751 151.735 131.757 151.772 131.77 151.806C131.783 151.84 131.803 151.872 131.829 151.898C131.854 151.925 131.884 151.946 131.918 151.961C131.951 151.976 131.988 151.984 132.024 151.985L132.031 151.985Z" fill="#020202"/>
<path d="M134.229 151.984L135.327 151.98C135.392 151.979 135.454 151.954 135.499 151.908C135.545 151.863 135.57 151.801 135.571 151.737C135.571 151.672 135.546 151.61 135.501 151.564C135.456 151.518 135.394 151.492 135.33 151.491L134.232 151.473C134.165 151.472 134.099 151.497 134.05 151.544C134.002 151.591 133.973 151.656 133.972 151.723C133.971 151.791 133.996 151.857 134.043 151.905C134.09 151.954 134.155 151.983 134.222 151.984L134.229 151.984Z" fill="#020202"/>
<path d="M136.426 151.972L137.526 151.961C137.584 151.961 137.64 151.937 137.681 151.896C137.722 151.855 137.745 151.799 137.745 151.74C137.745 151.682 137.722 151.626 137.681 151.585C137.64 151.544 137.584 151.52 137.526 151.52L136.427 151.507C136.397 151.506 136.366 151.511 136.337 151.523C136.309 151.534 136.282 151.55 136.26 151.572C136.238 151.593 136.22 151.619 136.208 151.647C136.196 151.675 136.189 151.705 136.189 151.736C136.188 151.767 136.194 151.797 136.205 151.826C136.217 151.855 136.234 151.881 136.255 151.902C136.277 151.924 136.303 151.942 136.331 151.954C136.359 151.966 136.39 151.972 136.421 151.972H136.426Z" fill="#020202"/>
<path d="M138.624 151.947L139.723 151.931C139.775 151.93 139.824 151.909 139.861 151.872C139.897 151.834 139.917 151.785 139.917 151.733C139.916 151.681 139.896 151.631 139.859 151.595C139.822 151.558 139.773 151.537 139.721 151.537L138.623 151.53C138.595 151.529 138.568 151.535 138.543 151.545C138.517 151.555 138.494 151.57 138.474 151.589C138.455 151.609 138.439 151.632 138.428 151.657C138.417 151.682 138.412 151.709 138.411 151.737C138.411 151.764 138.416 151.791 138.427 151.817C138.437 151.842 138.452 151.865 138.471 151.885C138.491 151.905 138.514 151.92 138.539 151.931C138.564 151.942 138.592 151.947 138.619 151.947L138.624 151.947Z" fill="#020202"/>
<path d="M140.822 151.911L141.921 151.888C141.966 151.887 142.009 151.868 142.041 151.835C142.072 151.803 142.09 151.759 142.089 151.714C142.089 151.668 142.07 151.625 142.038 151.593C142.006 151.561 141.962 151.543 141.917 151.543L140.819 151.542C140.77 151.541 140.723 151.561 140.688 151.595C140.653 151.63 140.633 151.677 140.633 151.726C140.633 151.775 140.652 151.822 140.687 151.857C140.721 151.891 140.768 151.911 140.817 151.911L140.822 151.911Z" fill="#020202"/>
<path d="M143.02 151.863L144.118 151.834C144.157 151.833 144.194 151.816 144.221 151.788C144.248 151.76 144.263 151.722 144.263 151.683C144.262 151.644 144.246 151.606 144.218 151.579C144.19 151.551 144.152 151.536 144.113 151.536L143.015 151.541C142.973 151.541 142.932 151.558 142.902 151.588C142.871 151.619 142.855 151.659 142.855 151.702C142.855 151.745 142.872 151.786 142.902 151.816C142.932 151.846 142.973 151.863 143.016 151.863L143.02 151.863Z" fill="#020202"/>
<path d="M145.216 151.808L146.314 151.78C146.351 151.779 146.385 151.764 146.41 151.737C146.435 151.711 146.449 151.676 146.448 151.639C146.447 151.603 146.432 151.569 146.406 151.543C146.38 151.518 146.344 151.504 146.308 151.505L145.21 151.523C145.191 151.523 145.173 151.527 145.156 151.535C145.139 151.542 145.123 151.553 145.11 151.566C145.097 151.579 145.087 151.595 145.08 151.613C145.073 151.63 145.069 151.649 145.07 151.667C145.07 151.686 145.074 151.705 145.081 151.722C145.089 151.739 145.099 151.755 145.113 151.768C145.126 151.781 145.142 151.791 145.159 151.798C145.177 151.805 145.195 151.808 145.214 151.808L145.216 151.808Z" fill="#020202"/>
<path d="M147.413 151.749L148.511 151.716C148.545 151.714 148.578 151.7 148.601 151.675C148.624 151.651 148.637 151.618 148.636 151.584C148.635 151.55 148.62 151.518 148.596 151.494C148.571 151.471 148.538 151.458 148.504 151.459L147.406 151.484C147.389 151.484 147.371 151.488 147.355 151.495C147.339 151.502 147.325 151.512 147.312 151.524C147.3 151.537 147.291 151.552 147.284 151.568C147.278 151.584 147.275 151.602 147.275 151.619C147.275 151.637 147.279 151.654 147.286 151.67C147.293 151.686 147.303 151.701 147.316 151.713C147.329 151.725 147.344 151.734 147.36 151.741C147.376 151.747 147.394 151.75 147.411 151.75L147.413 151.749Z" fill="#020202"/>
<path d="M149.61 151.678L150.709 151.638C150.74 151.637 150.77 151.623 150.791 151.6C150.813 151.577 150.824 151.547 150.823 151.515C150.822 151.484 150.809 151.454 150.786 151.433C150.763 151.411 150.732 151.4 150.7 151.401L149.602 151.432C149.586 151.432 149.57 151.436 149.555 151.442C149.54 151.449 149.527 151.458 149.516 151.47C149.504 151.482 149.496 151.495 149.49 151.511C149.484 151.526 149.481 151.542 149.481 151.558C149.482 151.574 149.485 151.59 149.492 151.605C149.499 151.62 149.508 151.633 149.52 151.645C149.532 151.656 149.546 151.665 149.561 151.67C149.576 151.676 149.592 151.679 149.609 151.678L149.61 151.678Z" fill="#020202"/>
<path d="M151.807 151.594L152.904 151.548C152.933 151.547 152.961 151.534 152.981 151.512C153 151.491 153.011 151.462 153.01 151.433C153.008 151.404 152.996 151.376 152.974 151.357C152.953 151.337 152.924 151.326 152.895 151.327L151.799 151.366C151.768 151.367 151.74 151.38 151.719 151.402C151.698 151.424 151.687 151.454 151.688 151.484C151.689 151.514 151.702 151.543 151.724 151.563C151.746 151.584 151.776 151.595 151.806 151.594L151.807 151.594Z" fill="#020202"/>
<path d="M154.001 151.506L155.099 151.46C155.114 151.459 155.129 151.455 155.143 151.449C155.157 151.442 155.17 151.433 155.18 151.422C155.191 151.41 155.199 151.397 155.204 151.383C155.21 151.368 155.212 151.353 155.211 151.337C155.211 151.322 155.207 151.307 155.2 151.293C155.194 151.279 155.185 151.266 155.173 151.256C155.162 151.245 155.149 151.237 155.134 151.232C155.12 151.227 155.104 151.224 155.089 151.225L155.088 151.225L153.991 151.278C153.961 151.279 153.933 151.293 153.912 151.315C153.892 151.337 153.881 151.367 153.882 151.397C153.884 151.427 153.897 151.455 153.919 151.476C153.941 151.496 153.971 151.507 154.001 151.506Z" fill="#020202"/>
<path d="M156.197 151.41L157.295 151.356C157.328 151.355 157.358 151.34 157.381 151.315C157.403 151.291 157.414 151.259 157.413 151.226C157.411 151.193 157.396 151.162 157.372 151.14C157.348 151.118 157.315 151.106 157.282 151.108L157.281 151.108L156.185 151.168C156.153 151.17 156.123 151.184 156.101 151.208C156.08 151.232 156.069 151.263 156.07 151.295C156.072 151.327 156.086 151.357 156.11 151.378C156.133 151.4 156.165 151.411 156.197 151.41L156.197 151.41Z" fill="#020202"/>
<path d="M158.392 151.299L159.49 151.238C159.507 151.237 159.524 151.232 159.54 151.225C159.555 151.217 159.569 151.207 159.581 151.194C159.593 151.181 159.601 151.166 159.607 151.15C159.613 151.133 159.615 151.116 159.614 151.099C159.613 151.082 159.609 151.065 159.601 151.049C159.594 151.034 159.583 151.02 159.571 151.008C159.558 150.997 159.543 150.988 159.526 150.982C159.51 150.976 159.493 150.974 159.475 150.975L159.474 150.975L158.378 151.043C158.344 151.045 158.312 151.061 158.29 151.086C158.267 151.111 158.256 151.145 158.258 151.178C158.26 151.212 158.275 151.244 158.3 151.266C158.325 151.289 158.359 151.301 158.392 151.299H158.392Z" fill="#020202"/>
<path d="M160.588 151.172L161.686 151.106C161.723 151.103 161.758 151.086 161.783 151.058C161.808 151.03 161.821 150.993 161.818 150.956C161.816 150.918 161.799 150.883 161.771 150.858C161.743 150.833 161.706 150.821 161.668 150.823L161.666 150.823L160.57 150.903C160.553 150.904 160.535 150.908 160.519 150.916C160.503 150.924 160.489 150.935 160.478 150.948C160.466 150.962 160.457 150.977 160.451 150.994C160.445 151.011 160.443 151.028 160.444 151.046C160.445 151.064 160.45 151.081 160.458 151.097C160.466 151.113 160.477 151.127 160.49 151.139C160.503 151.151 160.519 151.16 160.536 151.165C160.552 151.171 160.57 151.173 160.588 151.172H160.588Z" fill="#020202"/>
<path d="M162.781 151.038L163.88 150.966C163.901 150.964 163.921 150.959 163.94 150.949C163.959 150.94 163.976 150.927 163.99 150.911C164.018 150.879 164.033 150.837 164.03 150.795C164.027 150.752 164.007 150.712 163.975 150.684C163.943 150.656 163.901 150.642 163.858 150.644L163.855 150.645L162.759 150.736C162.72 150.739 162.683 150.758 162.656 150.788C162.63 150.819 162.617 150.858 162.62 150.898C162.623 150.938 162.642 150.975 162.672 151.001C162.702 151.027 162.741 151.041 162.781 151.038Z" fill="#020202"/>
<path d="M164.977 150.889L166.074 150.808C166.098 150.806 166.121 150.8 166.142 150.789C166.163 150.779 166.182 150.764 166.198 150.746C166.213 150.728 166.225 150.707 166.233 150.685C166.24 150.662 166.243 150.638 166.241 150.614C166.239 150.591 166.233 150.568 166.222 150.547C166.212 150.525 166.197 150.506 166.179 150.491C166.161 150.476 166.14 150.464 166.117 150.456C166.095 150.449 166.071 150.446 166.047 150.448L166.043 150.448L164.949 150.549C164.904 150.553 164.863 150.574 164.834 150.609C164.804 150.643 164.79 150.688 164.794 150.733C164.797 150.778 164.819 150.819 164.853 150.849C164.887 150.878 164.932 150.893 164.977 150.889Z" fill="#020202"/>
<path d="M167.17 150.721L168.267 150.63C168.32 150.626 168.368 150.601 168.403 150.56C168.437 150.52 168.454 150.467 168.449 150.415C168.445 150.362 168.42 150.313 168.379 150.279C168.339 150.244 168.286 150.228 168.233 150.232L168.229 150.233L167.136 150.343C167.086 150.348 167.04 150.372 167.008 150.411C166.976 150.449 166.96 150.499 166.965 150.549C166.969 150.599 166.994 150.645 167.032 150.678C167.071 150.71 167.12 150.726 167.17 150.721Z" fill="#020202"/>
<path d="M169.363 150.535L170.458 150.434C170.517 150.429 170.571 150.401 170.609 150.355C170.646 150.31 170.665 150.252 170.659 150.193C170.654 150.135 170.625 150.081 170.58 150.043C170.535 150.005 170.476 149.987 170.418 149.993L170.412 149.993L169.321 150.116C169.266 150.122 169.215 150.149 169.18 150.192C169.145 150.235 169.128 150.291 169.134 150.346C169.139 150.401 169.167 150.452 169.209 150.488C169.252 150.523 169.307 150.54 169.363 150.535Z" fill="#020202"/>
<path d="M171.554 150.328L172.648 150.216C172.713 150.21 172.772 150.178 172.813 150.128C172.854 150.077 172.873 150.013 172.867 149.949C172.86 149.884 172.828 149.825 172.778 149.784C172.728 149.743 172.663 149.724 172.599 149.731L172.593 149.731L171.503 149.865C171.442 149.872 171.386 149.903 171.348 149.952C171.309 150 171.292 150.061 171.298 150.122C171.305 150.183 171.336 150.239 171.384 150.278C171.431 150.316 171.493 150.334 171.554 150.328V150.328Z" fill="#020202"/>
<path d="M173.743 150.098L174.838 149.974C174.873 149.97 174.906 149.959 174.937 149.942C174.968 149.926 174.995 149.903 175.017 149.875C175.039 149.848 175.055 149.816 175.065 149.783C175.075 149.749 175.077 149.714 175.073 149.679C175.07 149.644 175.059 149.611 175.042 149.58C175.025 149.549 175.002 149.522 174.974 149.5C174.947 149.479 174.915 149.463 174.881 149.453C174.848 149.443 174.812 149.441 174.778 149.445L174.771 149.446L173.681 149.592C173.614 149.6 173.554 149.635 173.512 149.688C173.471 149.741 173.452 149.809 173.46 149.876C173.468 149.942 173.503 150.003 173.555 150.045C173.608 150.087 173.676 150.106 173.743 150.098Z" fill="#020202"/>
<path d="M175.976 149.779C176.351 149.647 176.702 149.454 177.015 149.209C177.075 149.163 177.113 149.095 177.123 149.021C177.132 148.946 177.111 148.871 177.065 148.812C177.019 148.752 176.951 148.714 176.876 148.705C176.801 148.695 176.726 148.716 176.667 148.762L176.663 148.765C176.401 148.976 176.106 149.142 175.79 149.259C175.721 149.284 175.665 149.335 175.634 149.401C175.603 149.467 175.599 149.542 175.624 149.611C175.648 149.68 175.699 149.736 175.765 149.768C175.831 149.799 175.907 149.803 175.976 149.779V149.779Z" fill="#020202"/>
<path d="M177.819 148.337C178.035 148.007 178.202 147.647 178.317 147.27C178.328 147.232 178.332 147.193 178.329 147.154C178.325 147.115 178.314 147.077 178.295 147.043C178.277 147.008 178.252 146.977 178.222 146.953C178.192 146.928 178.157 146.909 178.12 146.897C178.082 146.886 178.043 146.882 178.004 146.885C177.965 146.889 177.927 146.9 177.892 146.919C177.858 146.937 177.827 146.962 177.802 146.992C177.777 147.022 177.758 147.057 177.747 147.094L177.746 147.098C177.652 147.424 177.513 147.734 177.331 148.02C177.29 148.085 177.276 148.163 177.292 148.238C177.308 148.313 177.353 148.379 177.417 148.421C177.482 148.463 177.56 148.477 177.636 148.462C177.711 148.446 177.777 148.401 177.819 148.337Z" fill="#020202"/>
<path d="M178.53 146.129C178.56 145.748 178.56 145.365 178.53 144.984C178.524 144.902 178.485 144.826 178.422 144.772C178.359 144.718 178.278 144.692 178.195 144.698C178.113 144.704 178.036 144.742 177.982 144.804C177.928 144.866 177.901 144.948 177.906 145.03L177.906 145.034C177.938 145.383 177.943 145.734 177.921 146.083C177.915 146.164 177.942 146.243 177.994 146.304C178.047 146.365 178.122 146.403 178.203 146.409C178.283 146.415 178.363 146.389 178.424 146.337C178.486 146.284 178.524 146.21 178.53 146.129L178.53 146.129Z" fill="#020202"/>
<path d="M178.463 143.902L178.44 142.814L178.44 142.807C178.438 142.72 178.401 142.638 178.339 142.578C178.276 142.518 178.192 142.485 178.105 142.487C178.019 142.489 177.936 142.525 177.876 142.587C177.816 142.65 177.783 142.734 177.785 142.82L177.785 142.825L177.823 143.929C177.826 144.013 177.862 144.093 177.924 144.15C177.985 144.208 178.067 144.239 178.152 144.237C178.236 144.235 178.316 144.199 178.374 144.138C178.433 144.077 178.465 143.996 178.463 143.911L178.463 143.902Z" fill="#020202"/>
<path d="M178.438 141.724L178.45 140.631L178.45 140.627C178.451 140.583 178.443 140.539 178.426 140.498C178.41 140.457 178.385 140.419 178.355 140.388C178.324 140.356 178.287 140.331 178.246 140.314C178.205 140.296 178.162 140.287 178.118 140.286C178.073 140.286 178.029 140.294 177.988 140.31C177.947 140.327 177.91 140.351 177.878 140.382C177.847 140.413 177.821 140.45 177.804 140.49C177.786 140.531 177.777 140.575 177.777 140.619L177.777 140.622L177.772 141.723C177.772 141.811 177.806 141.895 177.868 141.958C177.93 142.02 178.014 142.056 178.102 142.057C178.19 142.057 178.275 142.023 178.338 141.962C178.401 141.9 178.436 141.816 178.437 141.728L178.438 141.724Z" fill="#020202"/>
<path d="M178.476 139.539L178.514 138.446L178.514 138.443C178.517 138.352 178.484 138.263 178.421 138.196C178.359 138.129 178.272 138.09 178.181 138.087C178.09 138.083 178.001 138.117 177.934 138.179C177.867 138.241 177.827 138.328 177.824 138.419L177.824 138.422L177.795 139.521C177.792 139.611 177.826 139.699 177.888 139.764C177.95 139.829 178.035 139.868 178.125 139.87C178.215 139.873 178.303 139.84 178.368 139.779C178.434 139.717 178.473 139.632 178.476 139.542L178.476 139.539Z" fill="#020202"/>
<path d="M178.562 137.354L178.62 136.262L178.62 136.259C178.623 136.213 178.616 136.166 178.601 136.122C178.585 136.079 178.561 136.038 178.53 136.004C178.499 135.969 178.462 135.941 178.42 135.921C178.378 135.901 178.332 135.889 178.286 135.887C178.239 135.885 178.193 135.891 178.149 135.907C178.105 135.922 178.065 135.946 178.031 135.977C177.996 136.008 177.968 136.046 177.948 136.088C177.928 136.13 177.916 136.175 177.914 136.222L177.914 136.224L177.864 137.322C177.86 137.415 177.892 137.505 177.954 137.573C178.017 137.642 178.103 137.683 178.196 137.687C178.288 137.692 178.379 137.66 178.447 137.598C178.516 137.536 178.557 137.449 178.562 137.357L178.562 137.354Z" fill="#020202"/>
<path d="M178.687 135.17L178.764 134.078L178.764 134.075C178.77 133.98 178.738 133.885 178.675 133.813C178.612 133.741 178.523 133.697 178.428 133.69C178.332 133.683 178.238 133.715 178.165 133.778C178.093 133.84 178.048 133.929 178.041 134.025L178.041 134.028L177.973 135.126C177.967 135.22 177.999 135.313 178.061 135.384C178.124 135.455 178.212 135.499 178.307 135.505C178.401 135.511 178.494 135.48 178.566 135.417C178.637 135.355 178.681 135.267 178.687 135.173L178.687 135.17Z" fill="#020202"/>
<path d="M178.849 132.988L178.942 131.898L178.942 131.895C178.946 131.847 178.941 131.798 178.926 131.752C178.912 131.705 178.888 131.662 178.857 131.625C178.793 131.55 178.703 131.503 178.605 131.495C178.507 131.487 178.41 131.517 178.335 131.581C178.259 131.644 178.213 131.734 178.204 131.832L178.204 131.835L178.118 132.931C178.111 133.028 178.142 133.123 178.205 133.197C178.267 133.271 178.357 133.317 178.453 133.325C178.55 133.332 178.646 133.302 178.72 133.239C178.794 133.177 178.84 133.088 178.848 132.991L178.849 132.988Z" fill="#020202"/>
<path d="M179.044 130.809L179.154 129.72L179.155 129.717C179.16 129.667 179.155 129.617 179.141 129.57C179.126 129.522 179.103 129.478 179.071 129.439C179.04 129.401 179.001 129.369 178.957 129.345C178.914 129.322 178.866 129.307 178.816 129.302C178.767 129.297 178.717 129.302 178.669 129.316C178.621 129.331 178.577 129.354 178.538 129.386C178.5 129.417 178.468 129.456 178.444 129.499C178.421 129.543 178.406 129.591 178.401 129.641L178.401 129.643L178.298 130.739C178.289 130.838 178.319 130.936 178.382 131.012C178.445 131.089 178.536 131.137 178.635 131.146C178.733 131.156 178.832 131.126 178.908 131.064C178.985 131.001 179.034 130.91 179.044 130.812L179.044 130.809Z" fill="#020202"/>
<path d="M179.273 128.631L179.4 127.546L179.401 127.543C179.413 127.441 179.383 127.338 179.32 127.258C179.256 127.177 179.163 127.126 179.061 127.114C178.959 127.102 178.857 127.131 178.776 127.194C178.696 127.258 178.644 127.351 178.632 127.453L178.631 127.456L178.512 128.548C178.501 128.649 178.53 128.75 178.594 128.829C178.657 128.908 178.749 128.959 178.85 128.97C178.95 128.982 179.051 128.953 179.131 128.89C179.21 128.827 179.261 128.735 179.273 128.634L179.273 128.631Z" fill="#020202"/>
<path d="M179.533 126.46L179.671 125.375L179.671 125.372C179.684 125.27 179.657 125.167 179.594 125.086C179.531 125.005 179.439 124.952 179.337 124.939C179.235 124.926 179.133 124.954 179.051 125.016C178.97 125.079 178.917 125.171 178.904 125.273L178.762 126.364C178.755 126.415 178.758 126.466 178.771 126.516C178.784 126.565 178.807 126.611 178.838 126.652C178.869 126.693 178.908 126.727 178.952 126.752C178.997 126.778 179.046 126.795 179.097 126.801C179.147 126.808 179.199 126.804 179.248 126.791C179.298 126.777 179.344 126.754 179.385 126.723C179.425 126.692 179.459 126.653 179.484 126.608C179.51 126.564 179.526 126.515 179.532 126.464L179.532 126.463L179.533 126.46Z" fill="#020202"/>
<path d="M179.818 124.29L179.973 123.207L179.974 123.204C179.988 123.103 179.962 123.001 179.901 122.92C179.84 122.838 179.75 122.784 179.649 122.77C179.548 122.755 179.446 122.781 179.364 122.842C179.283 122.903 179.229 122.993 179.214 123.094L179.055 124.183C179.047 124.233 179.05 124.284 179.062 124.333C179.075 124.382 179.097 124.428 179.127 124.469C179.157 124.509 179.195 124.543 179.239 124.569C179.282 124.595 179.33 124.612 179.38 124.62C179.43 124.627 179.481 124.624 179.53 124.612C179.579 124.599 179.625 124.578 179.666 124.547C179.707 124.517 179.741 124.479 179.767 124.436C179.793 124.393 179.81 124.344 179.817 124.294L179.817 124.293L179.818 124.29Z" fill="#020202"/>
<path d="M180.137 122.125L180.311 121.044L180.311 121.04C180.327 120.941 180.302 120.84 180.243 120.758C180.184 120.677 180.095 120.622 179.996 120.606C179.897 120.59 179.795 120.614 179.713 120.673C179.632 120.732 179.576 120.82 179.56 120.919L179.383 122.006C179.375 122.055 179.376 122.106 179.388 122.155C179.399 122.204 179.42 122.25 179.45 122.29C179.479 122.331 179.516 122.365 179.559 122.392C179.601 122.418 179.649 122.436 179.698 122.444C179.748 122.452 179.798 122.45 179.847 122.439C179.896 122.427 179.942 122.406 179.983 122.377C180.024 122.348 180.058 122.311 180.085 122.268C180.111 122.226 180.129 122.178 180.137 122.129L180.137 122.128L180.137 122.125Z" fill="#020202"/>
<path d="M180.493 119.964L180.684 118.888L180.684 118.885C180.702 118.786 180.679 118.685 180.622 118.603C180.565 118.522 180.477 118.466 180.379 118.448C180.281 118.431 180.18 118.453 180.097 118.51C180.015 118.567 179.959 118.654 179.942 118.752L179.746 119.834C179.729 119.933 179.751 120.035 179.808 120.117C179.866 120.199 179.953 120.255 180.052 120.273C180.151 120.291 180.253 120.269 180.335 120.212C180.418 120.155 180.474 120.067 180.492 119.968L180.492 119.967L180.493 119.964Z" fill="#020202"/>
<path d="M180.884 117.813L181.094 116.739L181.095 116.736C181.114 116.639 181.093 116.538 181.038 116.456C180.983 116.374 180.897 116.317 180.8 116.298C180.703 116.278 180.602 116.299 180.519 116.354C180.437 116.409 180.38 116.494 180.361 116.591L180.146 117.671C180.137 117.719 180.137 117.769 180.146 117.817C180.156 117.866 180.175 117.912 180.203 117.953C180.23 117.994 180.265 118.029 180.306 118.056C180.347 118.083 180.393 118.102 180.442 118.112C180.49 118.122 180.54 118.122 180.588 118.112C180.637 118.102 180.683 118.083 180.724 118.056C180.765 118.029 180.8 117.993 180.827 117.952C180.854 117.911 180.874 117.865 180.883 117.817L180.883 117.816L180.884 117.813Z" fill="#020202"/>
<path d="M181.314 115.667L181.543 114.597L181.544 114.594C181.565 114.498 181.546 114.398 181.493 114.316C181.439 114.233 181.356 114.176 181.26 114.155C181.164 114.134 181.064 114.152 180.981 114.205C180.899 114.258 180.84 114.342 180.819 114.437L180.585 115.513C180.575 115.561 180.574 115.611 180.582 115.659C180.591 115.707 180.609 115.753 180.636 115.794C180.662 115.835 180.696 115.87 180.736 115.898C180.777 115.926 180.822 115.946 180.87 115.956C180.917 115.966 180.967 115.967 181.015 115.959C181.063 115.95 181.109 115.932 181.15 115.906C181.191 115.879 181.227 115.845 181.255 115.805C181.283 115.765 181.302 115.719 181.313 115.672L181.313 115.671L181.314 115.667Z" fill="#020202"/>
<path d="M181.783 113.53L182.034 112.464L182.035 112.461C182.057 112.366 182.04 112.266 181.989 112.184C181.938 112.101 181.856 112.042 181.761 112.02C181.666 111.997 181.567 112.014 181.484 112.065C181.401 112.116 181.342 112.197 181.319 112.292L181.064 113.363C181.042 113.459 181.058 113.559 181.109 113.642C181.16 113.725 181.243 113.784 181.338 113.807C181.433 113.83 181.533 113.814 181.617 113.762C181.7 113.711 181.759 113.629 181.782 113.534L181.783 113.533L181.783 113.53Z" fill="#020202"/>
<path d="M182.293 111.401L182.56 110.34L182.561 110.337C182.583 110.245 182.569 110.149 182.521 110.068C182.473 109.987 182.395 109.928 182.304 109.905C182.212 109.881 182.116 109.895 182.034 109.942C181.953 109.99 181.894 110.067 181.87 110.158L181.587 111.223C181.562 111.316 181.576 111.416 181.624 111.499C181.673 111.582 181.753 111.643 181.846 111.668C181.939 111.692 182.038 111.679 182.122 111.631C182.206 111.582 182.266 111.503 182.291 111.41L182.292 111.407L182.293 111.401Z" fill="#020202"/>
<path d="M182.837 109.282L183.126 108.226L183.127 108.223C183.151 108.136 183.14 108.043 183.095 107.964C183.051 107.886 182.977 107.828 182.89 107.804C182.803 107.779 182.71 107.79 182.631 107.834C182.552 107.878 182.494 107.951 182.469 108.038L182.163 109.097C182.151 109.141 182.147 109.187 182.152 109.232C182.157 109.278 182.171 109.322 182.193 109.362C182.215 109.402 182.245 109.437 182.281 109.466C182.317 109.495 182.358 109.516 182.402 109.529C182.446 109.541 182.492 109.545 182.538 109.54C182.584 109.535 182.628 109.521 182.668 109.499C182.708 109.477 182.743 109.447 182.772 109.411C182.801 109.375 182.822 109.334 182.835 109.29L182.835 109.287L182.837 109.282Z" fill="#020202"/>
<path d="M183.427 107.175L183.741 106.126L183.742 106.122C183.767 106.04 183.758 105.951 183.717 105.875C183.676 105.799 183.607 105.742 183.524 105.717C183.442 105.692 183.353 105.7 183.277 105.74C183.2 105.78 183.143 105.849 183.117 105.931L182.787 106.983C182.76 107.067 182.769 107.159 182.81 107.237C182.851 107.316 182.921 107.375 183.006 107.401C183.09 107.428 183.182 107.42 183.261 107.379C183.339 107.338 183.398 107.267 183.425 107.183L183.426 107.18L183.427 107.175Z" fill="#020202"/>
<path d="M184.067 105.082L184.406 104.042L184.407 104.038C184.433 103.96 184.427 103.874 184.39 103.801C184.352 103.727 184.288 103.672 184.21 103.646C184.132 103.62 184.046 103.626 183.972 103.662C183.899 103.699 183.842 103.763 183.816 103.841L183.46 104.884C183.446 104.924 183.441 104.965 183.444 105.007C183.446 105.049 183.457 105.09 183.476 105.128C183.494 105.165 183.52 105.199 183.551 105.226C183.583 105.254 183.619 105.275 183.659 105.289C183.699 105.302 183.741 105.308 183.783 105.305C183.825 105.302 183.865 105.292 183.903 105.273C183.941 105.255 183.974 105.229 184.002 105.197C184.03 105.166 184.051 105.129 184.064 105.09L184.065 105.087L184.067 105.082Z" fill="#020202"/>
<path d="M184.759 103.006L185.125 101.975L185.127 101.971C185.14 101.935 185.146 101.896 185.144 101.857C185.142 101.818 185.133 101.78 185.117 101.745C185.083 101.673 185.023 101.618 184.949 101.592C184.875 101.565 184.793 101.568 184.722 101.602C184.651 101.635 184.596 101.695 184.569 101.769L184.185 102.803C184.157 102.878 184.161 102.962 184.195 103.035C184.228 103.108 184.29 103.164 184.365 103.192C184.441 103.22 184.524 103.217 184.598 103.184C184.671 103.15 184.728 103.089 184.756 103.014L184.757 103.011L184.759 103.006Z" fill="#020202"/>
<path d="M185.506 100.95L185.902 99.9298L185.903 99.9259C185.93 99.8566 185.929 99.7795 185.899 99.7114C185.869 99.6433 185.813 99.5898 185.744 99.5625C185.675 99.5351 185.598 99.5362 185.529 99.5655C185.461 99.5948 185.407 99.6499 185.379 99.7188L184.967 100.741C184.952 100.776 184.945 100.814 184.946 100.852C184.946 100.89 184.954 100.927 184.969 100.962C184.983 100.997 185.005 101.029 185.032 101.055C185.059 101.082 185.091 101.103 185.127 101.117C185.162 101.131 185.2 101.139 185.238 101.138C185.276 101.138 185.313 101.13 185.348 101.115C185.383 101.1 185.415 101.079 185.441 101.052C185.468 101.025 185.489 100.993 185.503 100.957L185.504 100.955L185.506 100.95Z" fill="#020202"/>
<path d="M186.313 98.9159L186.735 97.9069L186.737 97.903C186.764 97.8394 186.764 97.7679 186.738 97.704C186.713 97.6401 186.663 97.589 186.599 97.5617C186.536 97.5344 186.464 97.5332 186.4 97.5582C186.336 97.5833 186.284 97.6327 186.256 97.6957L185.808 98.7029C185.793 98.7358 185.785 98.7712 185.784 98.8072C185.783 98.8432 185.789 98.879 185.802 98.9126C185.815 98.9462 185.834 98.977 185.859 99.0031C185.884 99.0292 185.914 99.0502 185.947 99.0648C185.98 99.0794 186.015 99.0874 186.051 99.0883C186.087 99.0893 186.123 99.0831 186.157 99.0701C186.19 99.0572 186.221 99.0378 186.247 99.0129C186.273 98.9881 186.294 98.9584 186.309 98.9255L186.311 98.9212L186.313 98.9159Z" fill="#020202"/>
<path d="M187.175 96.9049L187.631 95.9105L187.632 95.9067C187.658 95.8499 187.661 95.7852 187.639 95.7265C187.618 95.6679 187.574 95.6201 187.518 95.5935C187.461 95.5668 187.396 95.5635 187.337 95.5843C187.278 95.6051 187.23 95.6482 187.203 95.7044L186.721 96.696C186.707 96.7255 186.698 96.7575 186.696 96.7902C186.694 96.8229 186.699 96.8557 186.71 96.8866C186.72 96.9176 186.737 96.9461 186.759 96.9706C186.781 96.9951 186.807 97.0151 186.837 97.0294C186.866 97.0437 186.898 97.052 186.931 97.054C186.964 97.0559 186.996 97.0514 187.027 97.0406C187.058 97.0299 187.087 97.0132 187.112 96.9914C187.136 96.9697 187.156 96.9433 187.17 96.9139L187.172 96.91L187.175 96.9049Z" fill="#020202"/>
<path d="M188.104 94.9242L188.596 93.9468L188.598 93.9432C188.623 93.8932 188.628 93.8352 188.61 93.7819C188.593 93.7286 188.555 93.6842 188.505 93.6585C188.456 93.6328 188.398 93.6277 188.344 93.6445C188.29 93.6612 188.246 93.6983 188.219 93.7478L187.702 94.7213C187.688 94.7475 187.679 94.7761 187.676 94.8057C187.673 94.8353 187.676 94.8652 187.684 94.8937C187.693 94.9221 187.707 94.9486 187.726 94.9716C187.745 94.9946 187.768 95.0136 187.794 95.0275C187.821 95.0415 187.849 95.0501 187.879 95.0528C187.909 95.0556 187.939 95.0525 187.967 95.0436C187.995 95.0348 188.022 95.0204 188.045 95.0013C188.067 94.9822 188.086 94.9588 188.1 94.9324L188.102 94.9289L188.104 94.9242Z" fill="#020202"/>
<path d="M189.107 92.9781C189.283 92.6619 189.455 92.3355 189.624 92.0044C189.647 91.9602 189.651 91.9089 189.636 91.8617C189.621 91.8145 189.588 91.7751 189.544 91.752C189.5 91.729 189.449 91.7242 189.401 91.7387C189.354 91.7532 189.314 91.7857 189.29 91.8294L189.289 91.8317C189.119 92.1482 188.943 92.4651 188.756 92.7835C188.729 92.8294 188.721 92.8841 188.735 92.9356C188.748 92.9871 188.782 93.0311 188.828 93.058C188.874 93.0849 188.928 93.0925 188.98 93.0791C189.031 93.0657 189.076 93.0323 189.102 92.9864L189.104 92.9834L189.107 92.9781Z" fill="#020202"/>
<path d="M190.109 91.0149L190.578 90.0175C190.596 89.9786 190.598 89.9341 190.584 89.8937C190.569 89.8532 190.54 89.82 190.501 89.8013C190.462 89.7825 190.418 89.7798 190.377 89.7936C190.336 89.8074 190.303 89.8367 190.284 89.8751L190.282 89.8773L189.792 90.8592L189.791 90.8614C189.781 90.8822 189.775 90.9047 189.773 90.9278C189.771 90.9509 189.774 90.9741 189.782 90.9961C189.789 91.0181 189.801 91.0384 189.816 91.0559C189.831 91.0734 189.849 91.0877 189.87 91.098C189.891 91.1084 189.914 91.1145 189.937 91.1161C189.96 91.1177 189.983 91.1147 190.005 91.1074C190.027 91.1 190.047 91.0884 190.065 91.0732C190.082 91.0579 190.097 91.0394 190.107 91.0187L190.109 91.0149Z" fill="#020202"/>
<path d="M191.027 89.0132L191.462 88.0007C191.475 87.9698 191.476 87.9351 191.464 87.9039C191.451 87.8726 191.428 87.8474 191.397 87.8337C191.366 87.82 191.332 87.8188 191.3 87.8305C191.269 87.8421 191.243 87.8657 191.229 87.896L191.228 87.8982L190.763 88.8921L190.762 88.8942C190.753 88.9115 190.749 88.9303 190.748 88.9494C190.747 88.9685 190.75 88.9876 190.756 89.0056C190.763 89.0236 190.773 89.0401 190.786 89.0543C190.799 89.0684 190.814 89.0798 190.832 89.0879C190.849 89.096 190.868 89.1006 190.887 89.1015C190.906 89.1023 190.925 89.0994 190.943 89.0928C190.961 89.0863 190.978 89.0763 190.992 89.0633C191.006 89.0504 191.017 89.0348 191.026 89.0174L191.027 89.0132Z" fill="#020202"/>
<path d="M191.877 86.9809L192.266 85.9498C192.274 85.9272 192.273 85.9021 192.264 85.8799C192.254 85.8578 192.236 85.8404 192.213 85.8314C192.191 85.8225 192.165 85.8228 192.143 85.8322C192.121 85.8417 192.103 85.8595 192.094 85.8818L192.093 85.8848L191.673 86.8971L191.672 86.9C191.666 86.9134 191.664 86.9277 191.664 86.9422C191.664 86.9566 191.666 86.9709 191.672 86.9843C191.677 86.9977 191.686 87.0098 191.696 87.02C191.706 87.0302 191.718 87.0383 191.732 87.0439C191.745 87.0494 191.759 87.0522 191.774 87.0522C191.788 87.0522 191.803 87.0494 191.816 87.0438C191.829 87.0383 191.841 87.0302 191.852 87.02C191.862 87.0097 191.87 86.9976 191.876 86.9842L191.877 86.9809Z" fill="#020202"/>
<path d="M192.614 84.9036L192.884 83.831C192.888 83.8165 192.886 83.8012 192.878 83.7884C192.871 83.7755 192.859 83.7661 192.844 83.7622C192.83 83.7583 192.814 83.7602 192.802 83.7676C192.789 83.7749 192.779 83.787 192.775 83.8013L192.773 83.8085L192.471 84.8582L192.469 84.8648C192.464 84.8838 192.466 84.9042 192.476 84.9214C192.486 84.9387 192.502 84.9514 192.521 84.9569C192.54 84.9623 192.56 84.96 192.577 84.9505C192.595 84.9409 192.607 84.9249 192.613 84.906L192.614 84.9036Z" fill="#020202"/>
<path d="M192.853 82.7181C192.81 82.6463 192.742 82.5929 192.662 82.5681C192.657 82.5666 192.652 82.5661 192.648 82.5666C192.643 82.567 192.638 82.5684 192.634 82.5706C192.63 82.5728 192.626 82.5759 192.623 82.5796C192.62 82.5832 192.617 82.5875 192.616 82.5921C192.613 82.6013 192.614 82.6112 192.619 82.6197C192.623 82.6283 192.631 82.6347 192.64 82.6379C192.702 82.6586 192.754 82.7018 192.785 82.7588C192.788 82.7632 192.791 82.7671 192.795 82.7703C192.799 82.7734 192.804 82.7757 192.809 82.777C192.814 82.7783 192.819 82.7787 192.824 82.778C192.83 82.7773 192.835 82.7756 192.839 82.7731C192.843 82.7705 192.847 82.767 192.851 82.7629C192.854 82.7588 192.856 82.7542 192.857 82.7492C192.859 82.7442 192.859 82.739 192.858 82.7339C192.858 82.7288 192.856 82.7239 192.853 82.7194L192.853 82.7181Z" fill="#020202"/>
<path d="M158.673 107.606C159.475 107.811 160.292 107.947 161.116 108.015C161.93 108.088 162.743 108.118 163.556 108.111C164.369 108.105 165.182 108.06 165.994 107.972C166.818 107.891 167.632 107.739 168.43 107.519C167.629 107.313 166.811 107.176 165.987 107.109C165.173 107.036 164.36 107.006 163.547 107.014C162.734 107.022 161.921 107.066 161.108 107.154C160.285 107.236 159.471 107.388 158.673 107.606Z" fill="#020202"/>
<path d="M179.692 151.874C179.552 153.018 179.49 154.162 179.444 155.305C179.404 156.449 179.381 157.593 179.423 158.737C179.476 159.881 179.582 161.025 179.609 162.169C179.611 162.455 179.621 162.741 179.617 163.027C179.638 163.299 179.6 163.573 179.506 163.829C179.408 164.071 179.249 164.283 179.044 164.444C178.839 164.606 178.596 164.711 178.338 164.75C178.09 164.783 177.838 164.754 177.603 164.668C177.379 164.578 177.179 164.437 177.02 164.255C176.866 164.077 176.759 163.865 176.707 163.635C176.683 163.523 176.671 163.408 176.672 163.292L176.681 162.865C176.706 161.721 176.737 160.577 176.727 159.433C176.696 157.145 176.604 154.857 176.373 152.57C176.372 152.56 176.368 152.552 176.361 152.546C176.354 152.54 176.346 152.536 176.336 152.536C176.327 152.536 176.319 152.54 176.312 152.546C176.305 152.552 176.301 152.56 176.3 152.57C176.069 154.857 175.977 157.145 175.946 159.433C175.936 160.577 175.966 161.721 175.992 162.865L176.001 163.295C176.006 163.466 176.032 163.635 176.08 163.799C176.217 164.284 176.538 164.696 176.976 164.947C177.413 165.198 177.931 165.268 178.419 165.143C178.724 165.063 179.004 164.909 179.234 164.695C179.464 164.481 179.638 164.213 179.739 163.915C179.788 163.769 179.82 163.619 179.835 163.467C179.845 163.31 179.841 163.169 179.84 163.027C179.836 162.741 179.845 162.455 179.847 162.169C179.874 161.025 179.981 159.881 180.033 158.737C180.076 157.593 180.053 156.449 180.012 155.305C179.966 154.161 179.905 153.018 179.765 151.874C179.764 151.865 179.759 151.857 179.753 151.851C179.746 151.845 179.737 151.841 179.728 151.841C179.719 151.841 179.71 151.845 179.704 151.851C179.697 151.857 179.693 151.865 179.692 151.874Z" fill="#020202"/>
<path d="M127.409 154.436C127.269 155.412 127.207 156.389 127.161 157.365C127.121 158.342 127.098 159.319 127.14 160.295C127.186 161.272 127.304 162.249 127.326 163.225C127.34 163.454 127.301 163.683 127.212 163.894C127.122 164.106 126.985 164.293 126.811 164.443C126.609 164.617 126.363 164.732 126.099 164.777C125.836 164.821 125.566 164.793 125.317 164.696C125.069 164.598 124.851 164.435 124.689 164.223C124.527 164.011 124.425 163.759 124.395 163.494C124.377 163.318 124.395 163.053 124.398 162.812C124.423 161.835 124.454 160.858 124.444 159.882C124.427 157.924 124.309 155.968 124.09 154.022C124.089 154.013 124.085 154.005 124.078 153.999C124.071 153.993 124.063 153.99 124.054 153.99C124.045 153.99 124.036 153.993 124.029 153.999C124.022 154.005 124.018 154.013 124.017 154.022C123.798 155.968 123.68 157.924 123.663 159.882C123.653 160.858 123.684 161.835 123.709 162.812C123.707 163.072 123.722 163.333 123.754 163.591C123.828 164.014 124.042 164.399 124.363 164.685C124.683 164.971 125.09 165.141 125.519 165.167C125.787 165.185 126.055 165.146 126.307 165.053C126.559 164.959 126.788 164.814 126.979 164.626C127.167 164.444 127.315 164.226 127.416 163.985C127.516 163.745 127.567 163.486 127.564 163.225C127.587 162.249 127.705 161.272 127.75 160.295C127.793 159.319 127.77 158.342 127.729 157.365C127.683 156.389 127.622 155.412 127.482 154.436C127.481 154.427 127.476 154.419 127.469 154.413C127.463 154.407 127.454 154.404 127.445 154.404C127.436 154.404 127.428 154.407 127.421 154.413C127.414 154.419 127.41 154.427 127.409 154.436Z" fill="#020202"/>
<path d="M177.822 83.9085C177.574 83.5008 177.261 83.1364 176.895 82.8295C176.534 82.517 176.143 82.2401 175.728 82.0027C174.889 81.5409 173.981 81.2146 173.04 81.0359C172.103 80.8441 171.15 80.7486 170.194 80.751C169.719 80.7717 169.242 80.7898 168.767 80.8198L167.35 80.9839C167.292 80.9905 167.238 81.0159 167.196 81.0561L167.186 81.0659C166.427 81.7887 165.661 82.5031 164.909 83.2328L165.18 83.1435C163.897 83.0444 162.607 83.2035 161.387 83.6115C160.18 84.0038 159.05 84.5999 158.044 85.3741C157.793 85.5632 157.567 85.7851 157.329 85.9886C157.212 86.0943 157.089 86.1924 156.979 86.304L156.662 86.6515C156.456 86.8875 156.229 87.1046 156.035 87.3495L155.475 88.101C155.384 88.2279 155.283 88.3476 155.199 88.4789L154.957 88.879L154.474 89.6789C154.187 90.2304 153.923 90.7949 153.647 91.353L153.646 91.3555L153.644 91.3621C153.41 92.0253 153.113 92.6641 152.755 93.2694C152.577 93.566 152.368 93.8422 152.13 94.0931C151.918 94.3394 151.638 94.517 151.325 94.6031C151.303 94.6074 151.281 94.616 151.262 94.6284C151.243 94.6409 151.227 94.657 151.214 94.6758C151.202 94.6946 151.193 94.7157 151.188 94.7379C151.183 94.7602 151.183 94.7831 151.187 94.8054L151.193 94.8284L151.195 94.8339C151.616 96.0384 152.115 97.2144 152.687 98.3548C153.258 99.5004 153.915 100.601 154.652 101.647C155.398 102.7 156.255 103.672 157.207 104.544C158.186 105.418 159.305 106.122 160.518 106.627C160.582 106.653 160.652 106.661 160.721 106.649C160.789 106.637 160.853 106.607 160.905 106.561L160.91 106.556C162.214 105.397 163.459 104.198 164.656 102.942C165.861 101.694 167 100.384 168.081 99.0244C168.616 98.3409 169.139 97.646 169.63 96.9285C170.113 96.2044 170.569 95.462 170.979 94.6926C171.399 93.9253 171.736 93.1156 171.984 92.2771C172.253 91.4405 172.32 90.5522 172.18 89.6847C172.179 89.68 172.178 89.6755 172.175 89.6715C172.172 89.6675 172.169 89.6641 172.165 89.6614C172.161 89.6587 172.156 89.6569 172.151 89.656C172.147 89.655 172.142 89.655 172.137 89.656C172.128 89.6581 172.12 89.6634 172.115 89.6709C172.11 89.6784 172.107 89.6877 172.108 89.6968C172.172 90.5477 172.043 91.402 171.731 92.1964C171.433 92.9943 171.061 93.7626 170.619 94.4914C169.718 95.9455 168.708 97.3292 167.597 98.6306C166.493 99.9415 165.314 101.189 164.114 102.416C162.907 103.632 161.669 104.833 160.397 105.97L160.79 105.898C159.656 105.443 158.605 104.804 157.678 104.007C156.752 103.181 155.912 102.264 155.172 101.268C154.424 100.265 153.747 99.2105 153.148 98.1126C152.532 97.0191 151.992 95.8851 151.53 94.7183L151.4 94.949C151.777 94.8364 152.111 94.6123 152.358 94.3062C152.599 94.0297 152.81 93.7289 152.989 93.4086C153.347 92.7821 153.644 92.122 153.873 91.4378L153.87 91.4467C154.138 90.8949 154.378 90.327 154.67 89.7871L155.154 89.004L155.396 88.6126C155.479 88.4836 155.582 88.3689 155.675 88.2472L156.245 87.5271C156.442 87.293 156.67 87.0866 156.883 86.8686L157.208 86.5459C157.32 86.4428 157.444 86.3535 157.562 86.2568C157.804 86.0711 158.031 85.8674 158.282 85.6972C159.278 85.0048 160.384 84.487 161.553 84.1661C162.702 83.8354 163.901 83.7094 165.094 83.7938L165.109 83.7952C165.156 83.799 165.203 83.7929 165.247 83.7773C165.291 83.7616 165.332 83.7368 165.365 83.7045C166.121 82.9784 166.861 82.2371 167.61 81.5042L167.446 81.5861L168.821 81.4007C169.281 81.3633 169.743 81.3373 170.204 81.3081C171.125 81.2796 172.047 81.3342 172.958 81.4712C173.869 81.6089 174.756 81.8759 175.592 82.264C176.007 82.4642 176.402 82.7039 176.772 82.9798C177.146 83.2517 177.479 83.5768 177.759 83.945L177.761 83.9484C177.767 83.956 177.775 83.9611 177.784 83.9628C177.793 83.9645 177.803 83.9626 177.811 83.9575C177.818 83.9524 177.824 83.9444 177.826 83.9353C177.828 83.9261 177.827 83.9165 177.822 83.9085L177.822 83.9085Z" fill="#020202"/>
<path d="M170.347 86.0413C170.126 85.6556 169.844 85.3077 169.513 85.0107C169.182 84.707 168.812 84.4496 168.412 84.2457C168.009 84.0405 167.573 83.9058 167.124 83.8477C166.679 83.788 166.227 83.822 165.796 83.9474C166.226 83.9663 166.653 84.0269 167.071 84.1284C167.479 84.2321 167.873 84.3812 168.248 84.5727C169.008 84.9709 169.713 85.4645 170.347 86.0413Z" fill="#020202"/>
<path d="M159.949 105.955C158.661 107.571 157.213 109.053 155.626 110.379C154.08 111.718 152.29 112.749 150.354 113.415C149.399 113.722 148.395 113.844 147.394 113.776C146.399 113.693 145.431 113.414 144.544 112.956C142.759 112.056 141.384 110.46 140.387 108.706C139.404 106.909 138.853 104.908 138.775 102.861L138.704 96.6477L138.702 95.0929C138.718 94.567 138.683 94.0408 138.597 93.5217C138.52 93.0006 138.402 92.4866 138.243 91.9845C138.05 91.496 137.831 91.0182 137.586 90.553C137.118 89.6247 136.629 88.7111 136.185 87.7806C135.72 86.8772 135.37 85.9194 135.144 84.9293C135.141 84.9154 135.137 84.9018 135.133 84.8886L135.13 84.8815L133.941 81.6885L133.368 80.0887C133.323 79.9833 133.293 79.8719 133.28 79.7579C133.271 79.6609 133.283 79.5632 133.314 79.4709C133.341 79.3861 133.387 79.309 133.45 79.246C133.512 79.183 133.589 79.1361 133.674 79.1092C133.955 79.0042 134.398 79.3701 134.702 79.7861C135.023 80.2266 135.301 80.697 135.532 81.1908C136.03 82.2496 136.658 83.2421 137.403 84.1452C137.79 84.6147 138.247 85.0226 138.757 85.3551C139.037 85.5331 139.345 85.6613 139.668 85.7341C140.049 85.8221 140.449 85.7567 140.782 85.5521C141.065 85.3276 141.279 85.028 141.399 84.6876C141.519 84.3472 141.54 83.9798 141.461 83.6277C141.408 83.3134 141.312 83.0077 141.177 82.719L141.078 82.5142C141.05 82.4583 141.024 82.4015 141 82.3443C140.952 82.2306 140.912 82.1136 140.881 81.9942C140.82 81.7624 140.799 81.5218 140.819 81.2829C140.822 81.2071 140.841 81.1327 140.873 81.0638C140.878 81.0529 140.855 81.0836 140.837 81.0827C140.815 81.085 140.829 81.0826 140.856 81.0892C141.062 81.1723 141.25 81.296 141.407 81.4529C141.596 81.6288 141.766 81.824 141.914 82.0352C142.512 82.9454 142.926 83.9636 143.133 85.0325L143.129 84.9584L143.009 87.6994L142.949 89.0695L142.919 89.7545C142.901 89.9896 142.899 90.2255 142.912 90.4608C143.05 91.3919 143.317 92.2991 143.708 93.1556C144.06 94.0071 144.46 94.8331 144.853 95.6557L144.856 95.6624L144.864 95.6766C145.74 96.9801 146.611 98.2864 147.499 99.5818C147.504 99.5896 147.513 99.5951 147.522 99.597C147.531 99.5989 147.541 99.5971 147.549 99.5921C147.557 99.587 147.563 99.579 147.565 99.5698C147.567 99.5606 147.566 99.5509 147.561 99.5427C146.769 98.1863 145.96 96.8408 145.156 95.4925L145.167 95.5132C144.8 94.6751 144.431 93.8436 144.114 92.9953C143.773 92.1758 143.546 91.3134 143.44 90.4323C143.437 90.2115 143.447 89.9907 143.47 89.771L143.515 89.0885L143.606 87.7236L143.786 84.9944C143.788 84.9696 143.786 84.9447 143.782 84.9202C143.676 84.3396 143.52 83.7692 143.317 83.2151C143.117 82.6505 142.848 82.1128 142.516 81.6143C142.34 81.3581 142.137 81.1212 141.911 80.9073C141.667 80.659 141.368 80.4713 141.038 80.3593C140.907 80.3229 140.768 80.3216 140.636 80.3556C140.485 80.3974 140.353 80.4897 140.261 80.617C140.145 80.7912 140.076 80.9928 140.062 81.2017C140.028 81.5299 140.053 81.8614 140.134 82.1813C140.172 82.3376 140.222 82.4908 140.283 82.6398C140.313 82.7137 140.346 82.7867 140.381 82.858L140.465 83.0381C140.569 83.2661 140.643 83.5062 140.686 83.7527C140.728 83.9755 140.719 84.2047 140.662 84.424C140.611 84.6113 140.502 84.7779 140.351 84.9001C140.094 85.0868 139.59 84.9623 139.166 84.6922C138.722 84.4016 138.323 84.049 137.979 83.645C137.265 82.7991 136.66 81.8678 136.177 80.8724C135.918 80.3391 135.609 79.8322 135.252 79.3587C135.061 79.103 134.832 78.8774 134.574 78.6894C134.421 78.5701 134.243 78.4875 134.053 78.4482C133.863 78.409 133.667 78.414 133.479 78.463C133.292 78.5226 133.121 78.6266 132.983 78.7661C132.844 78.9056 132.741 79.0764 132.683 79.2641C132.625 79.4428 132.605 79.6315 132.624 79.8182C132.645 79.9868 132.69 80.1516 132.757 80.3076L133.372 81.9042C133.792 82.963 134.209 84.0206 134.648 85.0713L134.634 85.0236C134.901 86.0497 135.297 87.0379 135.813 87.9646C136.293 88.8912 136.807 89.7932 137.3 90.7022C137.55 91.1485 137.778 91.6071 137.982 92.0763C138.143 92.5607 138.264 93.0577 138.343 93.5621C138.434 94.0654 138.474 94.5764 138.464 95.0876L138.482 96.6428C138.483 98.7192 138.516 100.782 138.449 102.869C138.451 104.986 138.948 107.073 139.899 108.966C140.381 109.915 140.988 110.796 141.705 111.583C142.426 112.384 143.287 113.048 144.245 113.543C145.213 114.03 146.269 114.319 147.35 114.392C148.427 114.451 149.505 114.305 150.527 113.962C152.568 113.304 154.323 112.057 155.887 110.682C156.668 109.988 157.403 109.245 158.088 108.457C158.78 107.678 159.421 106.857 160.009 105.997C160.012 105.993 160.013 105.989 160.014 105.984C160.015 105.979 160.015 105.974 160.014 105.97C160.014 105.965 160.012 105.961 160.009 105.956C160.006 105.952 160.003 105.949 159.999 105.946C159.991 105.941 159.982 105.94 159.972 105.941C159.963 105.943 159.955 105.948 159.949 105.955Z" fill="#020202"/>
<path d="M151.674 95.5845C150.963 96.1247 150.293 96.7147 149.638 97.319C148.979 97.921 148.353 98.5565 147.739 99.2033C147.129 99.8543 146.539 100.524 145.982 101.222C145.42 101.916 144.897 102.64 144.416 103.391C144.722 103.066 145 102.719 145.307 102.397C145.598 102.061 145.896 101.732 146.197 101.405C146.8 100.754 147.393 100.095 148.006 99.4535L151.674 95.5845Z" fill="#020202"/>
<path d="M160.674 84.1328C158.697 82.6728 156.584 81.4048 154.365 80.3459C153.256 79.8058 152.116 79.3331 150.95 78.9304C149.78 78.5197 148.573 78.225 147.346 78.0509C146.126 77.8847 144.897 77.791 143.665 77.7701C143.358 77.7629 143.049 77.7642 142.741 77.7799L142.51 77.7904C142.423 77.7961 142.338 77.813 142.256 77.8408C142.091 77.8987 141.945 78.0019 141.836 78.1387C141.741 78.2588 141.676 78.4001 141.647 78.5507C141.618 78.7013 141.626 78.8566 141.67 79.0034C141.714 79.1503 141.793 79.2843 141.9 79.394C142.007 79.5037 142.14 79.5859 142.285 79.6335L142.503 79.7062C143.663 80.0988 144.826 80.4821 146.001 80.8412C146.589 81.0173 147.179 81.1923 147.782 81.3338C148.083 81.4059 148.387 81.4719 148.697 81.5269C149.027 81.5934 149.363 81.6199 149.699 81.6058C149.782 81.5998 149.859 81.5621 149.915 81.5006C149.971 81.439 150.001 81.3583 149.998 81.2752C149.996 81.1922 149.962 81.1132 149.903 81.0548C149.844 80.9963 149.764 80.963 149.681 80.9616L149.656 80.9613L144.416 80.896L144.411 80.896C144.347 80.8954 144.284 80.9118 144.229 80.9436C144.114 81.0105 144.009 81.0943 143.918 81.1922C143.811 81.3087 143.737 81.4507 143.702 81.6044C143.676 81.7574 143.691 81.9144 143.744 82.0602C143.796 82.206 143.886 82.3358 144.004 82.4369C144.317 82.7032 144.677 82.9098 145.065 83.0465C145.414 83.1761 145.769 83.2862 146.131 83.3764C146.486 83.4776 146.843 83.5399 147.198 83.6232L147.013 83.5231C147.42 83.9048 147.858 84.2517 148.324 84.5601C148.786 84.8748 149.279 85.143 149.794 85.3609C150.323 85.5918 150.892 85.7169 151.469 85.7291C152.067 85.7293 152.647 85.5248 153.113 85.1498L152.859 85.1585C153.434 85.5067 154.003 85.8649 154.584 86.2046C155.163 86.5469 155.738 86.8943 156.323 87.2283C156.331 87.2329 156.34 87.2342 156.349 87.232C156.358 87.2299 156.366 87.2243 156.371 87.2166C156.377 87.2089 156.379 87.1995 156.377 87.1903C156.375 87.1812 156.37 87.1729 156.363 87.1673C155.827 86.7608 155.281 86.3677 154.739 85.9695C154.199 85.5687 153.646 85.1864 153.1 84.7941C153.066 84.7693 153.025 84.7558 152.982 84.7553C152.94 84.7549 152.898 84.7676 152.863 84.7917L152.847 84.8029C152.447 85.0817 151.964 85.2146 151.478 85.1795C150.979 85.1454 150.491 85.0142 150.041 84.7933C149.576 84.5716 149.133 84.3047 148.719 83.9963C148.304 83.689 147.909 83.3547 147.538 82.9954C147.49 82.9489 147.431 82.9156 147.366 82.8987L147.352 82.8953C147.013 82.8082 146.663 82.7403 146.332 82.6381C146 82.5473 145.672 82.44 145.351 82.3166C145.062 82.2163 144.792 82.0687 144.552 81.8799C144.451 81.7889 144.47 81.7551 144.464 81.7687C144.46 81.7676 144.474 81.7452 144.497 81.7136C144.529 81.6811 144.564 81.6519 144.602 81.6264L144.416 81.6738L149.656 81.6086L149.613 80.9641C149.338 80.9811 149.061 80.9681 148.789 80.9251C148.495 80.8858 148.199 80.8346 147.902 80.7767C147.31 80.6575 146.715 80.5322 146.122 80.3926C144.936 80.1123 143.756 79.8004 142.582 79.4567L142.363 79.3911C142.3 79.3729 142.24 79.3462 142.185 79.3117C142.074 79.2416 141.985 79.1416 141.928 79.0231C141.872 78.903 141.851 78.7699 141.866 78.6384C141.88 78.5068 141.931 78.3819 142.012 78.2772C142.094 78.1728 142.203 78.0936 142.328 78.0489C142.391 78.0287 142.456 78.0167 142.523 78.0133L142.75 78.0063C143.052 77.9953 143.356 77.998 143.659 78.01C144.873 78.0812 146.08 78.2463 147.268 78.5035C148.447 78.768 149.605 79.1158 150.735 79.5442C151.875 79.9485 153 80.4003 154.109 80.8997C156.327 81.8891 158.501 82.9971 160.633 84.1936C160.638 84.1961 160.642 84.1977 160.647 84.1985C160.652 84.1992 160.657 84.199 160.661 84.1978C160.666 84.1966 160.67 84.1946 160.674 84.1917C160.678 84.1888 160.681 84.1853 160.684 84.1811C160.688 84.1733 160.69 84.1641 160.688 84.1552C160.686 84.1463 160.681 84.1384 160.674 84.1328Z" fill="#020202"/>
<path d="M138.683 73.3811L141.896 78.2525C141.284 79.2955 142.65 79.614 142.65 79.614L144.207 81.4513C144.207 81.4513 143.764 82.1869 145.01 82.6041L143.035 83.4606C143.035 83.4606 142.364 81.4513 141.346 80.884L142.189 80.6168L138.393 74.4279L133.264 74.9512L137.063 82.2418L140.434 81.1731C140.388 81.8205 140.544 82.4662 140.881 83.0214L141.093 83.9108L138.551 84.7306C137.586 83.5445 136.684 82.3082 135.851 81.0267C135.063 79.6835 134.356 78.6185 133.85 78.7575L131.014 73.9044L138.683 73.3811ZM143.024 82.2198C143.166 82.2148 143.301 82.1547 143.4 82.0523C143.499 81.9499 143.554 81.8131 143.554 81.6708C143.554 81.5285 143.499 81.3918 143.4 81.2894C143.301 81.187 143.166 81.1269 143.024 81.1218C142.882 81.1269 142.747 81.1869 142.648 81.2893C142.549 81.3917 142.494 81.5285 142.494 81.6708C142.494 81.8132 142.549 81.9499 142.648 82.0523C142.747 82.1547 142.882 82.2148 143.024 82.2198V82.2198ZM138.54 83.7131C138.682 83.708 138.817 83.648 138.916 83.5456C139.015 83.4432 139.07 83.3064 139.07 83.1641C139.07 83.0218 139.015 82.885 138.916 82.7826C138.817 82.6802 138.682 82.6202 138.54 82.6151C138.397 82.6202 138.262 82.6802 138.163 82.7826C138.064 82.885 138.009 83.0218 138.009 83.1641C138.009 83.3064 138.064 83.4432 138.163 83.5456C138.262 83.648 138.397 83.7081 138.54 83.7131V83.7131Z" fill="#020202"/>
<path d="M158.084 82.603C157.415 83.0792 156.788 83.6107 156.209 84.1919C155.619 84.7614 155.078 85.3801 154.592 86.0413C155.261 85.5658 155.888 85.0342 156.466 84.4524C157.056 83.8824 157.598 83.2637 158.084 82.603Z" fill="#020202"/>
<path d="M89.1968 123.014C90.9956 122.117 104.559 96.4278 104.559 96.4278C106.717 92.4494 109.541 90.4731 112.23 89.5581C114.067 88.9543 116.017 88.777 117.932 89.0395C119.848 89.3021 121.678 89.9977 123.284 91.0733L138.657 101.2C138.419 105.881 139.584 107.638 139.584 107.638L126.614 108.22C121.602 109.618 121.8 113.666 121.8 113.666L121.39 143.476C113.066 147.513 102.764 143.476 102.764 143.476L104.291 135.128L105.775 126.963C106.284 124.247 106.794 121.535 107.391 118.841C107.673 117.491 107.995 116.151 108.34 114.815C108.677 113.483 109.05 112.155 109.479 110.852C109.89 109.544 110.404 108.271 111.018 107.045C111.317 106.433 111.698 105.865 112.15 105.354C112.377 105.104 112.648 104.897 112.949 104.743C113.097 104.661 113.263 104.615 113.433 104.608C113.603 104.602 113.772 104.636 113.927 104.707C113.774 104.616 113.602 104.564 113.425 104.553C113.248 104.542 113.071 104.573 112.908 104.644C112.578 104.778 112.275 104.972 112.014 105.215C111.507 105.705 111.068 106.261 110.706 106.866C110.002 108.074 109.411 109.345 108.94 110.661C108.003 113.281 107.247 115.961 106.676 118.684C106.086 121.396 105.607 124.13 105.211 126.871C104.808 129.612 104.518 132.368 104.291 135.128C97.2826 133.873 89.1968 123.014 89.1968 123.014ZM119.759 143.209C119.902 143.204 120.037 143.144 120.136 143.042C120.234 142.939 120.29 142.802 120.29 142.66C120.29 142.518 120.234 142.381 120.136 142.279C120.037 142.176 119.902 142.116 119.759 142.111C119.617 142.116 119.482 142.176 119.383 142.279C119.284 142.381 119.229 142.518 119.229 142.66C119.229 142.802 119.284 142.939 119.383 143.042C119.482 143.144 119.617 143.204 119.759 143.209ZM117.122 143.912C117.264 143.907 117.399 143.847 117.498 143.744C117.597 143.642 117.652 143.505 117.652 143.363C117.652 143.22 117.597 143.084 117.498 142.981C117.399 142.879 117.264 142.819 117.122 142.814C116.979 142.819 116.844 142.879 116.745 142.981C116.646 143.084 116.591 143.22 116.591 143.363C116.591 143.505 116.646 143.642 116.745 143.744C116.844 143.847 116.979 143.907 117.122 143.912V143.912ZM105.251 142.111C105.109 142.116 104.973 142.176 104.874 142.278C104.775 142.381 104.719 142.518 104.719 142.66C104.719 142.803 104.775 142.94 104.874 143.042C104.973 143.144 105.109 143.204 105.251 143.209C105.394 143.204 105.529 143.144 105.628 143.042C105.727 142.939 105.783 142.803 105.783 142.66C105.783 142.518 105.727 142.381 105.628 142.278C105.529 142.176 105.394 142.116 105.251 142.111V142.111ZM108.153 142.989C108.01 142.994 107.875 143.054 107.776 143.156C107.677 143.259 107.621 143.396 107.621 143.538C107.621 143.681 107.677 143.818 107.776 143.92C107.875 144.023 108.01 144.083 108.153 144.087C108.295 144.083 108.43 144.023 108.53 143.92C108.629 143.818 108.684 143.681 108.684 143.538C108.684 143.396 108.629 143.259 108.53 143.157C108.43 143.054 108.295 142.994 108.153 142.989V142.989ZM110.967 143.341C110.824 143.345 110.689 143.405 110.59 143.508C110.49 143.61 110.435 143.747 110.435 143.89C110.435 144.032 110.49 144.169 110.59 144.272C110.689 144.374 110.824 144.434 110.967 144.439C111.109 144.434 111.244 144.374 111.343 144.272C111.442 144.169 111.498 144.032 111.498 143.89C111.498 143.747 111.442 143.61 111.343 143.508C111.244 143.406 111.109 143.346 110.967 143.341V143.341ZM114.044 144.351C114.186 144.346 114.321 144.286 114.42 144.183C114.519 144.081 114.574 143.944 114.574 143.802C114.574 143.66 114.519 143.523 114.42 143.42C114.321 143.318 114.186 143.258 114.044 143.253C113.902 143.258 113.767 143.318 113.667 143.42C113.568 143.523 113.513 143.659 113.513 143.802C113.513 143.944 113.568 144.081 113.667 144.184C113.767 144.286 113.902 144.346 114.044 144.351V144.351ZM90.4791 121.996C90.3365 122.001 90.2013 122.061 90.102 122.163C90.0028 122.266 89.9473 122.403 89.9473 122.545C89.9473 122.688 90.0028 122.825 90.102 122.927C90.2013 123.029 90.3365 123.089 90.4791 123.094C90.6216 123.089 90.7566 123.029 90.8556 122.927C90.9547 122.824 91.0101 122.688 91.0101 122.545C91.0101 122.403 90.9547 122.266 90.8556 122.163C90.7566 122.061 90.6216 122.001 90.4791 121.996V121.996ZM92.4135 124.192C92.2709 124.197 92.1357 124.257 92.0365 124.359C91.9373 124.462 91.8818 124.598 91.8818 124.741C91.8818 124.884 91.9373 125.021 92.0365 125.123C92.1357 125.225 92.2709 125.285 92.4135 125.29C92.556 125.285 92.691 125.225 92.7901 125.123C92.8891 125.02 92.9445 124.883 92.9445 124.741C92.9445 124.599 92.8891 124.462 92.7901 124.359C92.691 124.257 92.556 124.197 92.4135 124.192V124.192ZM103.58 134.162C103.723 134.157 103.858 134.097 103.957 133.994C104.055 133.892 104.111 133.755 104.111 133.613C104.111 133.47 104.055 133.334 103.957 133.231C103.858 133.129 103.723 133.069 103.58 133.064C103.438 133.069 103.303 133.129 103.204 133.231C103.105 133.333 103.049 133.47 103.049 133.613C103.049 133.755 103.105 133.892 103.204 133.994C103.303 134.097 103.438 134.157 103.58 134.162V134.162ZM101.206 133.108C101.349 133.103 101.484 133.042 101.583 132.94C101.681 132.838 101.737 132.701 101.737 132.559C101.737 132.416 101.681 132.28 101.583 132.177C101.484 132.075 101.349 132.015 101.206 132.01C101.064 132.014 100.929 132.074 100.83 132.177C100.731 132.279 100.675 132.416 100.675 132.559C100.675 132.701 100.731 132.838 100.83 132.94C100.929 133.043 101.064 133.103 101.206 133.108V133.108ZM98.8323 131.702C98.9747 131.697 99.1095 131.637 99.2085 131.535C99.3074 131.432 99.3627 131.295 99.3627 131.153C99.3627 131.011 99.3074 130.874 99.2085 130.772C99.1095 130.669 98.9747 130.609 98.8323 130.604C98.6898 130.609 98.5548 130.669 98.4557 130.771C98.3567 130.874 98.3013 131.011 98.3013 131.153C98.3013 131.296 98.3567 131.432 98.4557 131.535C98.5548 131.637 98.6898 131.697 98.8323 131.702V131.702ZM96.6341 129.77C96.7765 129.765 96.9113 129.705 97.0102 129.602C97.1091 129.5 97.1644 129.363 97.1644 129.221C97.1644 129.078 97.1091 128.942 97.0102 128.839C96.9113 128.737 96.7765 128.677 96.6341 128.672C96.4916 128.677 96.3566 128.737 96.2576 128.839C96.1585 128.942 96.1031 129.078 96.1031 129.221C96.1031 129.363 96.1585 129.5 96.2576 129.603C96.3566 129.705 96.4916 129.765 96.6341 129.77V129.77ZM94.4359 126.3C94.2933 126.305 94.1581 126.365 94.0589 126.467C93.9596 126.57 93.9042 126.707 93.9042 126.849C93.9042 126.992 93.9596 127.129 94.0589 127.231C94.1581 127.333 94.2933 127.393 94.4359 127.398C94.5784 127.393 94.7134 127.333 94.8124 127.231C94.9115 127.128 94.9669 126.992 94.9669 126.849C94.9669 126.707 94.9115 126.57 94.8124 126.467C94.7134 126.365 94.5784 126.305 94.4359 126.3V126.3Z" fill="#6493A3"/>
<path d="M121.325 150.235C121.224 151.932 121.178 153.632 121.239 155.336C121.25 156.202 121.336 157.065 121.496 157.916C121.522 158.03 121.555 158.143 121.596 158.253L121.678 158.432L121.721 158.52C121.725 158.532 121.729 158.543 121.735 158.554C121.748 158.615 121.749 158.678 121.736 158.739C121.723 158.8 121.698 158.858 121.661 158.909C121.453 159.227 121.179 159.497 120.857 159.699C120.188 160.141 119.428 160.427 118.633 160.535C117.838 160.643 117.029 160.571 116.266 160.324C116.078 160.259 115.893 160.185 115.712 160.101C115.516 160.009 115.316 159.919 115.114 159.835C114.709 159.669 114.291 159.533 113.864 159.431C113.011 159.235 112.133 159.17 111.26 159.237C110.395 159.281 109.539 159.435 108.714 159.696C108.301 159.826 107.9 159.987 107.513 160.179C107.134 160.358 106.743 160.51 106.343 160.634C105.537 160.888 104.716 161.093 103.884 161.246C103.054 161.405 102.218 161.543 101.377 161.634C99.7028 161.834 98.0131 161.866 96.333 161.728C95.5171 161.673 94.7154 161.488 93.9579 161.18C93.6218 161.044 93.3336 160.811 93.13 160.511C93.0525 160.363 93.006 160.2 92.9933 160.034C92.9805 159.867 93.0018 159.7 93.0559 159.542L92.9989 159.655C93.1617 159.472 93.3389 159.302 93.5288 159.147C93.7234 158.981 93.9328 158.829 94.1421 158.678C94.5717 158.383 95.02 158.116 95.4841 157.879C96.4228 157.407 97.3986 157.012 98.4017 156.699C99.4117 156.386 100.438 156.129 101.476 155.929C101.994 155.816 102.517 155.751 103.037 155.659C103.588 155.59 104.132 155.477 104.665 155.322C105.731 155.014 106.744 154.546 107.669 153.933C108.597 153.325 109.385 152.526 109.98 151.589C110.575 150.653 110.963 149.601 111.12 148.503C111.273 147.429 111.264 146.338 111.094 145.267C111.093 145.257 111.088 145.249 111.08 145.243C111.073 145.237 111.063 145.235 111.054 145.236C111.045 145.237 111.036 145.241 111.03 145.248C111.024 145.255 111.021 145.265 111.021 145.274C111.098 146.336 111.026 147.403 110.807 148.445C110.597 149.472 110.18 150.446 109.58 151.306C108.977 152.151 108.213 152.869 107.332 153.418C106.446 153.964 105.482 154.372 104.474 154.629C103.972 154.76 103.462 154.856 102.947 154.916C102.409 155.001 101.864 155.062 101.332 155.17C100.798 155.272 100.263 155.37 99.7373 155.514C99.2068 155.636 98.6854 155.798 98.1636 155.957C97.12 156.292 96.1084 156.719 95.1408 157.233C94.1363 157.74 93.23 158.42 92.4641 159.244C92.4397 159.272 92.4217 159.305 92.4116 159.34L92.4071 159.357C92.3309 159.603 92.3067 159.863 92.3359 160.119C92.3652 160.375 92.4473 160.622 92.5772 160.845C92.8565 161.248 93.2511 161.557 93.7092 161.732C94.535 162.048 95.4088 162.22 96.2927 162.241C98.006 162.299 99.7208 162.191 101.414 161.921C103.104 161.691 104.775 161.335 106.413 160.855C106.824 160.73 107.228 160.581 107.623 160.41C108.003 160.235 108.396 160.092 108.798 159.981C109.607 159.771 110.438 159.665 111.273 159.666C112.1 159.643 112.925 159.744 113.721 159.967C114.114 160.086 114.499 160.23 114.874 160.398C115.063 160.482 115.248 160.571 115.433 160.665C115.635 160.765 115.842 160.855 116.053 160.933C116.908 161.234 117.824 161.318 118.72 161.177C119.61 161.038 120.457 160.701 121.198 160.19C121.592 159.93 121.923 159.586 122.166 159.182C122.232 159.061 122.278 158.931 122.302 158.796C122.333 158.636 122.313 158.47 122.246 158.322L122.188 158.213L122.164 158.157L122.112 158.048C122.078 157.959 122.05 157.869 122.027 157.777C121.839 156.966 121.719 156.141 121.667 155.311C121.538 153.627 121.46 151.932 121.398 150.236C121.398 150.231 121.397 150.227 121.395 150.222C121.393 150.218 121.39 150.214 121.386 150.211C121.383 150.207 121.379 150.205 121.374 150.203C121.37 150.201 121.365 150.2 121.36 150.201C121.351 150.201 121.342 150.205 121.336 150.211C121.329 150.217 121.325 150.226 121.325 150.235Z" fill="#020202"/>
<path d="M99.8542 133.28C99.4994 133.932 99.1804 134.601 98.8769 135.278C98.574 135.955 98.2867 136.642 98.0398 137.344C97.7863 138.047 97.5709 138.764 97.3945 139.49C97.2005 140.229 97.1084 140.991 97.1208 141.754C97.1265 141.952 97.1476 142.149 97.1837 142.344C97.2004 142.444 97.2232 142.543 97.252 142.641L97.2978 142.788C97.3041 142.81 97.3163 142.844 97.3178 142.855C97.3192 142.866 97.3214 142.876 97.3244 142.886C97.3695 143.06 97.1917 143.381 96.9715 143.613C96.4856 144.104 95.8899 144.473 95.2332 144.69C94.5755 144.92 93.8783 145.018 93.1826 144.976C92.4829 144.926 91.8008 144.734 91.1785 144.411C90.4873 144.082 89.7555 143.847 89.0024 143.711C88.2517 143.595 87.4899 143.567 86.7328 143.629C85.9803 143.677 85.2355 143.808 84.5122 144.021C84.1512 144.128 83.7973 144.257 83.4525 144.409C83.1237 144.572 82.7864 144.718 82.442 144.846C81.043 145.307 79.5992 145.618 78.1346 145.775C76.6754 145.962 75.2013 146.005 73.7336 145.905C73.0095 145.855 72.2917 145.737 71.5897 145.554C71.25 145.46 70.9202 145.333 70.6051 145.175C70.3026 145.035 70.0321 144.834 69.8105 144.585C69.5996 144.356 69.4744 144.061 69.4562 143.751C69.4269 143.433 69.4794 143.114 69.6088 142.823C69.7502 142.519 69.941 142.241 70.1734 141.999C70.4097 141.734 70.6633 141.484 70.9326 141.252C72.0337 140.322 73.2855 139.586 74.6343 139.077C75.3087 138.812 75.9976 138.586 76.6976 138.4C77.4005 138.211 78.1437 138.021 78.8503 137.781C80.2776 137.31 81.6579 136.706 82.9732 135.979C84.2772 135.24 85.5154 134.391 86.6743 133.441C87.8402 132.503 88.907 131.448 89.8582 130.293C90.8181 129.146 91.567 127.838 92.0702 126.429C92.0733 126.42 92.0727 126.41 92.0684 126.401C92.0642 126.393 92.0566 126.386 92.0474 126.383C92.0386 126.38 92.0291 126.381 92.0206 126.384C92.0122 126.388 92.0054 126.395 92.0017 126.403C91.3958 127.743 90.5768 128.975 89.5763 130.053C88.5858 131.132 87.4956 132.116 86.3201 132.991C84.0071 134.782 81.3962 136.153 78.607 137.039C77.9095 137.268 77.22 137.452 76.4939 137.646C75.7631 137.839 75.0461 138.081 74.3478 138.369C72.9312 138.933 71.6212 139.734 70.4744 140.738C70.1877 140.994 69.9182 141.268 69.6677 141.559C69.3918 141.858 69.1698 142.201 69.0117 142.575C68.8516 142.968 68.7945 143.395 68.8458 143.816C68.8703 144.031 68.9266 144.242 69.0127 144.44C69.1081 144.633 69.2299 144.811 69.3745 144.969C69.6534 145.267 69.9904 145.505 70.3647 145.668C70.7185 145.827 71.0872 145.951 71.4655 146.037C72.2039 146.197 72.9558 146.286 73.711 146.305C75.2017 146.337 76.6924 146.246 78.1678 146.03C79.6442 145.839 81.1009 145.517 82.5209 145.07C82.8713 144.951 83.2314 144.797 83.5573 144.652C83.894 144.515 84.2397 144.401 84.5921 144.311C85.2993 144.139 86.0235 144.047 86.7511 144.036C87.4729 144.012 88.195 144.071 88.9031 144.213C89.6012 144.376 90.276 144.626 90.9113 144.958C91.5981 145.34 92.36 145.568 93.144 145.626C93.928 145.684 94.7152 145.571 95.451 145.295C96.201 145.031 96.8767 144.592 97.4214 144.013C97.5634 143.856 97.6838 143.68 97.7794 143.49C97.8987 143.268 97.939 143.012 97.8938 142.763L97.865 142.66L97.8443 142.594L97.8061 142.478C97.7808 142.399 97.7606 142.318 97.7457 142.236C97.7113 142.068 97.6901 141.897 97.6822 141.726C97.6911 140.276 97.9351 138.837 98.4047 137.465C98.8398 136.056 99.3455 134.67 99.92 133.312C99.9239 133.303 99.9241 133.293 99.9206 133.284C99.9171 133.275 99.9101 133.268 99.9012 133.264C99.8928 133.26 99.8833 133.26 99.8747 133.263C99.866 133.266 99.8587 133.272 99.8542 133.28Z" fill="#020202"/>
<path d="M159.089 69.315C158.946 69.3101 158.811 69.2501 158.712 69.1477C158.613 69.0453 158.558 68.9084 158.558 68.766C158.558 68.6236 158.613 68.4868 158.712 68.3844C158.811 68.282 158.946 68.222 159.089 68.217C159.231 68.222 159.366 68.282 159.465 68.3844C159.564 68.4868 159.619 68.6236 159.619 68.766C159.619 68.9084 159.564 69.0453 159.465 69.1477C159.366 69.2501 159.231 69.3101 159.089 69.315Z" fill="#020202"/>
<path d="M167.805 69.9969C167.663 69.992 167.528 69.932 167.429 69.8296C167.33 69.7272 167.274 69.5903 167.274 69.4479C167.274 69.3055 167.33 69.1687 167.429 69.0663C167.528 68.9638 167.663 68.9038 167.805 68.8989C167.948 68.9038 168.083 68.9638 168.182 69.0663C168.281 69.1687 168.336 69.3055 168.336 69.4479C168.336 69.5903 168.281 69.7272 168.182 69.8296C168.083 69.932 167.948 69.992 167.805 69.9969Z" fill="#020202"/>
<path d="M160.654 73.2532C160.399 73.5662 160.188 73.8479 159.939 74.0965C159.818 74.2235 159.688 74.3412 159.549 74.4485C159.411 74.5644 159.255 74.6549 159.088 74.7787C159.293 74.806 159.5 74.7778 159.69 74.6969C159.883 74.6192 160.057 74.5017 160.201 74.3521C160.343 74.2048 160.458 74.0329 160.539 73.8449C160.624 73.6595 160.663 73.4567 160.654 73.2532Z" fill="#020202"/>
<path d="M158.084 67.0612C158.276 67.1071 158.478 67.0894 158.659 67.0107C158.84 66.932 158.991 66.7965 159.088 66.6248C158.897 66.5747 158.693 66.5925 158.513 66.6752C158.33 66.7511 158.179 66.8873 158.084 67.0612Z" fill="#020202"/>
<path d="M168.37 70.5498C168.183 70.574 167.994 70.5871 167.806 70.5891C167.633 70.5919 167.468 70.5651 167.24 70.5498C167.295 70.6483 167.377 70.7285 167.477 70.7805C167.578 70.8349 167.691 70.8634 167.805 70.8634C167.919 70.8673 168.032 70.8401 168.131 70.7849C168.231 70.7296 168.313 70.6484 168.37 70.5498Z" fill="#020202"/>
<path d="M160.294 104.649C160.151 104.644 160.016 104.584 159.917 104.482C159.818 104.379 159.763 104.243 159.763 104.1C159.763 103.958 159.818 103.821 159.917 103.719C160.016 103.616 160.151 103.556 160.294 103.551C160.436 103.556 160.571 103.616 160.67 103.719C160.769 103.821 160.824 103.958 160.824 104.1C160.824 104.243 160.769 104.379 160.67 104.482C160.571 104.584 160.436 104.644 160.294 104.649Z" fill="#020202"/>
<path d="M158.447 103.068C158.305 103.063 158.17 103.003 158.071 102.901C157.972 102.798 157.916 102.661 157.916 102.519C157.916 102.377 157.972 102.24 158.071 102.137C158.17 102.035 158.305 101.975 158.447 101.97C158.59 101.975 158.725 102.035 158.824 102.137C158.923 102.24 158.978 102.377 158.978 102.519C158.978 102.661 158.923 102.798 158.824 102.901C158.725 103.003 158.59 103.063 158.447 103.068Z" fill="#020202"/>
<path d="M156.513 101.136C156.37 101.131 156.235 101.071 156.136 100.968C156.037 100.866 155.982 100.729 155.982 100.587C155.982 100.444 156.037 100.307 156.136 100.205C156.235 100.103 156.37 100.043 156.513 100.038C156.655 100.043 156.79 100.103 156.889 100.205C156.988 100.307 157.044 100.444 157.044 100.587C157.044 100.729 156.988 100.866 156.889 100.968C156.79 101.071 156.655 101.131 156.513 101.136Z" fill="#020202"/>
<path d="M154.842 98.9395C154.7 98.9346 154.565 98.8746 154.466 98.7722C154.367 98.6698 154.311 98.533 154.311 98.3905C154.311 98.2481 154.367 98.1113 154.466 98.0089C154.565 97.9065 154.7 97.8465 154.842 97.8416C154.985 97.8465 155.12 97.9065 155.219 98.0089C155.318 98.1113 155.373 98.2481 155.373 98.3905C155.373 98.533 155.318 98.6698 155.219 98.7722C155.12 98.8746 154.985 98.9346 154.842 98.9395Z" fill="#020202"/>
<path d="M153.435 96.7437C153.293 96.7388 153.158 96.6788 153.059 96.5764C152.96 96.474 152.904 96.3371 152.904 96.1947C152.904 96.0523 152.96 95.9155 153.059 95.8131C153.158 95.7107 153.293 95.6507 153.435 95.6458C153.578 95.6507 153.713 95.7107 153.812 95.8131C153.911 95.9155 153.966 96.0523 153.966 96.1947C153.966 96.3371 153.911 96.474 153.812 96.5764C153.713 96.6788 153.578 96.7388 153.435 96.7437Z" fill="#020202"/>
<path d="M134.173 60.2561H143.873V66.2545H140.345L139.023 67.5751L137.702 66.2545H134.173V60.2561Z" stroke="black" stroke-width="0.96777" stroke-miterlimit="10"/>
<path d="M124.474 51.0396H134.173V57.0379H130.645L129.323 58.3585L128.002 57.0379H124.474V51.0396Z" stroke="black" stroke-width="0.96777" stroke-miterlimit="10"/>
<path d="M135.31 43.0181H145.01V49.0164H141.482L140.16 50.3366L138.838 49.0164H135.31V43.0181Z" stroke="black" stroke-width="0.96777" stroke-miterlimit="10"/>
</svg>
